<mxfile host="app.diagrams.net" modified="2024-01-10T17:27:12.836Z" agent="Mozilla/5.0 (X11; Linux x86_64) AppleWebKit/537.36 (KHTML, like Gecko) Chrome/119.0.0.0 Safari/537.36" etag="tJ0JHa4xWLl1vypKA99E" version="22.1.18" type="device">
  <diagram name="Page-1" id="Lskrs2u0TKfylIJE4yGP">
    <mxGraphModel dx="1266" dy="702" grid="1" gridSize="10" guides="1" tooltips="1" connect="1" arrows="1" fold="1" page="1" pageScale="1" pageWidth="827" pageHeight="1169" math="0" shadow="0">
      <root>
        <mxCell id="0" />
        <mxCell id="1" parent="0" />
        <mxCell id="DdXPLfDgXR_BWDgCI4JC-1" value="" style="shape=image;verticalLabelPosition=bottom;labelBackgroundColor=default;verticalAlign=top;aspect=fixed;imageAspect=0;image=data:image/png,iVBORw0KGgoAAAANSUhEUgAABMoAAADMCAYAAACC5U83AAAABHNCSVQICAgIfAhkiAAAIABJREFUeF7snQd4FFUXhr+Z3VRSCAmJlNB77wjSm6KACIiA/lR7FyxUUXqxotgVUFFEFIIUUZpUAem995KQBEIgdXfmP3dLstnMbjbJLiTkzPMsYWfunLn3nTvlfnvOuVLlatVV8MIEmAATYAJMgAkwASbABJgAE2ACTIAJMAEmwASKOAG5iLefm88EmAATYAJMgAkwASbABJgAE2ACTIAJMAEmwARMBFgo447ABJgAE2ACTIAJMAEmwASYABNgAkyACTABJsAEiAALZdwNmAATYAJMgAkwASbABJgAE2ACTIAJMAEmwASYABFgoYy7ARNgAkyACTABJsAEmAATYAJMgAkwASbABJgAEyACeqaQdwJBXjJ6+mRVGxPSVCyhj+0MCX5U7lG7cjepzO/0UfJ+eN6TCTABEwEdIu9/EU+3CiXlX0Xspq8xa9UFGO96OjLC2zyN5zuVhpekwhCzEV/NXo2LfFO56888N5AJMAEmwASYABNgAkyACTABzxFgoSwfbP31Elr5SDRMz1yuKEZEpSGLUOatk3AflbOFHasasZjK8VJICcil0XZQbzQMkuhkp+HYiu+w4oSzE6pHaO1OeKRnZ7RuVAuVy4QhyFcHJfUm4i6dxuG9W7Fm6WKs2BWN1EKK5M5VW0JYvQfQu3c5uhaNOHtjMT4hoezuX2REtuyFvn3KmO5BShzw9xcslN39551byASYABNgAkyACTABJsAEmIAnCbBQ5km6bPuuJeDXbCjGD++PMqRQKHF/4OW56Q7bKhWrjkfHTsdb3asgQCZhzXbx9kHZ6qH0aYLOjz6F59d8gjfHzcPuBFufRIemeQMTYAJMgAkwASbABJgAE2ACTIAJMAEm4EYCLJS5ESabKiIE5Ah0G9IdpYUbj2rAiYXzsO6GA2HLqxIGfPQNxt5XIiMhoJoaj9NHjuJsfCq8gkqjas3KCPfXQZJ8Ua7T6/j2niA8OfQT7LrpwGYRwczNdIWAbR/JGvLtyt5chgkwASbABJgAE2ACTIAJMAEmwASyEmChjHsEE8glAa9a/TCoZTEI3zD15mbM/eUIDJo2KDSu7ziMaGkRydR0nP/7PbwxYQF2x2fuIQdWxoOvTse7/WoiQJJQrPYwTHz6H/T6YC+HYWpyta7UIahCY7S5rzFaNQ0xnQ/QvyGNHsHQ/uVw8vhh7D94CjHJd2u2MiOOLJqCscdLQkc5ypT4A9iv3RGdUuSNTIAJMAEmwASYABNgAkyACTABJpBJgIUy7g1MIDcEpGB0GNQHlSnvHCgf1oWlc7AixoHnl64KevZpjGImBYeSrR+fi+Ejf8S+lKwHVBJPYtmUVxFccTHG3etPnmV6VOrZC80+24uNdmVzU9W7uax3ZAc8P+p1DGpbHv5ZolllBNXvgxH0MVE3JOLioW1Y+N4YfPnfzbsMiYpbJ/7B7yfusmZxc5gAE2ACTIAJMAEmwASYABNgAneQgHwHj82HLkAE7DJnFaCaFayq6Cr0xtBOIaYwSjVlL378YReSHVRRCq6L+hWtl5gRB/9YgoOOhC/jRSxbsg0pFs1NDqF9y9tOE+HgIEVutYTABs9izi8f49l2ZpFMNSYj9nw0EsVsj8pNxFyIxS2DGaSkD0TZem1wbyVfi8dZkQPGDWYCTIAJMAEmwASYABNgAkyACTCBXBDQ9CgT+cbDsiQdV5FI0UtWQSCIZnts5CWhFGkAMo1Hr9CgdE+6ijgNx5ogsuObocKoSKLBbG5TLxUn7x3vjEZlrUswbfOxaXC6ouKapR5+tK2Bt4RyVE89rYs1Uj3TVERr1NMRs0hvGXWJUglqQxrV/VS6gr0U3uQ4dbsjS47XB1A9G1E9y1A9KYIqg2d8LuoZ4SXTOQHCTQoOcJXOyW5q62UrCzoPgbZqmKoiltojtAWxlPLT4WmCtCWVPrRfgfW9oTxeoWVKWpLiq0hLuILLCTmfDX1gBEqH+JjFEjWFZpqMwc1cR+T5ofnA/qhLM5gKcnF/z8Xv5x0bkQODEWi9jtRUnDtziXzQHC3kHXT+HK7SCSln0scCEZzlhNGq29Z2PUKqtUD7++qjaukQ+NGVH3fuEP5dtw7/XUg2zeiq8w9BCOVVg6ogNTEeic4m/HTU5DyslwJb4a33nkfj4jJdKwZc+ucTjJn0I7YmdsZnG6ahA/7FtIdfwQqlBCo3uA8d7u+GXt2auHAkPYIiSiFEnFs1CVcvxpruVabFOwy172uLFnUroVRxHyhJ8bh4Yh+2/PMvjl1zJdZRgl9ELTS/tyFqViyDsGBf6IypSEqMw6Wzp3B0327sOx0PuvRyXORiJVE21E9T9FONJBJejIcjLTZH41yACTABJsAEmAATYAJMgAkwASbABKAplAX66DCR4sUyN6pYlmDEYqOENsVk9KPBpK04JTj2JYHqr1tUhgbM1vGlyBfUJUiHrjaOMVsTDfgmF4NqWS9jeLCMMpaTpZLAM/uaEbvFoJLyOQ0M1qGBjQB0hfIRjUtSUYsG8cP8JATZneTeVM/lpJAsJW3F2bjUn447KEBGY6p7Vm8rGTGkmH11U3HoSeRqv5Ko/i2J5wDi6We302OaPLNb1pEQ0ydQh050suzdAx8hVuupnguI98PEqbNNAQMJfiNvKLhmY7I0iYKPkSLZi469m0btG1IVHCFlxxmn7DXy8BpVhwp9P8acYdXhQ6qi4cwCPNN/MjY5mSVSCmiCET9+jSFVvUlcMeLSsuF4dNTqXIuBcsRDGNqtFMw5/E/gl7n/wFEOf0FBSbwBwm9ZJOquWXtSNlK0PfMU3USivaJ8G9oul2iMoeMn4IVOFexCGoEX3ojFf/PexusfbUHlN6PwTd9QEspv4Y+XW+H1Nbm4qLM13NUVMiIeGozupWjiA+qV6Ue/wUvDv8EBoQwFZrUhJkw4se0P0+fbjyqjWvBN5/1YVw4DPl2M12rThZT2L97p8iR+jvFCZKeXMHn0E2h2D/Udu2qqKRew4ePheHneQYfilD6iJZ4c9RaGdayMIFO4rsZCYmPy5b348/N3MOa3E07EVAnFH5iE5RNb2fxwkGlPiVuEpzqMx6acdWONSvAqJsAEmAATYAJMgAkwASbABJgAExAE7LUVB1QkmuFPQvMAHf6nIZKJnfQk2HSl7Y+T0JI5HFQhHG5shZZwsuNguKh5bC+yG2azRSGvsEtOlJsSZL8KeUc9pyGSCTNCWOpOwlIHJ1FtPiSSvRoko0k2kcxckXASlIYHyiirWWPXV7YgXkM0RDJhQZtnVtsStWUQCZGdNUQyUVIm4aU9iX196RjCq87VRTBv5idjRHE9phCHB2n/4rk5aa4eKE/lbmHnp2/h452JJMiSmFuhLyaP7YKSjtonhaDNG5MxqIoQOsgD7dR8jJy0xuRNl7vFC7X7D0RLU0Is8mrcOA8/H3HuTaQmHMK+cxYfMskblauWM4ls2gsxrlIlox3KjcM4cMbe/8yzbZdKtMbYuV/h9c7ZRTJRZ0kfhqZDP8Q3r3dAtdKBrt48tJubp7XeqNu4DgmkYmcjDi3/A4ddcJ8y3jiJw+ddKGitk1wcIeQ5Vr7Xe/jpwyForiGSmXj4lkWLltVBtxrNRVe6G2bO/xyvdqniWCQzGZLhV7oBOjeLdNI/NA/BK5kAE2ACTIAJMAEmwASYABNgAkzAzQQ0Pcq0jlHRV0YVB4KMtbzwmGlTTIcD6RaPL9pwiYQtlSQK61gynJQCIRY4lxgyaxBGhW0rmUT24rQqaFmnp7DQQRQW6uukjKjnQzS63UweO9mGz7StB4lLlRwMfq1m/SnUcQDVzZE+4+Twpk0B3jr0o52d7S/q2ZZ4HjQYsUtD2GlCXnMtHYh51uMLGx3IO1Bj95yqaDpn4dTO3hTS+TB5me2nkMwNKQoOkH6TF3s5HtDVAmnHMXfUNDReMBEdQ3W4p+s4TN5+CM/9et7OG4c8kLqOxaReZWlWQBFRtxefvfkxtiU6UVod1EEq3gFD+1Q02QHlE4ua9yeu5mTGeBRLft2NwSObkHeWHtV6Po6W89/FRi03NN/aePyxJqAIXKqoEeeX/oYt2TonbfNU2+VwdHt7MvpXMefyUpVEHF76Fb5Y9A8OXEgEgsuj0f2D8PLQdqjyxLt4PtnlW4cDonlYLfkjONjq2aXgevx1z/RDmrAhvMHjmPxGB4j7VeqVPVi9ah12HLmIOIrH9A0pi+oNW6FL5ya4x1EzpFA8OHIUHiitN11HSsJBLP7qK/y6fh9OXklAquSHoNBSqFKrAZq3ux/dOjVCiCNbGetJoN3yOV55aWHGfUNXvgfGvtbJVE9emAATYAJMgAkwASbABJgAE2ACTCD/BFwe7YaQACUWhcL59lNY3iUa/lUgQaqGnVAjC48tSkq2N1k1DWJjSBFLpb/W0EI/2h5E0lm8i3UXHmi2YtJlyr1l72dja0ocXwxeRa6yHVTPWKqnyClVgYzYal9BVPdqFLq3z07sCCFvsXYa4pNo9xESiuJJeKpK+4aTMYoIzfNCuqNpIbM4TfndhJdcObIbaVdP4TXWneq/x8LTekARktqN4l9t22S2p+IgtfsU2StLIlcDIW5SoZyqGkthlvPJs6UFHauKXR2EXeHh1pDOa0OqeDydg80kmG0iHrE5iUXWCrv5r/FiFMa93RjVZz2CsjrhNTYFQ/YNwzdHM0MAdZF9MIm8zUwignING2eMwleuuCBlq6sOFXsPRqcQQZHE1b3z8cNOLRXLfkcjzi6YgPdaz8GY+0Khi+yN979Mw9SpX2PF/quWnFSUD6x6Rwx5axSerGH2eks6PBdjP9uVXcS1mPdE230bDcXLHSmUUhxDuYEdHwzB098dyQwvjonBxeM7sfXgu/iZmJcLsO959m33wHfKHXbjRjqdAcGJQnCrViQRfbdb8wWaai2HofPzQygHWzKO/DIOL8/4E2ftZ2xY+C0+mFkffdp7gy7fbIsU2h49WwWbeRov4Jfhw/Du1kQb79pUXE26jqvnD2Prqp/xyYza6FQ7yem9TRwk/fIerL2ceThd3foYnu3ovIIJMAEmwASYABNgAkyACTABJsAE8kogJ/0ki12FxKfvKFfZrFsKFlE+svfp/0tJCLMfJ0aS2FLesmc6eYBF21jRkWgRYfNd6G9CDLN+QrOMv2nCADvR6qILObOMRgWfUt2+Je+PqCQjZtB0eBftCAkBSohnWRcJTaju9vnXhL0vr1N7KeHUHJrV4G36/78u1MPeuv13lXguSDBgMtmcQ3nTJlCd/9LgWdaGp9VGJVpX2s6gyN/26w0jPqTzE0Vtny0YZMkZZ1+DzO9pVJd/iNU0Sk4+kmz8TtMvCvHO/tyKPUrQSetOYaNTQ3R4jXKsNSExzmXF1XEVcrmFPAvXTcObc4+bBCcpoCFenvYCGvlbzHhXw5CpI9Cakr4LD61LK97F6EXnchQiNCvh3xyDBtQ2e3spcVj13WJYIyo1y9uuTD+J+S8Pwus/7EB0moTg+o9j2s9r8d+/67Bm1Sqs37INm3//AM/cWxKykoAjS6di8LCPsN2p15u72x6AVn27keAoKq4i9eB3mDDPRiTLaI+C2PUfYtZaEfZ6J5Y07N91wCIw6hDZ+1UMqxOQTSzOd80kL4SFByFm2SgMm6ghklkOYIzfi19+26GZ605XrjIqkvAtFiXhX6z+z1Yky15D47WDWLXpdN76Z3ZzvIYJMAEmwASYABNgAkyACTABJsAE8kggm1TkzM4uElKEQGRdhDCznEQZexFKJuGrpiUUSIhrtjnFRCigaWZGy1KrGOXBKk6ii+UziTxVrFqHGAELoczmgKacZzkte5MVHLQZyaeRB9SObLGelBPKrvWibrVI8bH3ldlKotNOG3sGatN8Wnc9p4rksH0/8Vxjy5PsLiaetsKiMGHL02ySvORoEG5/8o5Tnf7O0k4V20jQtK17DlUybY4lF5nltN84Es0mkMi4ijzHxEyi9qKZyIFWhzzMngvWYyZNFtCXPM7usYfnygHzXIZydn3yFmbtEonaSeCsNhjT3mxN59UPDZ6bgpcaChHFkpds4mrTjJK5X2SU6jYE3e8RHZEmDzj+K+ZscC56ZDtGymmsmP48ho75Af/FGqCS5553YDjKRpalWRRpBkTybFQSKUxzynMYPGY+9ia4UlE3tt2nPtq1sHg/qWnYtXgpTjq6ztR4rFu2ETQPxB1YFFxZNg/Lo82VkwOb4NXvf8M3YwbhoSblaSZU91VJTdqGLz5cm4dcdpY6yDQrp+W/kt4Xvrb3MfdVky0xASbABJgAE2ACTIAJMAEmwASYgJsJuDy0VBURapddLDGSCLVdQ4SKtA4MSV3JIm4J8SvjqOTVZecxJnKMRVoaKby+ImyEFyG6XcxhgC7Eu/3ZZrRUEUP72Qs9pnxQNotMIlkZu3UKtXuLRruTSTza7khMcOEkiXpu0LCbTjy3afAsZzPQ1vKGE/Y2U53s8QivNTELnn3bXaiiaadzNMPnQvJ4e5NmGhUedZtJRLOPQhO2gui83U/51N6kZPe31bss7RjmjJyGdXHUcsoDVr73BEwdPQHTh9YA6XaUl2wfPnsrb3nJTIy8KHfYwOagNG9k7CY2fP8Lcsjhb4dWQmANCgH9ZRWiZgxEkzCRs4rCh9NuUY6ta0hMMZpEPjmwOh4Z+yPWLP0YTzcLcy2pu5varitXF7WtccTG09ixKzZbP7JtVNK+3abZUO/Eot7YgKkjPsN/1xVTnxYJ9Vs9/iY+mP0cmlEuPXg1w4ufvY93XngMHWqGQqzK/ULhtduWYVW0/dXkuiXl4jlcoGtPLFJAWwwaWBc0LwYvTIAJMAEmwASYABNgAkyACTABJlDACbg8dDPSwPiMptqi4oxGuGAJErnMmpOKC1m2k9eRRRwTHlwV7TwtRI4x6zod1a6kDUADhXHapOdxgJbyiGmMb7XyCNk33puOHWRn1UDC1TnNI6k4rtFuzaIaK4XAeNIBz9PE2n6TmM0zw0NFcLEX9IjNKY12i0OfocZn09406uRslcjRdpjymH1HYZnDSTT7grzX9pDR/Np1dkxXtxkvLsHYt6NwgRhAF44OAx405c8Teck2zaS8ZIdcySemdTQJIR0Ho49Qc2kxXojCnJVXs50brT3N6yQENHgeX88bj0frlCAB0YjYHd9j9MAH0LxxMzRv1QpNmjRH274j8Om685TLT0axip0w/Ku5eLcDhWI6NpyxxR1t15UtZwm7pH5nuICzF5yrYEr8WZy7My5l1G5KaL/7Cwx99Hl8/OdRXBfn3HaRg1Cp+QPo/8Lb+HzRaqz58W30rWPxlnOBp7mIEaf2HYDWnAuumlCi12HFjiRzX5ED0eyV+Vgd9RWmvPIEHrq3Ou6hiTh4YQJMgAkwASbABJgAE2ACTIAJMIGCR8CVsbip1mK2SS1PIrHtBoko9sKOP1m2ajmXaV/bobfIRya26cj1qJyd4CP2sgplQVQuIwyTyseREUd1yEBLFdEa5tvXL6O8zX9oIsyMOltXUySkw2Th8eQx4opdrWMl075JWhtoXYKGXdu6ieT8xez2FZMC3HBgL4XsiQkV3LWQxgfSyZBEBy0IQpkQT+LWT8Nb88z5ykztpLxkl1dMwKhfz2r2B5dY6Cri0SEdzCG6agp2z5+P/3KjufnWx/OTnkaDQHGZKbi2aQoef3I6fvvvAshJz7woyYg+8Cc+eelxvPr7OQi2kndF9J4wCl2zJuxzUOX8tp2useIhJu87sagpiUgkD0SnC+VSi0/Ia893atnljakXN+Lz4b3QpkNfPPfOJ/h+5QHE2l/4kjciGj2GCT/8ghndI3Ph6WhE9OWYvPcb0QrlEn6dMBV/XaFQW/Fd0iG48n3o/cwofPDd71i/bTs2L/8JX0x6Bf1bVXBr2KjLELkgE2ACTIAJMAEmwASYABNgAkyACWQj4LJQJgQRR0NjMbi332brL3GDhDJbEYdywJsS5odRuF6gpUoXyYh1vsLy5A0k9o8goczWziWy48BpKlvD8rJCy8dDjL3t22a1TZGODrfldHzh4ebIrta2LHUjT7xsdSXRyhkbZ9tyqqtpOwkpFWhG0H6BOrxHJ3A4JYRqSefJ16Wdb0MhVYEh3ZCFgTE9nWZpzfux/VsMxIBaYoZF0j3iVuG7xeedMrY/UmDrx9G7ggi1pMVwFN+//yt599mXsnynSQLWffQF/rlprrAc0gH/6xHpklcZ8tl2nd4mWJZcR+31puw1pjIFQyFF6tVDWLvwC0x+50fsE3VK24RpTzyFkZ9EYV+8WaSSfCLR7d338SydS5cWupZSU/IvLRvOLcZrfQbhnflbcJaUUduuKOl8EVaxPtr3ehrvfBmFVXNeRauS2a5ql6rLhZgAE2ACTIAJMAEmwASYABNgAkzAfQRcFspEPq9szl+WeghvFPtttoNthb7YJvTXkwAmQirLkVBmroCKgzTL4jmLvRDaXpz+bw3RNK82h3C6r+nZLWmN/cXQ2r5t1j2dMcluPesaERmYG7tZ6iYG8vYHIDezAPt1lu9etC2vglY4VbQHzXA5OUSPseQZ1ZkaHaxR8WQSMcWsmR8n3wkvMwqRbP0mZgyrCeF5Z1rIg6fswxMw6ZGy2UVFB5yyrJZLocfgh0x9kOIRceyX7/GP05ko7Y3qUat5Y5icyWgxnt+CTQ4z5JvLqPFbsPGARUmjfGs1mzVEkAbrrEfKb9vJUzQpKUNQlHz9MrzL7FuU8V3yhZ+fw613dgN5/sUc3oLFn49Gv16vYOGpdJNAJfnWxMAnO7jA073VN8bvwYLJT6FLm/boPmQ4xn/0HX5buwdnb1g8zcTh6FyHNX0Sn3wyDDXyllTNvZVma0yACTABJsAEmAATYAJMgAkwgSJMwGWhzJfEFqv3lz2vUJv8WdZtImTR6kEhEspfsHFpEsnow0V+MssMkyJs8Bi5Z1l1BB0JaOVou0mksCyijK0N+zq443sSHcPe88rfLvzT9jiZedhyf3Q/YmAfPmm1Ekrb7PURW540v0C2GTd1VE/7iQis9koTx9wk2BeJ+TtQDqUxJI5NCdLhYR/zbJb2dRLn5ATlLZtDectGXDfiexLJztoDzD2aXO+hK9UdEyb1RnmqNygscOdfW3BF5K6SS6A9JfofVl34L+Zu8a7TH4Oa+5vOg3pzI+YuPJrLMFM/lCpdPEOkU65ewVVblyKt6qgJiL6aarluaFKEiNJZZojV2sUdbU+Lic7I6yd5h6NUaA63BX0YIkJyKKNV2du8zhjzDz78ahOFCIsDywhs2gL1cnMhuLO+qXE4vm0VFnz1Pka/+Di6tG6PXq9+ir/PJGecb/86/8PQ1o7uCu6sDNtiAkyACTABJsAEmAATYAJMgAkwAUcEXB7tCvGqqr1SIqySoFXdInjZHiRr/i4SysirzKoT0C4oTZ5KFazeNhR2eYZUF2tyfLG9Mm2/x+Z4Cgkftl5pjhqUn/VisoDrdgZEuytrtZsklGoa7Xb1+M7sVtWwG2eTt0zM/mnPQkyMIGb9y1ZVWt+UvMByOtF6Euea+8l4pbge7wXr8Di5ZlWinbLZowYmEqe/bxnx9jUDptJMmJsoVjSbh5urIPJbzrsKBk4djU4lRQsVxK6eihEjRmD0L2fN+b4CGuDFGS+jWaBWSxwcXApB5yG9TTOyiox355fMxcocVS47W+QlJMTLjMXLywWxksQxfaY6LNE0rE6D8dzUduOpYzgl4qfFoquMmlWdhyjqyldD5QzXPbt2F6ivFPJ94iguWcRbOSAMoXl1rXR3u9Ljceivz/HSE29g8SWL/60cjAaNq7jQT2wqQ2G3Gd67Op3z/uLuNrA9JsAEmAATYAJMgAkwASbABJjAXUggJ/0ko8lCiGlHnkX2OwR4yWhiv5IksbN2iY4ukriS6VBDHmMk3pS1WI+hQXoC/f80/TXvRiINbbcVykRoX6yHT4CRjnHBzutHtLsN6Qb2Mos/5etq5lTFcF5ZR3b9qN1Ns9mlsFTb2EsSFQ9RhJ69g1IjmkGhhl1Fy/vKaJPNXva6hfvIGEb716OyWsVVOqaY9fLLBAPeIO+xBRQqay/WZbfq6TXF0PD56Xi1aSD1S+o7F6MwbsIyXDbewOYPxuCboym0VoJPlf9h+uiOCLM/iQ6qp6vUB0Pam2dKVFN244cfdyE3OfxNZtUkXLtm9Q4jpuWroGJOYXW6sqhcwZwTTZhQrsUi3v4kZ9TZfW1Xr+/GjhOZYs19HRrBcWSlDpH3tUblbNe8A5h3eLXkVyxjQhA17SZuWhMh3uF6WQ+vxm9C1IY4iycree0GBmS71zitauINWNLaQfIrgVB/Fzu5U6O8kQkwASbABJgAE2ACTIAJMAEmUHQJ5Gq4W42ElO423k7eOhmDi0kIsuMnvL8O2wll0ST02I5Ra5EgZB2MC28W4fRxg/5GW2xVoO2hNnYv0f52Jt1/1kgMOkDHsdcm6lIYYkebkC2RY+1/1O7gfNagDtntbMNTeHU9ToxFfjbbxUhcDtmFNO5LVXHLrpyezscLFCrZlQTN6uSR17GYDq/RwDn3gYeZhq/TsVeQ99joa0a8R95j24mPo3z0+cSRy90llGgn8pJVN+XUUtNPY/7Y6VhnVZaS9mD2yM+wS6gIlK+sdPfxmNwnUlMEzHrgYmg5sD9E/zR5qK2aiyV5ivlNx5H9RyAmZhCLXLwdHmkf4lQE8a7ZHQ9Vt8qURlw8cBCxmqGsbm678Qz++uuwpa46RHR7Go+W15JLCWVgcwzpVxsix95tX6QA1O3QHpVcFoN8UKfdfZYQbpos5NAeHC4YndcGnQ+KF/ez9AvyaI2/ni382xlnY/QpnBZx2bRIXnXRrJHtPMHO9uRtTIAJMAEmwASYABNgAkyACTABJqBFIFdCmfCC6h6sx2QKzXuFBJlpwTIaalg4TSLOBbujpZN4ZhXBxCbSckzJUW/HAAAgAElEQVSDQ+GpdMLiLSUEtpMWYcC63WpGzHhpL2BpNSi/63ZqCFAip1q/IJHMXoen6TOJ2t+U2p1frUDY7Ut2x5DNp+gzsbgO95I+YW/3JNXpol3DbqUpWKsh6vlRqGgfSr7/Jp2fAaQgOcor54yTQudkX4qCT68b8GaCEb+R91jM7YDvrFJ223RlHsbEib1QToQ3UgL3Q1+PxgfbErP0kbRjczHyvU24JvoU5Str++Y0PFXTeeydXLo7hj4UbhLUVMNx/DJ3A27kqe0KrqxZge2Ut8200PHvHzkR/appCxm68LYYOel/qGIJ11TTT2DZsoOa4rD7227E6d/mYbUJFPU//yYY/tEodCqTNQRTKlYN/aZMxKNltEU0c0M9+a8PavX/AEv//AkzX3gYTctYBSatY3oj8v4xmPJERbM4SrOK/vXzn7isKTxq7Z+/dT6tX8WsNx9Fc6d1pB8ZGj+Np9tZvMiUeOz876TmOXdYm9Q92LT9lrnfyyHo+uIzaJLzDBAOzfEGJsAEmAATYAJMgAkwASbABJhAUSfgcmrrJBKqDDSIF95jESTGRDggp1Cm+SgSVuzHo9a8WuXtVCAhjp2yFraIZq3tQx1p/XmPu5OZG3STwgtX+erQyy5PmMibVpG8jCratPsYuQuJXGp5kQ1iaF897VtCw64tWsWoYCkJZdm1GhUryZOkVpCMKvbKmt25OU3HCqVj2Xv+2Z/CuHQFW+lYm2hiBcchf/Z73YHv3tUweOpIdDQlnVeRuPMTvPXlfiRnq4oR5xa9jQnNF+C9rhHQFauPF2a8gt0DZmCb5gyW3qg/4Ak0N3kskd2N8/Dzsbx3POVKFD74tjcav1jHNBunLrw9xv+8GJ2X/oYVWw7iXHwK5IAIVGlIid373I9aJXRmkVRNx5mFMzFP69gearsa/xdmvv8Qmk5sjzAScP2q98MnUa2xc/1G7DmXACmkMpq1b4O64d4wnNmIrWiJVuYkbtmoe3qFV1g99HihHro/9zbiTu7Fjt1HcCY+HJGmu1klPPjK2+hSrw3a1i9lngVVTSMhcDym/X1N4zryTG3lgApoN5hmuxz4Ji7v3YDVG3dg94FjOBdzDbcM5EVWuioad3gEjz/SDKXFrwJUs+R9P2Dev7kM8lWvY/W833C6/SBUovuyb82hmBPVFOs27MOlm5kzaxqOL8OsJeQ16JnmslUmwASYABNgAkyACTABJsAEmMBdQ8B1oYxElAXpMp4lLyVHOwnvsD8pPO9QdlXHFM8oxK4Wdjsn2oRbCqqmMEwSpGzFJ+HhdNFeefPYKVDxF7WhKglQdZ14jV1PM2JOioQRJECF5aEuZ1OM2GTU4aUceC6juhzW4knHTDMomHUDGBZIucU06ip2O0PH+SJNwkiNWDlbs1eSKbySlCYHh8pDCz20C4XfNX5pOl5pHGgSlZRrGzFjzA847kgBUGKwcuJ43FvnU/QlJcW70uOYNm4X+o78G1ft+pRUohOG9Cpv7nvGC1gyZxVi8wUkFQe/egWvl/wMMx6rDorWpTxSZXHfY6/QxwEf8o47vexdPDtza3ZPNg+2XQQ2X1wyCi+EfYjZL9+LMBLFZf+yaPpgfzS1qapyfQc+HvU5fMa3QCvr+nwxcsBBa7V6Cwf+/gPbIu9Hk8gA6GRfhFVtjq70yVwqodPAShlf1fRobPlqDN76Yms+z6VWhXJeJ8n+KN3wAQwUH4fFaTKMs8sw9s25pglNcrsk75qNNz6qia+HN4OYidc7oh7uf7ReFjOpaw7hcxbKcouWyzMBJsAEmAATYAJMgAkwASZQBAloBE46prCPclV9QqFkWt5GItn+LzeM+F0jybzZIoVjaoQKnslI4G8udZW+i8T+touR9rvsuFpu32IgL67PqS0itNF+3Co0gbOpRrxPua+u0sa8JbSnRPgkGh4gnp8TT/v2igYJD76fqA5L7Stg19pbQiyjEMmZJKj9Td5g+8h77BB9tlDo5FeUeH/qLfNMnlpeb7amhWZ0u/SOvJ8wylvXbiRmDK5qCt2FMRorJ43HohzcDdXrGzF91Pc4TnxM+coeHI+pj1oEsYzK6FClz2C0p3Bik3fP7vn4YVcuvXu0Gma8gtUTHkevl2djxcE4kLOe9qIacO3oanzxRj/0GbkUZ7Ilnfdk2y1VUhOx5+tn8PCgyfhx43HEk3elubo0UcKtS9i9bBaef+wZfH0ghSa7tbgxkvdbGl2zt2dJwcGFb2Ng17Zo2/tpvDnzG/yyaisOnI0zXS/mhYT21Bu4dGInVn0/Hc/17I5hs7fiat4dA/PUtLQ9CzDz26XYcuwqxL1RexFcz2Pzj2+jf7/RWCamBs7TkoQD3z2Pvs9/jKhdF0yz0vLCBJgAE2ACTIAJMAEmwASYABNgAnkjIFWuVj3bqCqYQg9nkPuLrfNXLHkmjSbRRQzlRNL5WuShVEZ4MdHeMTQwO0jiTPbQt7xVqiDtFULhTDXpI0Ik08iz7Qy18zhByAYtH5X2tvAsZeF5hYSHw/RxF88gOp8z7c5nEol9r5HYl4MOl49WFbJdi7XGpD9m49F7SFJUrmLxS90xal3WnGf5b5EOQZG10aBuNVS4pwQCaEZSJeUm4q6cw4mDe7H/bELBOh/6YggNDabJIGgGz9jrJPhYCOibYMyf32FgaWJFEwF883gPzNyXV5En/1TpjoSGb/yB+UPKkTegEWfnDMSDM/cUGJb6wLKoXrMKKpUvi/DiAfDRGZCSEIsLpw5jz95jiKFQdXcuOp9AhJQIhj/NSGyRM6Ek0fFik9x633JnndkWE2ACTIAJMAEmwASYABNgAkygoBBwFEXptH4GhTyXhPeS01J3x8ZrJFht8bDHTBrx3EM89+QSmXDqKUZj7JtO95PQ2C6UVRQXHja3LZrVaf0KwkYZZXoMRrcIUwp/GI4txNwN7hbJRDuNuHF+HzaIT0Fodk51MNxCXLT93KokjheviMphZmdUNf0sTp7nnuQMpSHxAg5uFx9npdy3zZiaiNjLie4zyJaYABNgAkyACTABJsAEmAATYAJFiECuQi+LEJdC0VSdl3mmzIGUKb46aTz2qqdMSlrzYjJ6e9nPpKlCTETA8oblNPvUwxP/a2pO/K4k4p95C3H0TjpIFejeRyGgrdqhvinnHYmKh7fjvwT3ekQV6OZz5ZgAE2ACTIAJMAEmwASYABNgAkzgriZgr63c1Y29GxvnTUnX2/rr6EP51EivuEphsMIHiFYjgv6h1dkWI5XZyjGXGVwk+SqWjx+GdUL7URJwem9skQxRk0s1QKsS57GVcqk5mhtBLtEGrz7X2jQxAdRkbIv6ExdYcc12jfEKJsAEmAATYAJMgAkwASbABJgAEyicBFgoK5znTbPWlEoNpcQ/ThaVJKBNtxScc1KmqG1Sky/iwI6LRa3Z2dqrK9cNk77pBd2RjVjx51ps3rEXh85EI/5WOryCy6BG864Y+tJT6Bypo9xXNFPjsR8xa+kV9kzMRpJXMAEmwASYABNgAkyACTABJsAEmEBhJcBCWWE9c3mot0qTEfxLItnPDmcmzYNR3uXuIiD5IKx2JwwUH4cto0k9YjZg6uufY68bJgZ1eBiXNxhw6OuheOAXL5OAl34jpsAk8ne5CVyQCTABJsAEmAATYAJMgAkwASbABAoEARbKCsRpyFsljAYFvyZJqEb5oiqTJ1koOZNp+ZMlUajloTQV61MUHOYwubzBLgJ7KVeP4N+959C+TiSCTDnIsi9qejwOrZqL996fhy3RBSd+N/X6ZZy7nr2+vIYJMAEmwASYABNgAkyACTABJsAEmEBuCEiVq1XPlolbL5uTw9sOlcXMjMcpwXm2wrk5Gpf1KAEfOmHF6NwF0F9fOhJpY0ig83ad/vJ58yj6u8q47BeBqnVqoEJEGMJKhiKEcuAZkq7jytlj2LdrL05dLzgC2V0FnhvDBJgAE2ACTIAJMAEmwASYABNgAnecgKZQdsdrxRVgAkyACTABJsAEmAATYAJMgAkwASbABJgAE2ACt5mAfJuPx4djAkyACTABJsAEmAATYAJMgAkwASbABJgAE2ACBZIAC2UF8rRwpZgAE2ACTIAJMAEmwASYABNgAkyACTABJsAEbjcBFspuN3E+HhNgAkyACTABJsAEmAATYAJMgAkwASbABJhAgSTAQlmBPC1cKSbABJgAE2ACTIAJMAEmwASYABNgAkyACTCB202AhbLbTZyPxwSYABNgAkyACTABJsAEmAATYAJMgAkwASZQIAmwUFYgTwtXigkwASbABJgAE2ACTIAJMAEmwASYABNgAkzgdhPQ3+4DFvrj6UKglrsPSqlKgH8AVFmX2aSrUdDv3pf7JrLNosnTvqdE9IKhfm3z2htrodu2GZJqXyiX3wuLzVw2i4szASZABLxKoPq9rdGiXhWUDQuEr06GJJnJpB/5HdPm70FKbkGxzaLJM7f9hMszASbABJgAE2ACTOAuJuCaUKYLh1qrD4zVWkAtGQnVxwtIj4MUewDy8T8gH9gKKf12U5KhVhkI5R7/PB7YCOn0z5Av3nBxfxp9lBoAw4PPQinup73PyV1AroQytlk0eWp3HwQ1hVK3s3lj9EWTUJbvpUDY1EONaA+ldgeoZWpADQqF6kW3HsNNSDfOQLq8HfKhpXQtxuS7uQXSgHcEmnR/DI8+0AqNqpdDyUAvGG/F4eLxfdi8ejF+/n0zziUXgJp7op5FxqYO5TsOQc86/rDoVLk8oQoub/wBC3clwDVtXEJQ/YGYMv0ldCrnp3nM1HU78UGuhDK2WTR55rKrulhcH9kOg3rWQ6ApbsGI8+vm4fd9N13o3xKCG/XBoNal4HrIg4LoLT9hwY54F+y72AAuxgRcIeCJZ5wrx81tGU/Uk226972OeTJPd40RuC+5rS9JlatVd/5eXuJBGLq/BSWsmIPbMu1+fR10y96FLvqWgzKeWO0FpcsKGOqG5NF4OqR/HoXXfxdc2z+oBwxPjIXi5+TV7eR4eC9Z7po9UYptFk2ejnpI1alI62EVyj6D1/zv8u9RdqdteleD0nEiDDXJA9Pq6qLZ/hRIx7+A/q/5kFKc35I0dy+gK30r9sDbH47BI9UCHAz6VKScX42Zr43F/EOuDCI901BP1LNo2fRCqwlr8XWfEg7Oc07nLR27Z3bHgDnnoeRUlLbLpR/B7IUT0KGE4+dR6rrRaPVCFFz9KYhtFk2eLnS3XBeRQtti/LyP0K+St0XETce2Sfdj8E/RLvRvGeWG/IAVbzQA/STr4mLAwY974dEvT5IkxwsTuD0EPPGM80TNPVFPtune9zrmyTy13+ZyP0bgvuTevuTcoyywCwy9x0MJsoYX0it88kVICSSIBZSDGiC8uej38+IdYOxNv2oveA1yvMET93n321TjIMe46sHiBbXRUIuoQ4P4xE3Qrf6cPGDOkiedTXtVV4Y41qawTbPoWNR4ur8rF1iLuoowdp8NYwUbMdtwDdLV45CSKCDMpxR5mlUm7zLxePCFWvUVpAcFwWvh55DSCr9YJt/zIKZ8MwkPltKZB4t0f0i5dgGnL92ET3h5lC9ZDDoSD30jO2PMV/5QBj6Pn07d/vunJ+pZlG3m6Xo0xuLQoRgXRARh3Qv1n3gGbU0imQrjlQ2YNeFjLN55FnFJ6ZkeNdTfXBcN2GbR5Jmn3up8p2J18dys6XgsQyRzXpy3MoHCSMATzzhPcPBEPdmme9/rmCfzNEUiuGGMwH3JvX1JnBbHQpkUTp4g5ElmFcmUS5D/GQPdnv2QhB4kUX6u6i/A0LkPVG86xX73wtClPw1yfzBv98QdP4tNCp08+AH0l31cPBKFalYaBmOVCHP5a39BvpDm2r5yRSjlS1nKJkPeNAG6U9dc29dRKbZZNHk66g933Xq63uq9ZSOSkQfn8Y+hX72IRDIbMcinEpRW5HHWoDoRoPtIxEAYmm+E18b9hZuIHIGe48agq0UkUw0X8deMNzBhwV7EiubLgaja9RXMeKcfahWTIJdoiTcm/A/bBs3BSdfVjfwz8kQ9i6RNI44vmY5x+3w1wyCznygJEe2exfMd7oH4Gcp4bgWidqZmL6a1RlcJrVuWNu0HNQn/fDwWX67PZ8gZ2yyaPLX6V37W6cujz/RZeLFBYB49K7Mf3HB4Eab8vB/O39YUXDvgqtCc/Ri8hgnkioAnnnG5qoCLhT1RT7bp3vc65sk86XJ2yxiB+5J7+5LlNqvt6Sc2ln4CxkrBlmKpkLaMgH6XRSQTa1XKL3RkJvR/r7aEh9Egt/RAGCsHuXgHz28xBdLFlZD3L3Htc2A3EFjCclAD1X2F64KeXJryKllQKRfIIyYhv5UXsTNsU1Asajzz33MKhwW5MuVba2ipK3mHxf4I/YoFWUUysTX1FOS1b0B3LslSlvKZ1X4YimMJv1C036fBYDzbprh5sKimYO+nL+L1Hy0imWiBkojjy6fg6fGrEGtyRJXg32Aonu8Y7KLQ4h4Mnqhn0bRJOZJ2LcOiRYvwqyufxTthCA+1iAkGHFu+DAdcdSbUl0W5MpnPo4NHXM1r5qTPsE0zHHoeFSmeTrpErjdJoWg3ZjbGtw8nT1nx4p8Ogxscg42XtmNxjtfU71h9JJHzk+X6pPEOeSHgiWdcXuqR0z6eqCfbdO97HfNknnDTGIH7knv7kvX+6kAoozCgug9AtWYlvrEMul3HNe7JJFYd/QzyZctvfVJxKPU6FsyXlXu6QSlpyXhhPAj58CmN9jhYJVPyftkKg371d8fEBWzTAruI8XTQxe661T61oGbkTyLvz0N/QHIkBKiXoTv4XyYCP9o3xGY22UIHxx8te3dDpKUJxitRmPXDMQ2PCAVXV32Mb/emme+Zcgg69umMktZbjcfb7Yl6FmWbrp8wfe2e6FnTyySKqmn7EfXHCdfDJL384K+3dBJ6wUp2x0QQbNN88ooaT9e7bA4li6Hes7Pw3qMVIQIMVGM0Vk/+FOudu4HlYJM3M4GCSMATzzhPtNMT9WSb7n2vY57MkyIK3DJG4L7k3r6UeU/W9tvQ14dSobilFIlhx5ZDdiQOqRdJdNoLY+mmVJ7ekMq0g+q/hDxHbH9KpPxDwWGWZN60PiWaEnY7MmjzwPCh2Tb9rKGVlOw74Sq9geXlgeILpU5XqCZZkAycp/YkOMgnRiFRapC17ZZjeYeammZevCkJf1myolERMRPoLatnjE092WbWk1ZUeGZtNaALg1qxNc3UWhGqLw2SU6/SjI80Y+zpw5DyGm5XUG36BpPQbr1o0iBdu2JPw+Y7XUvXz5s8U03ivBRI+ctyrxZJMl3giqJ1ZTo5tgc2+TREh9aWXzZI/rjw51JsdyRmGC9g5fLdeLVBc2oy5Str0hGtQ37Db/E29xfJF6FlSiLAJNarSEu4gssJOd8/9YERKB3iY8mPloK4SzG4advP3F1PgbIo23S5K/miea9uKGeOnUTKjiisuOjgeaQPxD2lQrJeDv5h8Ld5HoWUjkR5jexmSlIsLsYmZd/CNosmT43+KdE7Vq17W6BxrUooXSIAvvSil3j1PI7v34HN248hLufbDFnVo3zvaZj9fH3zDJfkLbvns1fw5pJSmDpS46AFaJVcrCzqN2+CutUqUPsDqf1puJUQi/PH9uO/7btw4pqjX3cKUCO4KreXgLufcfx8d+/7kugN7j5HbJPPkeku44b3ee5LhaMv2TxVtIWy0IYkUFmczdQbkM4dydzFrxmMrZtSKCYls78pXu5JSLuwi8IYm5qFKH0dEgK8IJ+y/SmRbNWbgfRm1ag8DQCvLYL+pxmQnc1u590Ixn6fwhhGwhR1TunwKOhXrs1bWJJPSyhVSagzLbcgHyI7GjqXaXPx3jAMetEiqll2sf0jV4fx0d+1f/13NOsl2yyaPDP6jTfUKs/A2KE/lEDRn22X54CEzdCtolljNbqb41UF3GZqoln4sjYgJ93LdkZMlSYLyUUyf99KD2P0pFfxcL1QGC9uw09Tx+HD9Ve0r1HHQN22RVe5MRqFWEPjbmDntsMZTqhSSAs8N7w5jnw6C2ujzffPmP924JSxOWrS3Vjyroemdb3x2z82+apUHSr0/RhzhlWnAb4Kw5kFeKb/ZGxKcHQTEykkm2DEj19jSFWadU414tKy4Xh01GrctGml2+tJtouyTVc7kBTYGr06l7TkxLqJTVGrEeNAJ9OVewyfLnkNdbWf1KRR1MRT3y3HUxoHdzTrJdssmjyzdBF9BFoOfh0jh92PasGWyUayFCBBPmY3fps1Be8vPoxEx7cautkEoXLDaggVQr6ahtO/jcSLX+5Hkt6a11Wjc97hVXJIXfR5YTie69UEpXxlzfdKNT0eh9cuxNefz8XKYxzWeYdPWYE5vNufcfx8d+/7EvUUt58jtsnnSNyBFDe8z3NfKhR9yfaBoxF6SS87oVUyhQ3lBCRT9mmxUILu+q/AWHcQjE3qZtq5foRmqbO86UvFoJYsY3sM+n8SCWvjoLsghmlkP6Q3jB0pRNPh4JlCONuOt4hk9IYW9wt0a9Y5Frfsjpb1q0Sz6VHOI6vwl7wB8snrTvfgjUzAfQRodtO6U2DoPlBDJBNHoYsguBWMPT+AMcLViSkKgc0U8pK7bnVfIlEvNNIJUrpGQytl3g9Sj5IHmosudvpaeOaDd9G3QTh5A+hQLLIlnpw5CX2tOZycHNUzmyQEVK2OstY7q/E4Dhy1umXoUKXfCLzQayhGDa5PcxeaF+PZQzh6y3L/lANQrXoZO9H0FnZ++hY+3pkofpaAvkJfTB7bBSU17t4mi1II2rwxGYOqkEgmPNBOzcfISWssudCsrfZEPYuyTVd7k4Swzr3Qvrj55CnX1mPJ+mt33gvS1epzuUJPQAqohye/XIhvXnsQ1TVFMtNNBN7hjdB/4vf4cXQbhDm614iiajzWTh6BT/clInbDVDw3ab3dvaZgIfOv+QRmL/oBEwY0Q2kHIpmJgFcJ1Lr/GbwzqFHGvbpgtYRrc/sJeOIZx893974veeIcsU0+R3S3ccv7PPelgt+Xsj5ZNH6nJjGseOnMUukUJplkFcHuodkfK9E2KhPZjAa2e83ilUJlbpKg5St2E/uLXxJPZz2S8SR0K9+H+vg4KP5UpvpIGM8fgX7fhazlxP41aLa8uhaxLX0/dCtmQ0519pOmnQnbr1IZCrsUYaFioWHmcQq7dJY3I3E19EtOZhXxvBrD2PUJ0A8/ZOIM5DWzyJtOoz5JR7UrwjaLJk/RGyIGw9C+LQnP5rA5xK+FbusvkC+dowFGMdreGsYWw6CE1yHx2aU4l8JhUzkGeR+FZLdvRBAoQX+dx6DsmartRepVE0p9UU4sIp8ZTdDhIgq5VDO0qGjO9WQxAMm/IVo19MfPF239p6xbPf1XRunI0vCy/AigJl/GpWtWEewetGhZBXpJh9LN70VF3W4cE3qgIRqXYuh+Ypo7hfYvV4b+PZXVIy7tOOaOmobGCyaiY6gO93Qdh8nbD+G5X8/bec7JiOg6FpN6lTUn1E7ai8/e/BjbsrmEeKKeRdmmi/1KLouHejW3hE4aEbN6KTY76abKlVWY+uJxWOeSMR3Ftxmemz4Y9YXSajyN3ya8j7+vZndJM8YeIf/p7AvbLJo8TT1BVxa9ps/GiBYlzBNJKDdxYvV8zPl9LXYdj8YNow9CytVG255D8eTDtRGi80eN/tMx41Q/PPXzWcdeuskH8OVLffFH8nmcd/Henb1naq/RlWmDp8d0QIP6VVAqmELJ024i7vIZHNnzL9asWIUtZ8QPCK4turKP4P2v3kKHULPypxqv4dCfv2DBik3Yc+IS4uld1zs4ApVqN0eXPgPQs4lllnTXzHOpu56AJ55xBI2f76ae4573JU+cI7bp3nda5sk8C/L1nvVBpi2UBVhnh6TCSZRHyaoJyZRbiQZppiWkOlSKIpNEhJAST2KaGPGJbfQCUswa5mgumvGvmBTgLwrr7NGdhAPhNfYOjJefh+6qjXJVvCeFqFm8zdTrkNePhy7GJgzJzmSOX8MehFLKEu4m8qkd3OV8l3Sa1fI0fWxL+QRCIQZmDBRSdm4T5OuuvpqRIbZZNHlKEVBakcBquiNS74n/FfoFMyEnWy+oWCDxLPTn9sDY5zMYS/k775tia2GxKUTpvdOgq/gFjBXofhLcE4Ze6dCvm0OTf1C7TQvdfkq2g7Hd6zCGi2uUuETT7Jhb91i25/xHTUlGsip42l6xaUi6dadyy8gIDQ/LqI0SdxWxVuc4fWXUqGy+f+oq1ER1Ot0U0UP3zzjExFGhqub7Z7GSYShGzblu7SYWDMaLURj3dmNUn/UIyuqE19gUDNk3DN8czbx/6iL7YBJ5m4WbRP1r2DhjFL46nKIB0hP1LMo2NRBrrNJV7YFe9S1544wXsSJqBxylrxO7q0nnsXPD+ayWAoPQ1/r4odQIJ7dtwLpzLnpgss0iy1O8m5XqORoj25pFMtV4BX+9+xTeWnQqSx+MjbmA4/+tx5p9H+DHt9uRN1kQWrzwMrr8+TpWXrO7Kdn0TGPsOdj1VI0rIPer9DW64bkaWfcrX7kmGrXqiv7PjcBR+iH1nWk/Ybf1BwlHh6CZxnu//RbaW0WymwcwZ/iLeG/T1awCIN2zL506gE1/zMe3nV/CmAZG9vh0xLTIrffEM84MkZ/v4lXIHe9LnjhHbNP6hs3nyHLTy/P7PPelgt+Xsj7YNBzqaYTlQ54u1iWdktNb340o8Su8LbvoIqAGWHenMrZeWt6UED+L0mQ1pkI6+R70O0+YV3jXJ0+tp0lIsGzXVYHxgVcsYZI00D4yBbr9+Xn1opCv2g9lhpHG/Qn5ipt/7szKk78xgUwCIQ/CWM4ifqnXIG+kvH4ZIpkNqLQD0K1fRHn+XIBXWGyKphhPQbf0KbreKYehkW4IpR6DYcAKpL24EunDopD+/AID6A0AACAASURBVHqkDZxGjEhYp9h/6dB78Fo0m8R3x4Mxe0Jq3FosWhtr41GgIv1MFBZt1xKH7Pf2xHcdAoP8M4QyNSkpYxAqBYYjgrxpxSLp70FZk5pFi5qEmzaTn0jFghDo4P4Zt24a3px7HAKRFNAQL097AY2s+qp3NQyZOgKtRVifyEu24l2MXnTOgReIJ+pZlG260pe80fCRHqhiOe3Gk8sRtY+fR66Q4zJuIOBVF08Ma2X2TqT7w7kFo+n+kFUkyzxKKk4vmoRPtyWZXv/kkHbo90CE2QvNDVVxlwlJF4Qa3Udi3vyJeKCU5cJyYNy74UA83SLQfG+mH3fXTnkFM+1Fsiz7puDs3zPx3Adb3TLRuYNq8epCRcATzzgrABX8fHfH+5InzhHbtL6SuuedlnkyTzH0KajXe9aHkoZQRqqVdep5UdZoo4CRZ1WGACZRnJA17xfIe8NoM8rX2ycstz0o5SvbLPKViaAQ6ioln4ChXUv6rx/UFu/CWEaIdPRqFrcgH3nJLMfzpokHalgTyqbTQHyla2JEVkb8jQnkgQCFEFe8zxJySbsnUW68s8J9yMFyeSVk4VXkdCksNm0akX6WvEJfhf7Pn2lGWOHlRbccn5IUnl2GJgwRsdp0radSmOa6V+BFITBSiitqoY195SqWjx6EFz9ehL82/IMV86fjyaEzsU0r5swpW3dt9IKPt5QplKWnZsxLIAcGm2eFE4eSiqNEceuj0oA0mrzAKg9K3t4gEw4WymfyyVuYtesmlZfgU20wpr3ZGsVlPzR4bgpeahhAay15ySauhkZEnsWuJ+pZlG06OF22q4u1QK8HS1uS+KfjwB/LcDynS94Fs1yECbhCwKvBQ3jQMn+6mvof5n63I8vkHtlsKFewatkOmOZcknxQv1VzBDm8L2XbO58rVCSf344lX0/DiKcH4MGOrdG0SRM0vLcduvR9FqNnL8W+OIPlnkn3wQoPY+r7Q1HD4aunD5p2vx9lMkTqhfh02RWXQjaNRr5I83ky76LdPfGMs8XDz3frPE55f1/yxDlimxnCjlveaZkn86TRX4HtS1kfWRqhl3ZvQqrNwJVy62QulFDclHfJstiWy+l3R+MJS76ysZSvjPIX1R0Hg7Kb/opZMWlJJw+blfnIS2YyQnWr3ANKMYsWaNgN3RH7fGiWuvMfJuB2AnR9RFSxWKWRRvQe53m31DOQLsWTcFzSSU0Ki01rE+gaDH8Yhi4vQIkIyWRhpGCzVBLgyfMUeuHBWg1Kx2+R1nA9dKunQ3c+zgkDjU0pZ7Hmy/FYo7Hptq+SZMi2M3gqSqZHlyxnJumXvOBlTVJAwz3F9ocGmpRA4xeMzKakHcOckSJf2QTKtaNH+d4TMNXwHyo9WgO+hFxN2ofP3tLKS2ZDwxP1LMo2c+xoEkLa90Jna9hX6k4sWe7I2y9HY1yACeSSgA6VmzdFhOUVzrB/DdabZt11tqhIOHIYF5S2FBVOyf2r1kBlXRR2ejyqXUFM1Gvo+P1VyplmX79knD1wlT4bsfjn3/Hyp5/gmQaBdL+U4F9/GEb0WIpnFkVnF8B0VXFvk1DLfdWIU2tW46jH22Ffd/5e6Al44hlnD4Wf72YieX1f8sQ5YpuZvdQd77TMk3kKAgW1L9ndkzWEMnp7sH1/0lnjImnPVAqPojG/2fMhBZLB6gNBwzqdjSnVhTeQG39QvrIGlnxlJaE06GKumshL9g/lJYvOR14yYUkKh1KbPNVMC9Xz7HJIiTm9GFqK8x8mkF8CUhjUIOssluT7cy2nEGJKYn/tIh3ViVBWWGya2JFiU/oppPd6EqqPkH2ofRdo9trNYiIDaqe4FIUXaUQrKPe+AGPlskCJDjD2rgx12TPQn7DmMcvvibjN+9O9L91ovS9SE728MrzDlMQbyLgFqSlINrlqiEWGl7cuwwsNxvQcQ32MF5dgLOUrWzirJ+UrC0eHAQ+aTVFesk0zKS/ZoRxCTz1Rz6JsM6duJkfggUdaWUJqVdzauhSrchQqcjLK25mAqwT8UKVaOYtQpCA5NRC12rRF9Rx2l0Iz8y3KYeEIE695Lrze5WA2x80p8VeRwx2MUuPuwKzXpqH64onoIMLNpQC06P0QIhd/h7P2Apt/JVQpbfn5Qb2Jg/vtJkvJsUZcgAkQAU884zTA8vOdXhHz+r7kiXPENjN6qVveaZkn8yQCBbYv2d2TtYWydJE3xeLDrqPBvnAcE2O6lKv0kkT/oV8XoVIYWUaYFJW1dTYTec1yXES+svcpf1FNpDetaikt8pJNhW7fuRz3zrFASFcYy1qECkp4LB/ckDkQzXFnLsAE8klAIm8pmnrevJAqlHQ9B4PU95MSnJcpLDZFK/R1Ybx/qEUko/afngl9FOVhsx3AqMmQrvwNXdROSJ2/haFuJN1HykPp/DqUS6Mg2+Ttcg6mIG1NR1JSOt0uzQnbJW8f650UakI0YkRyMRFXSfekazcsQpnkbQrXtC6muP1Mrc1B4yifyfppeGtebXw3pBp8TPdoIy6vmIBRvzqZnS7DmifqWZRtOjhNltW6Ct3Qq4klib+SgPVRaxGf4zl2bpO3MgGXCehCcU9JveUdSEZQq5cwu5XLe5sKSvTDhp/43TQnBSt3ZvNVWolega8WP422Q8rTK6gEfY1maBI8B2ftLi5diTCEWlOKULj+pejboPblq2W8c8Ek4IlnnFZL+fme9/clT5wjtuned1rmyTzpncIt4yNP9KWs92SNCB8asCfbDNj9QjLzkinnIF23jHSVGMo5ZPHQonw7aka+Mnr7T0nInClT6xmQsY7KKllGzuR4QiJdvgcQFM5Zi5L4C0FPLLfWQaYpxHlhArePACnHGdoHdWjRr3NajDm9vBcWm9TQio/BGGLR4ZXj0G1YnFUks2WhxkPe9A1kaxJ//7Yw1iIPs0K5KEi4lpDhlCsVL0H5wywNMZ7FSYurg2qIxuWrlnufHILQjEIqDAnXMz3PnDGgcHdDuiGLA7CRfuQQM/TmvHiinkXZpjPietTq8TBqW0JtldjVWLIxMf+POWeH5G1MIAsBH/iKuOz8LBRSLtum28iPLbftm4ZD/+3BTetvDvpyqFRW47VW5H20HlNNRWo+AxbcVn02VMgIeOIZ5wABP9/z+L7kiXPENq3xWO55p2WezJOGyG4ZH3miL2W9J2u8UdDpu0GeY9bFl0LBrN5i6kVIlymPkljiDkGy5vmXSgCW2dyEyiXdiMl6FM1v9NJW8VUYmto6/+tolsqxMNYprbmHyyv1jWCsWd5SnIS/o8ud54dy2TAXZAIuEqCXcZP3pWmhvq63hmE62V9vE+asVayw2IQeSrmGmULh9X8hx9vHwtg1MGmbzYy0JHRH1tciUAjWKYi+HJMplAWHI9x66o0XsHd/nGmb8dRBHLY63kqhCA+1DmIVxF2JzjKJsHajKedV6zcxY1hN+Fl3pRySZR+egEmPlM3i4Ku9vyfqWZRtalM2rfVtgl7dhceLWIy4+OdSbKM0fbwwgdtHgMK5063PIwMOffcMejzcE91y8+k9EautitTtq3iORzLExiI+Y9QRgMCM2dhtdiVlLEMbI884f78czXIBJqBBwBPPOI3D0DsjP9/z+r7kiXPENjNusW55p2WezJOGiAW2L2W9J2sKZVL82UyvLrkc1BCrUpYO+cjfNHMkzVx5aHWm15hveajFrKM1A6R4F0Ing7rCcH9P84QAFIYkHf+X7NGLHIluSvuJMJZ0OH2R1lMl67qK3aEEWpqmnIF8eF/O+3AJJuBOAuo18sy03gqpL/pbk9k7OgjNaOlf3NFG8/rCYhM0CgmyacutaBe8RG+Q52eG8g4ElMr0ZHVOpYBtpReAk6dx03LqJa8KqFI+8/65e/mfOG+4hV1Rq3Daoh1KQRVRqaTlfkXhk2dO5Rw6qSvVHRMm9UZ5EU5EoXw7/9qCKyI3mlwC7SnR/7DqOQmznqhnUbbpuBsGtnoED1izqBvPYNkfe1wQQh3b4y1MINcEKHdhLP1YYZbKJHilxePE8eM4npvPyUsayfVzXRO37yB56emnGetigNYklcb4aFy1/nAll0SZUvl4v3R7C9hg4SHgiWdc9tbz810wSUfe3pc8cY7YpnvfaZkn8yS5xy3jI0/0paz3ZA2hjArEHIBsjd+Ry1LCbZtB/sVP4PVtb3jtshHDwmtnhjkqFyBF55BrSVcJxgfesMxISR5fJ96D/o/R0O21JDz3rgfjg89TfqO8hAqEQqnTxuLNQq+FMSshx+TgzZL9OcVrmEA+CZDwc92al0yCWoLEZKcWyYuqRE7hhoXFpm2IKDXadkIQZwxolqOMhWZ+dDWpoBRQA73e/Ag/LPgJc2a8iE7lchKJnFUi/9vSj+zH4YxBWSTq1i6R0ZTUXR+g7/3d8MyPZzJmw/SuWRc1rDNgKudx4OB1533FuwoGTh2NTiZxTUHs6qkYMWIERv9y1uTEKAU0wIszXkazQOf3T0/Usyjb1Ow5NAFH517tEGLq2irSD/+BpUf4eaTJild6jgAlsD954orF01VG2epVLRNLeO6Qt8cyzXZZJhJh1keHEoeYWOsPVDY1SD6F4+esv174o26D6jbi2u2pKR/l7iDgiWdcFjL8fM/3+5InzhHbtIxgZPe80zJP5okC3Jds78naQlnSf5Cs+XPgBaVqa5uBG+VRsg3NpMwPSuWWmd4fN3dAinU2EPCH2mISjJGU7FxYvbEMur9XkjcZJdzf8A50McJBngZ4Yf1h6NDO+YBR67kb3AXGcv6WLenk+bbKxXxpWsZ4HRPIKwED5MtHLDtTf45oBNXZj9hyVahlgnM4WGGxSTGFyTZJYIrTTJZWpypHLZRIkA+xAZQc54IXGhmTS6HXjG8weXBnNKtXHy27PYtZ345GmxxEIkfVcMd6NX47thy1uot5oVGntiiZoVkZcJ1CMzPnKfBBg/atUMJyJzZG/4vNx53dP4uh4fPT8WrTQJrBToXxYhTGTViGy8Yb2PzBGHxzNIXWSvCp8j9MH90RYU60Mk/Usyjb1Oo7cpmu6NWimPnFX03D7qgVOOPs9GoZ4XVMIN8EDDiydTviTFqRRNHAXdA+I9w738bvnAEpGK07NjZPZkK1UG4cxaGLGheY8SS27oix/DhBIeqduqKh752rNh+58BLwxDMukwY/393xvuSJc8Q23ftOyzyZJ7mUuWV85Im+ZPuE0hbK1AsUYnnQUo5GWpGPQolwMMov1hFK9XBLWfIOO7YKssZ7irkA2ao0nPKSWWa5pDAU3Z8fQLZO8Za+D7qVX1LuM6G0Ur6ymqNhrJeTl03W5qi1ukO1zm6UvgO6Y5cL7xOZa16ICVAfPruJcuNZfjXwvY8EZcrl52iJ7AElI8TZUaHCYpPCr68cz2yEX2tqew5hpRFdoZS0qmlG2v+wSwK3XLIdHr4vhEQj6yJBV/oBPHzvHfQqM57HXyv3wzw3AQ1Km/VHv5ra90+5ZGc88UBERv6qC6tWYLc1AjVbN5BQop3IS1YdIi+3mn4a88dOxzrrDG9JezB75GfYJfIIUb6y0t3HY3KfSMf5yjxRz6JsM9v50qFKj55oaJnRVE3ehiWrLmWZfCHbLryCCXiIQMqOJVh23vxyJgW0xrPP3osgJ0J61mrI0Gm/Lbq9trLLB5IQ1OxZvNAhyHL/V3Bt4xrs1JyVMx27lq6AZS4V6Mr2wmsDqmYm+HfSCm8f7Xu3k114091MwBPPOBMvfr6bRHx3vC954hyxTfe+0zJP5lmQr3ebZ5iDVx8SvA79DDnJ4qquqwpj52eg2s+apK8ApdNLUKwzXqbthLzngONHZFA3ykvWw5yXjOYYl7aTB9n5m1nLx86H/p+tZm8SKQRK2wkwZmTDdmzatEVXF0qtKpZCVPfTyyDfsggVOezKm5mA2wncXAP5pCX8UgqE0mo45c7TcK3yuxfG9iTwujJoKRQ2RTj1n5kiobiO270NJczq6WlHOqAVjPcPsNwXaBv9+i8fPuza6fD2Ip9X+0UPby8NzvbFPPbdiHNRP2C1JcO05F0dQ955Ec2C7U6wT0X0fns4OlrcydRb/2Hegn2UmUN70ZV5GBMn9kI5MZuvmoJDX4/GB9uyzp6YdmwuRr63CdfErZvylbV9cxqequnIdcIT9SzKNu3OG6UQ6NWjKsy/2yi4sTEKq+P4eaTdu3mtxwmk7cOc2WtgikwkIb38YzPw8VMNLWHBDo6uC0TFVgMw9utFGN/2dghGetR7cQ7mT34SD9SNyJyoJFv1fFGu43B8+eHjqGz5YVRNO4qfv98EuzfKjD0NB37AZ2vjzUK15I9GL8/ClJ6VREZN7UUORLWe7+Lb1+91SVDTNsJr7z4CnnjG0fCFn++mruKe9yVPnCO26d53WubJPAvy9Z755MrMgWr/NEteC93mf0kIa0ktoYFZxECkP14Vut0rIF27BQTWglK/L5Rwa7gYJfjf/iF0CRr5IYRtXRUYu46AYpodkwYLF76AfpvVa8324ORNsn8i9OXmwSA81bzrUr6yFyD9/CFks4uGfU0zv5cjr5xgi/ZHic/lg5sdl+UtTMDjBBIgb50LqdKrFHZJ11DQ/TD0LwHd9oUUlkn5+JRiUO8hbyv6BU0pTpdiSiLNkCdCkp0thcRmIoVUb+8J5b5a5sYEtIFhAInvh6IgnyURLJl+9vcOh1q6LZR6HaH6WYUtCpfe9xF0GaHfzlgQwkv/4p+jqWhYxycjr4WSuA3rd97ZaQXVa6vx4Sebcd/brVFcpjw6dYbiq4XVsODHP7D9zE34lKqLjo/1x4M1ips9vtQk7Pl6On497+D+6V0Ng6eORMdQ8/0zcecneOvL/cjeSnr5WPQ2JjRfgPe6kqdasfp4YcYr2D1gBrYlZhdp3F5POl1F2aZtb/Vv/ggeKmvp10o8Vi/ZgITsp8B5B+etTMBtBBTELJ+Mcc2rY1av8vDSlUDLV+ZhRZe/8fuSNfj30BlcSUiHd2BxhJaqjHpN7kWrdq1Q/x4/8ti6hT8WOK6If5cpWD6ulZ2g5I3ADG1Nj0avLsLG57JeAGlbp6HnWyuyXBcSPRcaPvIamvR8GUnRR7F7D+V8pIkEYq/fQprsjxJlKqP+va1xb9USsKZ2hHITez4fj28OO/qZQdyYrmL55IloU3smupfW04C8HLpP/hUNu0dh4fJN2HP8IuJTZRQrHo4KdZqjw0M90InuzzeXrHXccN5SJAm4/RnHz3f3vi+Jy93d72Bsk8+Ru97nuS8Vir5kfbhJlatVd/LqTjNQtvsUhsbVcngYpkE6OB76VTQjpqY1EgTafIN0a8hl8mbo578G2ZGoJo7m15IG1h+YBQT6DVA6PBL6lWsd2Bc7BEPpvhiGakHmut5YCP2cGZAppVq+F58HYXh2AhQhKyr7oZszDLrrDga0rh6MbRYRniKEeAJ5UnbJnPAiWx+hiyZxLXlSXiZR+AnyrKIC0Z/Ba/53Dvp7IbEpR0Dp8CEM9XO6f1iBkJfp4Sl0HyEx3mH4djZ48CrbEa+MeREPNwiH4fxW/PTeFHy73eI5kL347VtDM/i2eutrzPpfDWRMCqx1dDUVZ5aMxpC3/8QlrXZLAWg8/AfMGVrNlItHubYB4/u9iIWWMCotk1Lx1nj3l0/RN5IGhDST5qXlI9B35N+4qnXbclc9bStSlG0KDlJxPPThSrzXxRwWZrz0EwY/NBnbbVL3aZ03l9YFdsfnG6ahg4guNuzFjG7/w7fntDqOS9bMhdhm0eGpL40uI8mbql9NWCcHz7GnqCSUvdwKr6/Rjgsv1u0TbJ3RAbkNeE/bOA5tnv0d1zLeG/Vo+MYfmD+knOOQcbvKqsY4bP9iBF79fAcsTrxOm+NdkTxzPxmHhyv5Zfy44ngHFQmLX0CrMf/wTLWOIRXNLe56xvHz3dx/3MXTtjeyzfy/fzJP7p9F+Tqis+8g9NJ6ZcRDXv80vP5cCClR6wWJ3m6SDkFe+yy8HIpkNONf5REktllCItUYyGsmORfJxOGTt0D/50+QTLPHUdrqGiJfWTnbSzbr/wMoV1pFqzcOeaUdWe4ekczxEXkLE3CBAPXFw29Dv/hLyNcoyX22hTyoLiyA/tdxkM+fcyCM2e9USGwq0ZBXD4NX1FeQo+PtG2HzndTsq+ugWz4IXityJ5IJI+kX1uC95x5B6xb3oX3f1/F1QRDJRMXUeGyaPhgDxv6E7VdSNSYmoVkQ4w/gtylD0W+cA5GMhnKh7UZixuCq5oTVxmisnDQei5yIZKZDX9+I6aO+x3HhhSvylT04HlMfLa89+HRLPe1Ob1G2SSjk8C7o1VpMuCAWI84uX4pd7hDJ7DDzVyaQawKGS/hr0uPo8fQMLPrvEpKtM5xnM0SThdy8gD1//4hprw7BtI1a74DZdsrnCgUXNv2GpdtOI8Ga39OBRdWQgOPr52Hs4z0xZLZrIpkwlXY6CiP7PoqXZ6/Ewbg0jfuyKKXCcOM0Nv08BS998i+LZA7OQZFe7ZZnHD/fM/qQW3ja9Ui2mc/3T+bJ/VM8Dt0xlimkfYmqnYNHmU3D5GAKk2oMtSTNTudDrlVp8ZDiDtAg/8T/2TsP+Ciq7Y//ZnZTSUJ6aAkQSugBpAiCNEHliWJArH9FsQDiwy4iWBBpdhSf9dmVp6hEKYI0FURAeif0mgAhQCCEZGfmf2Z3NtnszpYkO0DYM59PlJ25c+be79x65pxzy2X94YSKfzKBwCFAccqU2u2gJCaTK6bqapkN4cgqUiIdqziDqiJTVdFUbwq5ZkMokbSpgZlUCJYzpIA/ACFnI7lzn644g6pwpzkaqW3aoU3jFCREBkE6m4uDOzdg1eodOH4h1p++MjIin4Es01funI4JXBQCAsISGyM9vQlSayegOrnAWwrPIj/3CPbu3I6tWQdJYXVRMgYxLB71GjVCakpt1IivjoiwYIhyMUUoOIEj+3dhy4bN2He6ki4DFIMtuVkrtGhcDzVjI2iTlCKcOXkM+7M2Y/3mPci7lPrmi/Ma+Km+EDBijPPlueVNY0Q+WaZ/53XMk3n6a43Adckvdcl3RVl5O2ROzwSYABNgAkyACTABJsAEmAATYAJMgAkwASbABKoQAS+ul1WoJJxVJsAEmAATYAJMgAkwASbABJgAE2ACTIAJMAEmUAkCrCirBDy+lQkwASbABJgAE2ACTIAJMAEmwASYABNgAkzg8iHAirLL511ySZgAE2ACTIAJMAEmwASYABNgAkyACTABJsAEKkGAFWWVgMe3MgEmwASYABNgAkyACTABJsAEmAATYAJMgAlcPgRYUXb5vEsuCRNgAkyACTABJsAEmAATYAJMgAkwASbABJhAJQiwoqwS8PhWJsAEmAATYAJMgAkwASbABJgAE2ACTIAJMIHLhwAryi6fd8klYQJMgAkwASbABJgAE2ACTIAJMAEmwASYABOoBAFWlFUCHt/KBJgAE2ACTIAJMAEmwASYABNgAkyACTABJnD5EGBF2eXzLrkkTIAJMAEmwASYABNgAkyACTABJsAEmAATYAKVIMCKskrA41uZABNgAkyACTABJsAEmAATYAJMgAkwASbABC4fAqwou3zeJZeECTABJsAEmAATYAJMgAkwASbABJgAE2ACTKASBFhRVgl4fCsTYAJMgAkwASbABJgAE2ACTIAJMAEmwASYwOVDgBVll8+75JIwASbABJgAE2ACTIAJMAEmwASYABNgAkyACVSCgLkS9wbmraYYKClXQa6ZCoRHQBFNpRyOZcK8dkP5ubDMwOTpXFOSMmBJb247e3oRTCuWQVCcE5XztxEyy5kFTs4EmIBBBIJikXZlV3Rq1RB14iMRahIhCLZnFW/7EZO+XofC8j6aZQYmz/LWE07PBJgAE2ACxhHgsTgwx2Ij3rtxtbScks1oceto3N5CVT/JODjvHby/NBeVXeqWMxPlSu6bosyUCKXZQEiNO0FJSIYSEgQU50I4vgli1i8QNy2HUFyu5/ohsQil4d2Qa4RXUJYEYc+3EA+d9vF+Wn3UvAOWvkMhR4fp37NrDVAuRRnLDEye+tUHUe0ht+xtu5hzyKooq/RhhMxyZ8oMJakH5OY9odRuAiUqDkoQdT2WMxBO74VwZCXELT9TWzxabslV4obgJLTrdytuua4L2qalICEyCNLZXBzK2oBlC37Ctz8uw/5zl0BJjMhnwMg0oW6ve9G/RTg0PVU5X6iMI39+ie/WnPJxwiAgKv1uTJj8CK5JCdN95vnFq/FGuRRlLDMweZazqvqY3JzcHff0b4VIq9+ChAOLP8ePG874WL99fEiFkpkR1/wa3Ny/N7q2bYYGteMRFWqCfP4Mcg/vwdb1y7Hw558wZ00OzldIPt8UUASMGOOMAGhEPgNGJo/v+lWS5wyX/pxB/81V9mzFx3czkjv1x8A+IZQFCzbs+xwfkqJMqnCGjG+b3hVlsX1h6fcM5PhqZYthrgUluRak5N6Q2i6GadZLMOWcrXBRy3+jCUrqnZBaxpT/VusdxRAKZ/uuKIvqB8vNIyGH+dFblWUGJs8K1tgqeVtwY8i9XoalKVlg2k1d7AUxxZLiXf1rC7nVYAhZ78M8/2tql5fyt4XyvYXQ+jfi+Tefw82NI1Cm5wipjbSO6t91uOPuBXj1sTH4esvFW0Qakc/Akikiuds9GDowtux79rm6FGPt6Ux876OiTKzVH5OnPYmesf4bj1hmYPL0uYqWI6EQ1w1j/vMmbksN1pS4xVhxbAZ+usiKMqFaGm4ZMxnP9GuICNFJpR0cgjppcfTXDr1veQDDF76Dp8d+jrWnLp/xqByvkJP6QMCIMc6Hx5Y7iRH5DCyZPL7rVTqeM1z6cwa991bZc5fW+G582/SsKIvsA8uAFyBH2d0LZeDcIQinSCEWkQIlQrXmoslGdE9IA+ir9vTHIJ6wVPYdXJj7lVyIR321a5empwAAIABJREFUYAmC0vY+TalDk6b8pTAt+A8p2faRJZ1DeRXi4/PBMm1Kx0Dj6XMFqfoJTfUh9ZsGqZ6DMtuSB+FYFoQCcggLqUmWZg3Iukxd7IdCaTQSxVFRCPruPxCKqv7iRKzRFxM+Ho++NU22xSL1D4V5B7Hn8BmEJNZF3YRqMJHyMJQ+Njz3YTjku4fjm90Xvv80Ip+BLLNCDVc6ji1bjpIhui9HENLvegjdrEoyBVL2H5g67m38tHofcguKSy12qL75/pWOZQYmT1/qWznTVGuJYVMn49YSJVk57zcqeVAq7njrY4y5qlSZrZw/gT3btmPfifMIiqqFRk0bIDGc+mshFCnXPIlPakTh/vvewZozVX88MgproMo1YowzgqUR+QxkmRV6Rzy++4iN5yH+nYf4iL08yS7V8b08ZXBM60PbdK8oExLJEoQsyexKMvkwxN+fg2ndRgjqbF6g+FxpD8PSeyCUYFKWhV0JS5/baZH7pe16RTPt833kOrn5DZiPqOZ7vhzkqpk6BFLDJFvivPkQDxb5ciMg1odct6aW9hzEpeNg2p3n273uUrHMwOTprj5cduepvbV6xkFJRhacWW/DvGAGKckclEEhqZC7kMVZ6zQiQP1I0t2wdPwTQX9urNpExCT0H/scrteUZIrlEOZPeQrjpq/HcbX4YiQaXT8SU168Dc2qCRBjO+Opcf+HFfd8il2+azcqz8iIfAakTAlZMydj7IZQXTdI1xclIKn7UAzvWQPqZyhp/xxkrvbR0cuUiq6da1nvg1KA398egw+WnKicSxvLDEyerhWzcmfMdTFw8lSMaB1ZQcvKyj3e/d301XnQWDzRWVOSKcU48Ntr1OdOx1qHj7tiZAP0fXQyXrqtKSLoI0a15kPw8oO/I+ON9eyG6R5u4F0xYowzgqIR+QxImTy+u1RPnjNc+nMGl5dWyROX5PhufNt0ryirdRek1Ooa1fMQ/noC5jVZpZQVii+07VWYEU1xu3pDUd2qat0NqQEFtM/yNe5XZV6aDOHQXPrzUYZA1i3psVpiC+V9ju8KPZHcTKM0Fxf5IFnEnPLxoR6SsUwbnEDj6aFKXFaXxAYUb62NViT6Gn/8K5jnTIfgbDB1fjfERU/BFDsdUopqoUrxzJrfBHn5RojOaasQoJDWgzH06mjbYlEpxPp3R+DJr3agRDUv5yNr9gQ8qMRg5pTrEE9uQOGt78PwXj/iyfm+xqmqPBAj8hmYMmXkrJmFGRSm0qeDJplDB8VpygQLdsyehU2+1ndzHaTULh2PNm/zQ31hmbbXRuNRQPH0qbL6mEiIQ/fnpuGFHolkKUs6XEsxJFMQzBUL2ufjQ31MZmqI/gOvAH2ToEOBJeszPD7qK2xw2ulCzt+FWRMeRfX6P2HslRRvUDAjtX8GOry3Hn+We1cMH/PGyaocASPGOCMgGJHPwJTJ47tL/eQ5gw3JpTxncHlplThxyY7vxrdNNwFOyA2o5XWk/NKgnp4Fk6OSrIQ1Kau2vwfxiLb8E6Ip1lCvyn3ZrsR79HhrjRsgJ9AmBOohbYa4dbfH5GUuihS8vySeBX3198fGBSxTQxxgPH2vdVU7ZUgzKCXxk8j6c8svrkoyewmVIzBt/qe0vGF0b4zDbrJVjkQ4Og+4AclaEaTsTEz90kFJVlIeGcfmvY1P1hfZ+kwxBr0G9kbCBVtYGpHPQJbpe0U1N++P/k2DrNZnStFGZP6y03c3yaAwhNu1D6SEPeePjSBYpu3lBRpP36usl5TV0GroVLx2S32oDgaKlIMFr7yLJT4a7XsRXunLQvWWSK9vn+5K2PzLTGx2p/iSDmHWzBWwh8oUY+jeulV5PKo0PhZQhoARY5wRiI3IZyDL9P0d8fjuO6syKXkeYsPhr3lIBV+D622X9vjuml/3ZyrSNvUtyszpkOtFa08iZdgOCnrvTjmkHCKl03pItdpTepoh1e4OJXwmuVc5xnSg+EPV47Vg3nS+MIcCdrsT6FDAENptM8zuWllIsdGOqR8DK3CEQm5xPRTrPIkEHKDynHITDYZcopQoe9m1RwXHWYtmO4KBqDokRScj6k6gZwtc88cyyzIJFJ7ONcEUD6V+V9qptT6UUFoknz9GOz7SjrF7tkKoqLudETLVfJsToKR0gJxYHwgnN2va1lY4S9aU2ashHNjpPb+h1W1WplYGRRDysp1pOPymtnTyAAT6n1U5L0RS/LLya4sEkRq4LOu1TA/PNuBSSBv07KpZk5H64+CvP2OlO2WGdBBzZ6/Fo607UpEpXlm7Xuga8wN+OOHQv1C8nLjaCVrwaQVFp7Jx5JT3/tMcmYRaMSFafLRC2tHtKM441jN/51NFGcgyfa5KoeiYcQNSbL6TKFyViTmH3IxH5kjUqBlTtjmExyPcYTyKqZWMujrRzeSC4zh0vMD1CssMTJ469VOgOVazKzvhimapqBUbgVCa6OUfO4CsjauwbOUO5HrvZkiqGXUHTMK04em2HS7JWnbdeyPx9MyamDhK56HlOkV9YnwjpLdujiYNU5AYE4lqpmKcPX0CR3Zvw4a1a7H50BmvSmYxsjrlTWs0ynns33vYwz0Kzh7Yj2PUJG1tNBLVI8s/HpWrmJy46hDw9xjH47t/50tqTfL3OypX7eTx3REXz0Mu0BxMp45e+uO7Y6aDkdDiavS6sgmSk6IRZslH9p6N+GvJMmw66mNYEh0GZU+Vo2063KivKItrQwoq7eubchrC/m2lt4R1gNS1PbliUjD7M+rknhRpB9eQG2N7myLK3IIUAUEQdzt+SiRZraaguENjSk8LwLwZMH8zBaKn3e2C20K67V1I8aSYoimNsPVZmOcu8jH+ixOtkM6QG5GiznqchbiF5OjouayXowfAcs8ITamm3eL4PzEN0i0/6k+ydr2A4JmzXW9imYHJs6QmBENp+BCknrdDjlTrs+MxDDi1DKZ5tGusa83xcMYImfQ4kWITtnsUUnuyDA3VyxE1nDPrIS4jt+tN293n73y+TfFlT+FtneG4I6ZCm4WUI5h/aOpNGD3+UdzUKg7SoRX4ZuJYvLkkW7+Nus+x366YGlyBtjF217jTWL1ia4kRqhDTCcMe74ht707Fohxb/3n0n1XYLXVEU+qNheBWaN8yGD/87jAwKCbUG/Q2Ph2SRgt8chvaOx0P3f4KlnrYjU2IaIcnvvoI9zaiXecUCYdnPY5bnl2AMw6l9Hs+SXYgy/S1AgmRXZHRO0GLb3EGSzMX4KgbPZkp5Va8O/MxtNQfqUlH0RQP/Hc2HtB5+PnFo9Hl4Uw4B0JgmYHJs0wVMSeh8+AnMWrItWhcXdtspEwCUsgfXYsfpk7A6z9tRb67+ZJ6jxCFBm0aI05VRClF2PPDKIz4YCMKzPa4rjqV08spIbYlbrr1ZvTp0Q2dmiYhXPXl1Dvoy3v2ml/w4RtTMX3tCbd9vpx/GtbpqvUQyKXSjbySJBQ3suR5Z5DPwfxLaAT6P/w+xvH47t/5ElVQv7+jclR6Ht/LwuJ5yIWZg5WhfomP787NKTT1Bjw18Rnc0iLWJVTD44WHsfSTFzD6/b9wtKIGJdoDy9M2HfOo43pJE4i4hqWKDZmsR6zRp9WDAnSnj4TU8h5I7VqWyjm5jXap02YhQjUoCbUdn0H/LiDF2liYDqrLNJIfMwBSL1qIu52rkAtntxc0JRnN0HL/B9PCxe6VW05PK/tToN30KOaRXfF37g+Iu056vIMvMgH/EaDdTVtOgKXf3TpKMvUp1Aiqd4HU/w1ISb5uTGGETMpKcAtIGV/C0rWPGyWZlt+I1pCv/QjFPa9y34YLyUrupL1XI6VeXLIHpNRG41JLZZ3fThZoPvaI5mZ46I2XMKh1IllDmFAtuTPuf3U8BtljOHl4qjGXBEQ0SkOdEi+fLGzabjfLMKHhbU/g4Yz78OzgdGiO4JD2bcH2s1r/KUagcVptJ6XpWax+9xm8vTpf/SwBc71BeGVMHyTo9N7WMgkxuPqpV3BPQ1KS0YeJot1fY9T4hTheRhljRD4DWaavtUlAfO8M9Ii2vTw5bwlmLsm7+FaQvmaf01V5AkJEK9z/wXf4+LG+SNNVklk7EQQntsXtL3+Br0ZfTTEUPRRbOYFFrzyBdzfk4/gfEzFs/BKnvsbDvW4umZsMwFMP34peLWq4V5JZsxmKGlfcgrGf/Q9vDSS3TzfylFNbsGG/NqYIwWjQKMXDhykB0Q0blvSv8umt2LTXx/HIzfP59OVCwIgxjsd3/86XjHhHvtZfHt99JcXpjCFQFcZ3x5KLSddj4scTcFtLVyWZmk4IrYWuw6fhyxd7ul/z+ISy4m1T5zs1KcOia5U+tpjcJAvsSrAatPtjKl2jNMkdaGG73qa8kimN+sUtVL1NvV/9krinbNalXTDNfR3KnWMhh1OatFGQDmyDecNBpyLStSa0W15LTdlWvBGmOdMgnvf0SdMDJaE2uV2qbqHqQcvMLHK79BQ3I38BzDN3lVUABF0B6fq7QB9+SMReiAunkjWdTn4K3FjYsMzA5KlWuaTBsNBXccXq9kF15sQimJb/D+Lh/fSzGl3vCqnTEHJxJCVVO5/8XIyRqbaTvqSsq6tteEFWXcJOUlBvXAIh9yjVe1qCRDeD3Jw27GjelHqvcCitX4Z0YjDM66gszoe8A+IGcsnu0ZauUID+FrdCXjdR34o0qCnkdDWdeqjxzGa6d/V2eo5YswM61bfFerJfEsLboEubcHxLLjkX/hBRK7kWgrSPAMq5IzicZ1eC1UCnzg3pi4kJtTpeifqmtdihrr8sOTh8lOqGde8Uuj+lNv13d1nriKIsfPbsJFwx/WX0ijOhxvVj8crKLRj2/QEnKwoRSdePwfiMOraA2gXr8d7Tb2OFi0mIEfkMZJk+1jSxDv6V0VFznZRwdMHPWOahmsrZ8zBxRBbse8lYnxLaAcMmD0a6qmmV9uCHca/jN9VPzOmQjm8j+2nXg2UGJk9rTTDVQcbkaXiik7b7o3wGOxd8jU9/XIQ1WTk4LYUgJqU5uvW/D/ff1BwxpnA0uX0ypuy+DQ98u8+txRbObcIHjwzCL+cO4ICPw5hrzXQ9o5w/ji1/LcDiv9Zi/Zad5Eqch9Pkxh4aWwuN2/RAxv/dhp6p1SAG1ULv517DsG234+1NOhM8aTtmfr8Wg0e1o7ZnRuP+d6Lz1y/hz9M687jQ5rjz1nbWWGsUbA0Hfv4Bf7mLZ+aaZT5zWRMwYowjYDy+W2uNf+ZLBr0jX+o1j+8ulHge4oIERszBrE+pYuM7ZRiNb3kAzYNFFB38Hf+d9jnmrN6DvOIwJDW9CgMfHIZBtAmjiT5u1bv5JTy/YhNGzjrqGk7EFbHrmXK2TUcB+oqyCPvukJS0gOIo2ecSIsVWokWa9YhJg0JrZ0H1EJJPkDJNXfGp1+jTYzW7m6Mtacl/1U0B5pNb5439SHGgWo29COnIcJiOOUxsovuTi5pmbaachLjkBZgq458a3xdyTe07oxpPbbOXbcmKKQ7THvpzzHpIJGRiYMNALmX7l0I86bowcSpt6U+WGZg8hSTIXUjBatWaqEqy72Ge/irEc/YGdRzI3wfz/nWQBr4Hqaa666OXwwiZqnK7xVOwpGrtnhTf4oIRMG/cUzYzZw6TVShZZB6ZBMs1V5PyMwpy52GQt492KJP9FlJKr58EU/33IdUjudX7w5JRDPPiT+l+Krf1oO4noTuk7k9CSlTbKHHJod0xl68r+1wPv5TCczinqDwdW2wRCs76uoWgB+EVuiQiLjG+JDdy7jEctxsjmBugSQNb/2mq1xRp9Lp35NND5FwczaVEjWz9Z7WEeOvubCft1UTLh3QoE2OfvwJpU29GHZNqNTYB924Ygo+3l/afpuSBGE/WZolWpX4e/pzyLD7cqrfKMyKfgSzTt8pianQjMtK1uHEUNHxO5iq4C1+nSlQKDmD1HwfKCo+MwiD78EOhEXat+AOL7dYyPmSDZQYmT3VuVrP/aIzqZlOSKVI25r/0AJ6ZsbtMHTx+9CCy/lmChRvewFfPdydrsih0evjf6PPrk5ib59QpOdQ36fh+OJH1oTbqJ1Hyd+LXaY/hu28WYvspHWuu4zk4sGMtFv48D8M/+Qz/bk07VIY0xh2Du+HTJ39zcTdWP8Dsmz4Or3X9FM9dFQdT8gC8/kERJk78CHM2HoPtO6yZprW9cO8zz+L+JjZr3IKtn2HMe2ug14Pq55zPXt4EjBjjbMR4fFenQv6YLxn3jrzVbR7fdfpqN9B4HuLfeUhVGt9LqwRZrgcHQTr4M564awx+c4hBcixnHzb9/Q/2/ecLPN0xEqIYi17D70b6/NewVudbmJtqVnK6vG3TUZ6OQT2tsELI0sV+FFNwevvciAK/gjR/1sOUBCXCfjulccx4MAXEL6NpsgtTIOx6DebVO20ngtPJUutBUiRo12kLb+m6kZqbJC20t00gi5bKTL3I5av5v0rdSHN/hZjtx8+d9mLx/5mAHoGYvpBSNOWXkgfxT4rrV6Ikc7ihaBNMS2ZQnD89IU7njJBpag65fSdN10QWXetfdFWSlWSDAvNvnALTfm3TirCrIadRv6B3SLth+vkBau8Uw1CiDqHmrbDcMQdFI+aieEgmiocvQdHdk4gRKdZlioW45TUEzZhGynf3izHnxyi5izBj0XGHLwwKivdmYsbKi7W0MSEyihZtWkaVgoKSRagQmYgksqZVD8FcA3Ws2iw6lAKccdj8RKgWBf3Y0QpyF0/C059lWRd2QkQb/HvSw2hr168GN8a9E59AV9WtT41LNucljJ6x340ViBH5DGSZ2gv3+L9gtLn5RjTUXru0azYyN/B45BEZX/QfgaCWuGtIF5t1IvUP+6ePpv6hrJKs9GHnsWfGeLy7osA6/RNjuuO265LUz6AX5LBs/Aov/2e+vpLMMQfnNuPTD+Yh1zp2iojq2AWt7PNJ55wW78LX/74HT365CjlFAqqn34lJ3y7CP38vxsJ587DkrxVY9uMbeOjKBIjyKWz7eSIGD3kLK12scZ0F8+/AIWDEGGenx+O7f+ZLRr4jTzWdx3dPdPiawQSq0PhehgSNtb+99SoW6AXqLdyBLyZ9gR2a3YMp5QYM6GB1XSznUbm2qTPvoVmGfet5NSuSgwaMLKtKFGAC+QnZ436BSiE5rPLN7iJFqAIpXtkyNV6Z6hRCy8mEu2Dp3pn+GQal00uQaqtKOpqa5U6vRFwyjWEwbTzQxB5Qlnbt2zLXN2VEOV8BJ2cCrgTISqs+xfCy77RVQJZY+1TzITfHkbkQVasij4cRMumBNa+DHK2t3i1rYPpntcdcQCGLs612y8xgyPXauU9fvI+sQh+F+ddvaddMtbejLieEdtSMrk0bhqgdHrX18+SmuXgkgn79H+2G64u20OFx8jHMHn0PRrw9A/P/+B1zvp6M++97FSv0fM7c59KPV4IQQj47JYqy4vMl+xLYdl7THiVEIzbansqCItq8wK4eFIKDbW4/urmieCbvPIOpa85QegEhjQdj0tNdES2GofWwCXikTQSd1eKSvbzAunOb/mFEPgNZpj7lMmerdUJG31paEP9ibPplFrK8NXkfxHISJuALgaDW/0LfZFs/r5z/B5/9d1WZzT1cZMjZmDdrFax7LgkhSO/SEVG6H0Bd7rygJwo3r8d2bSItRtZC7eoeMlm4B3MmD8d9z32Jfyj2riKICKYPGHWS66BmdCi5eCiQ88lNc8IwDH7ua6x3tzv6BS0hP+zSIWDEGOdYOh7f7fs4VXy+ZPQ7clMbeXx3A4ZPXwgCVXV8l0/+jkwPcXqlnXMxa6t9gI9Fpy7NVF+k8h2VbJs6ijKnSYbisNKi2DqlBwUUtysB1JOO6bx9d5R2WuOVidbYZxS/qOVYWHrSX7vGNvHFZGEztxJxyaxSqBwNboRcTSuiZS1M25zjoZWWhv/FBPxLgNpHUkNNJK00ctZ5jrul7IVw+ISXLBgh0wQl5YpSBXj2Egj5brUrpeU5Rht4WJNRO4snN2ydnsR6LZFcLu8i67F/3UEh2dTujVhIZI1WQBtqWFQtAaUhlxm51ycoGjwFUnKcFwY6lwv3YeEHL+CRocPx2Ctf4u+ci6h9oIWX6LijmiyXWnSJYmkAaSEIQfZAZsREdvzQQJsS6OK0F71oBz4dNQmLVTMKirdTd8A4TBw9DpPva4JQwqkUbMB7z+jFJXNgZ0Q+A1mmTrUse0pATI8M9I6zvVnl/GrMnO3O2s+rME7ABMpJwIQGHdsjyf49ZONCLLHuuuvpUHBq21Yc1Pr54EZNoHmOe7rJ2GtiMMKjYhEfF4/4eNtfHO2BU7JJshiJqEh3vaeAyCbkmv6/eciccjfaxZutHxWkorM4eSIP+YWS9eODGJmGm8d8RW6db+PBDvEegv4bW1SWfgkSMGKMcy4mj+82IhWdL12Id+T8zqjf4PHdBQqfuGAEqur4Th5AW1Zjvaf4I9IBrF2Xo62jTBS7rGk5g/pXvm3qKOZIc+c4fzI52LGfJ/coWufaLB8KIVjsNhA0MTE5iFI07Z+nSnL6F4pX1lqLV5YAuXUfW2o1LtnvFJcsRw1+VolDSKTA42SpZj0on/tm+6AAqMTz+FYm4EhAiIcSZd/Fkqbfed5ciMnlMe8QSUhwz9EImbQDhxJfR3smNXxLBFnCddXauPusoJqDQiucLMSoCyjrOkoam1oPoDjjfigh6sKFyneQNgdYpm5kQOVU+xjVijSpC+QrH4bUgPIQ2xPSgAZQZj0E8057HDMPebgUL1HfVyzZ+0UqYlBQiXWYnH8aJTpIpRDnrKYa6iEiKNikqgxth1QMbw550qGZGEPxyr6b2p/ilSWi5x19bfdSXLKlr1Jcsi1eXE+NyGcgy7S/O3f/F5Nw3c1dNJdaBWeX/4x5XhUV7oTxeSZQXgJhaNg4RVPAyzh3PhLNru6GNC9iBFJI2fslMT4RpFuiMcLLTX68HBTfAtf064vuHdLRqnljpMSGwez4gdblWdTf6rpe0k54rYfjow+Goo2qSCPX0+OrvsYb73yN+WsPIl/9tkJWuUnNumHQsEfxQPdkVKt/DR7/sAFSHr8Xzy86VrEAwi754xNVmoARY5wOEB7faYpY0fnSBXpHZV4bj+86tZhPXTgCVXN8VxeCJ/btx6nSJZMOMoovulvdtKy2LQp+7RSou+Qe8fadzy7JD21TX1FWrC7TNPdJEy321ZmSWpDCYzRJon+YVLMFciMrcZOitI7GZmpcM6+HGq/sdYpf1BTF7RtpqdW4ZBNh2rDf691eE8RcD6mOpqiggMfi5j9KF6Jeb+YETKCSBIRI2prL/mWbWrRqQeXxoLpfcMpjChgiM45iDdq7AcpvvWGw1POcDZerArlQqu3fcQFlbgnp2vs0JRmVf8+rMGdSHDZHYy/lHITs32DKXA2h9yewtEwmOXUh934S8uFnyeLUY+/pko1L40QxCgqKqbu0BWwXgkPsPSmUUzk4qgYXU7dToz4pz77jGu3oorpr2g9rnA6vRad4Jksm4ZnPm+O/9zZGiLWPlnBkzjg8+72H3elKnmJEPgNZpufaZ6p3AzLaaUH8KSbDksxFOOH1HXuWyVeZgM8ETHGokaBaUKkHxfLq8gimdfH5bmtCgT5shKlKKC86+PJJdZOaNoppeefzePXR61A/vLRvdJO69LTVmkQnVWg6ho9/EK2t1mYy8pZOwJ0jpmOv4xcJ+RxyNv2Kdx5Zhc0vfYV3MlJgDq6PAeOexfL1T2B2LjdYHbIBdsqIMU4PIY/vFZ8vXah3VPreeHzXq8N87oIRqGrjuwOYUydPeTHMIMv23BNW1ZO6TBKjYynUjO9k/dE2dRRltGA/py7YtYD+YTFWtyzr3EPeD+EkrXST6Db5KMUc0lR6FG9HKYlXRqUpPFW6U6bH8lBauczKmQxPaOZS6fkIuXM2oyD+qkJPPc4uhrjXQ3woj3nki0ygIgRIc1QyYacKrdZrb4fk7VO9ATIp9kyZmITe8qh3nRYntIqiKw4Nt/6tkGK07kXOgumPn8oqyRzlKCcgLv0YYuMXIasan/BukJrVgfiPNys8vcxc7HMyTuWdoqVYhFV3KNg7dbWbk/Zh1z76Rwvqnyw5OHJM6/vEGMSV9PwKLKdOllqeeSoOubtbii1lLB0k+sih7tDr/TAin4Es0xNxM5rdeBOaa6628vEFmPlnfuWHOU+P5GtMoAyBEISqftmVOaiPF61aKJ86mEo8KQTNhkzDfx9ta9t4gJ4n5R/EmuUrsGHHHhzOzce5ItVNUjtMLXDH87ejpTbc6JUysuudGFBPUxRatuOL178vqyRzzC3tQrz4rffxe59X0It2VRFjeuL/bkzG3E/3s1VZJd7q5XGrEWOcGzI8vldwvnQB35H11fH47qYG8+kLRqAqje+OUGi9Q2sYb4dSXFTiZSOQl6PZZ0WZf9qmrqIMp8lyDLVseQ8lVzB1xaeu6ZRDEI5QHKUk2uUudwsEe5x/IZYWt/ack6XY6aPeyk3XaTpT/1FY2jsa/1O8pOZjIB0aDPOmwz7IcJPE3BZS07raRVL8bZ/tOT6UGzF8mglUmIBCrsMlrslU1812N0wPEs26PiOlNxgikxR4JZoVC4RVj8O8JcdDJnUu0a6NZXeqNENOaVOqKDz5N8QTjgpxHRkFK6w70sp1VUtWUiQlpwNVVFGWc+QoLahsZsJC9UQkqq9e1ZNKB7F+Yy7kFkmQd2/GVrvhrRCHxDj78k5GbnZOmU2EdWjRKfK77/o0pgxpijD7rRRDss5N4zB+9e0Y8eNBN7td2qXJ8H8+A1mm/luyng1th4x+dTWjawmHfv0ZKzzFZPAgii8xgYoRIHfuYrtqyYIt/30YozJzyqf4kc8i54zRSjL6Ypx8C54d3kbbnbMI+36dhMde+h6bT7vxtQgrQs/nShVlrnxostzxCthDl0leuc6lAAAgAElEQVQH/sLSXZ7HI+XEX/hzUzF6daLxiOJANu1A+flsP04aX3zX7POZS4iAEWOcXvF4fK/4fOlCvSPtvfH4rleB+dwFJVB1xveyWAQE0+Zl3g7R0TOnuBDn3UwFXOT4qW3q6OVIsXRiX+lHQzEFSozdr7IY4rbfKBYRLYy3LCi1GgutS4G67as1Wmyf2O+SX5cTUdfDcm1/24YA5IYkZP1N8mgWQko3ucfLkBK8w3ORaT9Rvx9k+6xI3ks79G1wm5QvMAFDCCh5ZJlpb83UzMJjvDyGdrQMj/acxiiZ1k011IPasHQCwvFd5fvLPeJkZBAGRDmU5Swp3rwuME6T5WeJ5h2IqFm6wYBnKpfYVZqk7dqDM3Zj26B6aFi3tP9cO/tXHLCcxZrMedijrdWEqPpITdC6YnKf3Lvbu+ukqWY/jBs/AHXVHYrJlW/1/L+QrcZGE2PRgwL9D0nzppg1Ip+BLNN9NYzscjOus0dRl/Zi1i/rfFCEupfHV5hAuQlQ7MLj9LHC1g0LCCo6gZ1ZWcgqz9+uwzjtWb9U7my53iCiZo9r0UazfpN2fYEnR//PvZKMBIixcYjRmcmWyg5DzVrRJdFB5GPZOOZtPFJOIefY+RJe5qRaSPT4DNeS8JnLkYARY5wrJx7fVSbFqNh86cK8I/tb4/Hdtf7ymQtMoMqM785c6INAXLTnzcvoakxCXInjk5yXizwfFWX+apv6Q//RTRDtViZiHQq47bDIP/QOgj4ZgKA1DsqwxOalbo7yQQg5XmItmVIhXfeUtiMlKeZ2vgbzL6NhWq+5WgW3gtR3OMU3sivfnOF6+h1HFhtXa9YsNBs6OhfiUcNnd54yxNcCkgApfk7a45LR3lqxpEz2yIGsqGLtQfXdJTRC5llSimVrDyRlXUIDdw8vx3lHF1G6zXFDEE9SaJejkoN2fvQ1qKAQ0QQZT7+FL6d/g0+njMA1Kd6URJ4yUflrxds2YqvdmlBMRsvmsSVFOb/mDQy69gY89NXeEouv4KYt0cS+A6Z8AJs2n/RcV4Ib4u6Jo3GNVbkm4/iCiXjiiScw+n/7rEaMQkRrjJjyb3QgtyFPhxH5DGSZuqxpA47eGd21hTzt8LP1F/y8jccjXVZ80jgCyhns2pmtWZCJqJPWSNtYwrhHVkyyCfUblFpfHl62BFu87OsU0qipw26cFKPM/l3CngGyCDPZw3Co52iDFR1XCqfsCjCbSwUJIsmoWIH4rsuMgBFjXBlEPL5Xer5k+Dsq6Vt4fL/MmnfVLE6VGd+d8YqIrlcfsfqaKC2xCfVK5gRky3FgLw74MoX249xbP3sF/0Cwx89BEORGjrvgkT+p1TXTfgRDbtC51PrjzCpaeHsqRTiUTuMhJVOwc3U5eHoWTL/NJWsyCrj/x4swHVVnRbTAi78dlp7dPS8YHXJR8s/qfSClhGs/i8nybZ6P8dL0hPE5JlBRAhaIR7ZpN1N9TmoLxZORpNgISu3qXh5mjExhP7V3qxaP8lmnFymwPStYvGSSLpNP4TmH1U007WTpbZUhkEI+xgHQuVwfrNDoUWJNZEz5GK8M7o0OrdLR+YahmPrJaFztRUnkvQwVT6GcWIm/ttvNxYLQ9ppuSChBasFJcs0s3acgBK17dCkZKKScv7Esy1P/WQ1thk/Go+0j6TsLxe45lImx42bhiHQay954Dh9vL6SzAkIa/h8mj+6FeA+v0oh8BrJMvRoj1r4eGZ2q2Sb+ShHWZs7BXk+vV08In2MClSZgwbblK5Fr/RIrkDdwH/QocfeutHA/CqC+Kyy0ZKF87uw5L3PAcLTv1QnVS2ayweTK4dTpUWiAvDy7dZi6X0xD1PcS5QCmOmhQL7gkH3Lecd58w49vuSqLMmKMK+XB47s/5kvGvqPSt8Xje1VuyZdT3qvK+O7K3NysPa6I8LBQIcOqDlfEa1ZnEvZv2oI8z1Yn1of4s23qK8qUg+RiuVkrERWAYkbISW5W+dVoYZ1GMcusB1mH7ZgH0e1CgGSlPk5xybRdLskNxfTrGxDtW7wVb4Bp7gcU+0ylQPHKmo6G1MqblY32aOv/aOnYrB8U1R1JPYpXwbSD3ML4YAIXnADV4X1LKTae1qJDryKFMsXyc3ck3wi5xMXZXSIjZNKzDsyCqG7SoR4hV0G6sr27DOicpy7EpY8j9+vsrNK0YV2p7F7cSpOuh5xg16ZJdP9WnxTcYkJ33HRVjIPprgBTretw05UX0apMOoD5czdC3eDSuijtcDtua6rff4oJvXHXdUkl8asOzpuDtXYPVBfaAmK7q3HJ0qB6JinFe/D1mMlYbN8+sWAdpo16D2vUOEIUr6xWvxfwysBk95YQRuQzkGW6vC8TGt7YH220hbtybgVmzjtcvrhQLjL5BBOoGIHCVTMxS/sUK0R0xdChVyLKpe92J1uESX+26O6GCp6XcZp2wbJ5VpAbZoN6sH/21BNoqj8QD1yXUNr/CxGIcpl0F2Pbxm2wD8VidHfc3CPGddhyeEBw0374V1rpeHRo02Yc99HdQy+ffO4yImDEGGfFw+O73+ZLhr0jx3rM4/tl1KqrfFGqxvjuilmI6IIBtAZyN70IadUPfRtoY7F0GEv/2OEl/rL6DP+2TTd5I4XXlm8h2mMXmRpB6v0QFOddk8z1IF/zCGT7jpdFqyGu2+RKwn4m6gaKS3ajLS4Z7TEurCQLsgNnyqY//jXMvy+3WZMIMZC7jYNkjYbtw2FqCblZQy0hzWr2kALgrA+qRx9EcxImUG4CZxZC3KW5XwqRkLs8TrHzdEyrwq6E1IMUvL4sWoyQKZGr9fIlmmKKFNTp42HpSMH0PeWHyqPUGwRpwFewpDorgVR36l9LlYRqO+7+POR4N0se6iila+/Q+gWiLO2iuIJbfcMdHEQ2r86HGcFBOpydkxn2m756ZH6JBSdsKyshOA33vjgCHao7AQ2pjwHPP45emt2xcvYffD59Q8nuLs7ZM9W+CS+/nIEU1Y1IKcSWj0bjjRVld08s2vEZRr221ObDT/HKuj09CQ80DXUWpf02Ip+BLNMJM4UQyLixkRZbgRQAf2ZiQS6PR24qI582mkDRBnw6baFN4UOK9Lq3TsHbD7TxHN/LFIn6Xe7AmI9m4IVuzv28ERmWsGP9Fti+nQqI6HYfhqRrFplOjzMldMGo1/+N9o4W0EI4oqs7jwgyshfOwUr7B1nqF68d9TJua6w/HpkSu2HU+P9DQ81dUyneiVmzNvswOTeCB8u89AgYMcbR0o7Hd+ur9s98yZh3VKYu8vh+6TXNQM5RlRjfdV6QUA2dR4zBgLrO4zb1BZFt8PDo21HPupxTULTtJ8xYr+6M5uXwc9t0H6rh3CKYlv1NirDOlFtamCXdjeI7G8G0dg6EvLNAZDPI6YMgJ9rdxSjA/8o3YTrl5rObqSGk65+AbN0dkxYLB9+HeYXdas2x0GRNsvFlmFM+h0W1VAtuSfHKHobw7ZsQbSYa7gmlkFWO3QafAp+Lm5e5T8tXmIDhBE6RAuozCKmPktsltaGoa2G5PRamld+RW+YBMsCsBqUGWVuRxZEcTU2xMJ92yFNdkj0dRsgkxdbWKTAlN4KlZQq1d9pQo8uHKGpEfcAWUqDl7INQSJ1TSDSUyPpQ6nSAnNoJShQF7Sc3S3G9Tn7zyaV6ZX/IVzWzXYy4GpY7SPm+JRPiPlKCnSuktp0IpVY3yK16QQmzK7bIXXrDWzCVuH7ryHY4JR/+G79vP482LUJK3WTyV2DJ6ou7raCStwBvvrMMVz3fFdGigPAW9+HD7xpj+le/YOXeMwip2RK9br0dfZtoQabJPWjdR5Px/QE3/WdwYwyeOAq94mz9Z/7qd/DMBxvhWkqaIM54HuM6Tsdr15OlWrV0PDxlJNbeMQUr8l2VNH7PJ72bQJbpWFvDO96Mf9XR6rV8Agtm/oFTrq/AcwXnq0zAbwRkHJ39CsZ2TMPUjLoIMsWi88jPMafPb/hx5kL8vWUvsk8VIzgyGnE1G6BVuyvRpXsXpNcIo6+9Z/HLdPcZCe8zAbPHdkFZVVowIktOmNH20Rn4c1jZBlC0fBL6PzPHoV0oOPX7d5id3QO31jRBCG2OoR9PR8OvP8ePf2zCvrwiBEXXpl0or8Vtd/VDehzF9jy2BHN2t0PfjhE0VTWjZu0a9D15dxnFlpydiTcotu4VI1pYdwk2JfbAC9/+hN4//4A5f23G/hOFECOS0LBND2QMvBbNYunZanGVYuz97lV8vsOtm4R7KHzlsiXg9zGOx3f/zpfUpuvvOZhTbebx/bJt3lW0YFVhfHdGKyP/9FmEx3XHS199iuYffYE5q/cgzxKOpCadMXDIYFzb0BaKQZEO4ce3v8FOH4Zif7dN94oy1Y1yw4swx74LyxWNqXQ0bYjuTJYvpDhzOYogbCbl1sodLldsJ0ghcBXtZFknwvbz3F8w//oNBHcFVo5BXDgeYtIbNgVC3G2Qeq2DMHeRB3es6hTEv0epVU4+WfPsp1hJfDCBi0ngxHSYFzQjS8o+tg0vIjtQXaa/MnmixUP+IrKkPEJK4bvIsspLho2QiVyICx6GWXoNlvQ0au60wE/qDYn+KnZQn7DyKZgj3iR5av9BR1BtUq4Ppz93EsnKdOsE4rDSXQLX89IOfPL4U4h4bgRuap0Iy4Hl+Oa1Cfgpx43CyVWCQWckHPh+NJ5I/QhT/68JqtHHhrDkrrj3WfpzfqJyHntnjsXjn2zX3w2R3ImueGQyRl4RaV28yXl/YspzXyLL3YcV+SjmvvwCrmzxLgYlk3Vd6p2YNHYNBo36DcdcsPgxnyXlCmSZGgQhGj0G9Ea81pal7PmY+TePR85Vn39fYALKcSx66X48fn4qJtzWFJEU+T622XW4X/3zlBUvCl4hOBJxcXFwb/tPO21GxCJemwLaH1VUPdTV5eLMX3jz+W/QeupdSCOtllAtFb0ffIn+nDNIMRrzVuHdkaMxu8176NOxNVkX02YALZpSf7sbp8vk+Tw2fzgSTya8hym3ptF1GuLC6uCqW0fSn7Nc7TdZ7e6Z9RKGvrrcSZab9Hw6gAj4cYzj8Z3qjR95ltRCI2Rqwnl8D6C2XoWKWhXGd0ectPZZ/uZoHL79VdzTuA1uH0V/erjl01j7HoWdWVbWg0YvKQxom16W5CcgLnkQQb9+ByFfL3AOzUQKtkBcNBRB835zo8SiHf8aPEHKNs0lUjlqU4K5szyzl9yuTLPuHkexx5qo8crI2sXdEUGx0urbrXHIKm3bbIi07wAfTODiEqC6uPV5mH/6AGKe3kKZLKgOkjLt+7EQD+x304acS2CETHqGfITa5r0I+oGsNw9SbD/F3eqIzhcdhpA1HaafH4Jpj17foMrLIeXbEARlfggx54RzIRx+U0M9thim2fcgaA5ZrLpToLuRUHxwIV4bdjO6droKPQY9iY9Wnrg04kApJ7B08mDcMeYbrMwuDSZdWgzaBfHEJvww4T7cNvZXHNYtt4C47qMwZXAjWDcBlnIwd/wLmOFl2xfl5J+Y/OwXyFKtcNV4ZX1fwMRb7LvJOYH0Sz5ZpiMBMbEPMrqqGy6oh4R9s3/GGi+79zkR5J9MwBgClsOYP/5O3PjgFMz45zDO2Xc4d3kaKaLOHMS6377CpEfvxaQ/3fTzLvdV9oSCvGWTcef/vYjv1h+DNWRtmUOBfC4ba39+Cw/e8iDeW3cKB/9ajj3W/pM+SLTrgU56m7lI2Vgw7k5k/Hsa5mzO1ZGrPUSxIG/7Arz/1G0YOOpn7L1QxXYuJv++tAn4Zdzk8b3kJfuFp1OVMUImPYLH90u7aQZ07i758d3h7dBH/f3b/sDkIUPx1qJ9KHCZiyiw5K7Ht2Puwf3vr4cvkbSMaJtCg8ZpLtMQ3UomVic3qSugJNDudCFkiFZ0AkLuJlrk7yz3wlZXPp9kApc7ATWuV+12UBKTyRVTdbXMhnBkFSmRHHeRLScEI2Ras0BamYhGkGuSNVhUPJQgWvJbyL26IBvIzYJ4/JC6/i/HQRZq1ZuSvIbkvkmbGphVeWdIAX+AXDs3kjv36XLIqoJJzdFIbdMObRqnICEyCNLZXBzcuQGrVu/A8UtpIWZEPgNZZhWsqpzlQCJAiqXExkhPb4LU2gmoTi7wlsKzyM89gr07t2Nr1kGQN+ZFPIIR16gtOrRuhNoxoZDzjyP70C6s+2cTDttj6FYodyZEJTdH65aNUa9GLCJCRciFZ5CbvR87N6/Hxn2nwN9ZKwQ2MG8yYowzgqQR+QxkmUa8I5bJBPxG4FIf3x0LSmNy/bbodEVT1KV41kJhHg7TGmnFqm046i3slt946QvyXVGmfz+fZQJMgAkwASbABJgAE2ACTIAJMAEmwASYABNgApcFAS+ul5dFGbkQTIAJMAEmwASYABNgAkyACTABJsAEmAATYAJMwCsBVpR5RcQJmAATYAJMgAkwASbABJgAE2ACTIAJMAEmwAQCgQArygLhLXMZmQATYAJMgAkwASbABJgAE2ACTIAJMAEmwAS8EmBFmVdEnIAJMAEmwASYABNgAkyACTABJsAEmAATYAJMIBAIsKIsEN4yl5EJMAEmwASYABNgAkyACTABJsAEmAATYAJMwCsBVpR5RcQJmAATYAJMgAkwASbABJgAE2ACTIAJMAEmwAQCgQArygLhLXMZmQATYAJMgAkwASbABJgAE2ACTIAJMAEmwAS8EmBFmVdEnIAJMAEmwASYABNgAkyACTABJsAEmAATYAJMIBAIsKIsEN4yl5EJMAEmwASYABNgAkyACTABJsAEmAATYAJMwCsBVpR5RcQJmAATYAJMgAkwASbABJgAE2ACTIAJMAEmwAQCgQArygLhLXMZmQATYAJMgAkwASbABJgAE2ACTIAJMAEmwAS8EmBFmVdEnIAJMAEmwASYABNgAkyACTABJsAEmAATYAJMIBAIsKIsEN4yl5EJMAEmwASYABNgAkyACTABJsAEmAATYAJMwCsBs9cUnKAsAVMMlJSrINdMBcIjoIim0uvHMmFeu6H8xFhmYPJ0rilJGbCkN7edPb0IphXLICjOicr52x8yjaif5SwGJ2cCTECHQFAs0q7sik6tGqJOfCRCTSIEwZaueNuPmPT1OhTq3ObxFMsMTJ4eK0VVv2hGi1tH4/YW6pRXxsF57+D9pbmo7PBa1alw/pkAE7iECfBYHJhjsRHv/RKu5pd61nxTlJkSoTQbCKlxJygJyVBCgoDiXAjHN0HM+gXipuUQii90UUUoDe+GXCO8gg+WIOz5FuKh0z7eT6uPmnfA0nco5Ogw/Xt2rQHKpShjmYHJU7/6IKo95Ja9bRdzDlkVZZU+KiXTX/XTDCWpB+TmPaHUbgIlKg5KEHU9ljMQTu+FcGQlxC0/U1s8WuniXpICgpPQrt+tuOW6LmibloKEyCBIZ3NxKGsDli34Cd/+uAz7z10COTcinwEj04S6ve5F/xbh0PRU5XyhMo78+SW+W3PKx8W7gKj0uzFh8iO4JiVM95nnF6/GG+VSlLHMwORZzqrqY3Jzcnfc078VIq1+CxIOLP4cP24442P99vEhPiczI7lTfwzsE0J3WLBh3+f4kBRlks/3c0Im4IaAEWOcm0dV6rQR+QwYmTy+69c9njNc+nMG/TdXnrNCaBKad+qG7le1R+vmTdCgThyiq4VALjyNvJx92LphDZYvnoNZf+7E6fIOqkb0IQ6F88c8xLuiLLYvLP2egRxfrSxXcy0oybUgJfeG1HYxTLNeginnbHnYVzKtCUrqnZBaxlRQTjGEwtm+K8qi+sFy80jIYX70VmWZgcmzgjX2gt/mj/oZ3Bhyr5dhaUoWmHZTF3tBTLGkeFf/2kJuNRhC1vswz/+a2uXl850/tP6NeP7N53Bz4wiU6TlCaiOto/p3He64ewFefWwMvt5ysRaRgBH5DCyZIpK73YOhA2PLvmefG20x1p7OxPc+KsrEWv0xedqT6Bnrv/GIZQYmT5+raDkSCnHdMOY/b+K21GBNiVuMFcdm4KeLpigrR+Y5KRPwkYARY5yPjy5XMiPyGVgyeXzXq3A8Z7j05wx6783Xc0JkM2Q8PAL339wF9SNNrh9kQ0MREZ2I5LT26DPwfjy24xe89twkfLcl36cPYkb0IY5l89c8xLOiLLIPLANegBxldy+UgXOHIJwihVhECpQI1ZqLvp9H94Q0gL5qT38M4gmLr+/g4qZTciEe9dWCJQhK2/s0pQ4t4vOXwrTgP6Rk20eWdA7lVYiPzwfLtCkdA42nzxXkIif0Q/001YfUbxqkeg7KbEsehGNZEArIISykJlmaNSDrMnWxHwql0UgUR0Uh6Lv/QCiq+soysUZfTPh4PPrW1AYY6h8K8w5iz+EzCEmsi7oJ1WAi5WEofWx47sNwyHcPxze7L3z/aUQ+A1lmhRqudBxbthwlpzBfjiCk3/UQulmVZAqk7D8wddzb+Gn1PuQWFJdOUKi++f5xj2UGJk9f6ls501RriWFTJ+PWEiVZOe/n5EygChAwYowzothG5DOQZVboHfH47iM2nof4dx7iI3Y3ycRaPTH4zm5IdYgwZU2qSCg6dw5ScDhCzRTuQz0nmBCV1h8vfpqKpKEP4J21nj/8G9GHlCmGH+ch7hVlQiJZgpAlmV1JJh+G+PtzMK3bCEGdzQsUnyvtYVh6D4QSTJjCroSlz+20yP3Sdt0NeP+dJtfJzW/AfEQ1pfflIFfN1CGQGibZEufNh3iwyJcbAbE+5Lo1tbTnIC4dB9PuPN/udZeKZQYmT3f14VI7X+n6Se2t1TMOSjKy4Mx6G+YFM0hJ5qAMCkmF3IUszlqnEQHqR5LuhqXjnwj6c+OlRqR8+RGT0H/sc7heU5IplkOYP+UpjJu+HsfV4ouRaHT9SEx58TY0qyZAjO2Mp8b9H1bc8yl2+a7dKF+e9FIbkc+AlCkha+ZkjN0Q6vrVTY87pUrqPhTDe9aAOgeR9s9B5urzuildTppS0bVzLet9UArw+9tj8MGSEz59wXORZT/BMgOTp9sKUcEL5roYOHkqRrSOrKBlZQWfy7cxgQtJwIgxzoj8G5HPgJTJ47tL9eQ5w6U/Z3B5aRU8QR9dzx5chbmZc7Dor1VYu+0gThTSQkUMQ1KzLrj5/pEY2rs+wmgJJ0a2xNBJj2H1wPFYlu/G4MGIPsSxaH6eh7hXlNW6C1Jqde3R5yH89QTMa7JKs6JQfKFtr8KMaIrb1RuK6lZV625IDSigfZavcb8q+NKst8kQDs2lPx9lCGTdkh6rJbZQ3uf4rtATyc00SnNxkQ+SRcwpHx/qIRnLtMEJNJ4eqsQldamy9VNsQPHW2mhFos7y+Fcwz5kOwdlg6vxuiIuegil2OqQU1UKV4pk1vwny8o0QndNeUoA8Zyak9WAMvTratlhUCrH+3RF48qsdKFHNy/nImj0BDyoxmDnlOsSLAsJb34fhvX7Ek/N9jVPlOQ++XDUin4EpU0bOmlmYQWEqfTpokjl0UJymTLBgx+xZ2ORrfTfXQUrt0vFo8zY/1BeWaXttNB4FFE+fKquPiYQ4dH9uGl7okUiWsqTDtRRDMgXBXLGgfT4+lJMxgQtPwIgxzohSGJHPwJTJ47tL/eQ5gw3JpTxncHlp5T0h4dT2OXhz2nv46vc9OOPs8iCfQ86m3/D+Yyuw5snP8fHgxgghXZCpTn8Mv/kzLP/igK6XhBF9SEnJDJiHuAlwQm5ALa8j5Zf26NOzYHJUkpXkiJRV29+DeERb/gnRFGuoV+W+bJf3PfqavsYNkBNoEwL1kDZD3Lrb1zutWlPQQtZ20Fd/f2xcwDIDk6fvte7ipqxs/QxpBqUkfhJZf275xVVJZi+hcgSmzf+UljeM7o1xtvW9uDjK9/RwdB5wA5K1IkjZmZj6pYOSrESYjGPz3sYn64tsfaYYg14DeyPhgi0sjchnIMv0vZaYm/dH/6ZBVuszpWgjMn/Z6bubZFAYwu3aB1LCkgV85Q+WaWMYaDwrX3M0CdXQauhUvHZLfagOBoqUgwWvvIslPhrt+y0bLIgJGE7AiDHOiEwbkc9Alun7O+Lx3XdWZVLyPMSGw1/zkAq+Bvtt0q5PcN+gp/D+Yh0lmaNs5TRW/uctzDquadKEEKT37IokXQ2TEX2IPTPGzEP0LcrM6ZDrRWtPJmXYDgp67045pBwipdN6SLXaU3qaIdXuDiV8JrlXOZrcUfyh6vFaMG86X5hDAbvdCXSgH0K7bYbZXSsLKTbaMTUkSwWOUMgtrodifWkk4ACV55SzalQTSy5RSpS97Nq54Dhr0WxHMBBVh6ToZETdCfRsgWv+WGZZJoHC07kmmOKh1O9KO7XWhxJKi+Tzx2jHR9oxds9WCBV1t/OHTCPqZ2h1m5WplUERhLxsZxoOv6ktnTwAgf5nVc4LkRS/rPzaIkGkBi7Lei3Tw7MNuBTSBj27atZkpP44+OvPWOlOmSEdxNzZa/Fo647WLzGh7Xqha8wP+OGEQ/8ihCKudgIirMp6BUWnsnHklPf+0xyZhFoxIbauiwbe3MNHccaxnvk7nyrKQJbpc1UKRceMG5Bi851E4apMzDnkZjwyR6JGzZiyzSE8HuEO41FMrWTU1fluJxccx6HjBa5XWGZg8tSpnwLNsZpd2QlXNEtFrdgIhNJEL//YAWRtXIVlK3cg13s3Q1LNqDtgEqYNT7ftcEnWsuveG4mnZ9bExFE6D63gKbFaHaR3bIeWjetRXiMpr0U4e+o4DuzYiH9WrsHOPF9NMh0zEIyEFlej15VNkJwUjTBLPrL3bMRfS5Zh01EfXaErWB6+rYoS8PcYx+O7f+dLarXy9zsqV1Xl8d0RF89DLtAcTKeOVnp8txSVesHoyC9z6sxqLKeP/hnXqOFHKJxMSiqSaUl2xHlqa1jbNG4eoq8oi2tDCipNFUiaQmH/tlIeYR0gdW1PrpgUzJLKFH8AACAASURBVN5qh0eKtINryI2xvU0RZW5BioAgiLsdPyWSrFZTUNyhMaWnBWDeDJi/mQLR0+52wW0h3fYupHhSTNFiU9j6LMxzF5Xqq7y9NMfrIZ0hNyJFnfU4C3ELydHRc1kvRw+A5Z4RmlJNu8Xxf2IapFt+1P/6v+sFBM+c7XoTywxMniU1IRhKw4cg9bwdcqRanx2PYcCpZTDNo11jXWuOhzN+lGlE/Tyfb1N82UvgTe/luCOmQpuFlCOYf2jqTRg9/lHc1CoO0qEV+GbiWLy5JFu/jXog6q9LpgZXoG2M3TXuNFav2FpihCrEdMKwxzti27tTsSjH1n8e/WcVdksd0ZR6YyG4Fdq3DMYPvzss0hQT6g16G58OSaMFvgLL3ul46PZXsPSUu05MDSHZDk989RHubUS7zlHgzcOzHsctzy7AGYdC+j2fJDuQZfpaf4TIrsjonaDFtziDpZkLcNR5MqEJM6XcindnPoaW+iM16Sia4oH/zsYDOg8/v3g0ujycCedACCwzMHmWqSLmJHQe/CRGDbkWjavr7GalKuSPrsUPUyfg9Z+2wl2oEatMIQoN2jRGnKrIV4qw54dRGPHBRhSY7XFddSpnOU6JMS0x8OHHMSyjHWqGaoGDne5Xik9g66Lv8NF/PsPcHT7uuJV6A56a+AxuaRHr4h76eOFhLP3kBYx+/y8crehHrHKUkZNWHQJ+H+N4fPfvfImqkt/fUTmqJ4/vZWHxPOTCzMHKUPfn+O5z3T+Pk6cKaOZgi9MrmE0I0ln3GdY2DZyH6BjGUcniGpYqNuSdEKzRp9WDAnSnj4TU8h5I7VqW4ju5jXaps5vcVYOSUNsJbQEp1sbCdFBdppH8mAGQepGLpg5E243kwtntBU1JRovB3P/BtHCxe+WW09PK/hRoNz2KeWRX/J37A+Kukx7v4ItMwH8EaPfIlhNg6Xe3jpJMfQo1gupdIPV/A1KSrxtTGCHTfyW2SiokK7mT9hUGKfXikj08gNpoXGppf3B+O1mg+bg6MTfDQ2+8hEGtE8nCwIRqyZ1x/6vjMcgew8nDU425JCCiURrq2HtWKQubttvNMkxoeNsTeDjjPjw7OB2aIzikfVuw/azWf4oRaJxW20lpehar330Gb6/OVz9LwFxvEF4Z0wcJOr23tUxCDK5+6hXc05CUZOqCd/fXGDV+IexW0bZyG5HPQJbpa20SEN87Az2ibS9PzluCmUvyLr4VpK/Z53RVnoAQ0Qr3f/AdPn6sL9J0lWTWTgTBiW1x+8tf4KvRV1MMRQ/FVk5g0StP4N0N+Tj+x0QMG7/Eqa/xcK+XS+FN78K0GV9i3B0dUMuNksya26BYNLv2Ibx4T9uSftWTaDHpekz8eAJua+mqJLPKC62FrsOn4csXe7rvZz09gK9dpgSMGON4fPfvfMmId+Rrdebx3VdSnM4YAn4f333NphCG2NjwEmMmOScbVluAMoeBbdPAeYjOd2pShkXXKi1aMblJFtiVYDVo98dUukZpkjvQwna9TXklU5ozpNAKVW9T71e/JO4py0faBdPc16HcORZyOKVJGwXpwDaYNxwsm069vwntltdSU7YVb4RpzjSI591bTzgJKPtTqE1ul6pbqHrQMjOL3C49xc3IXwDzzF1llXhBV0C6/i7Qhx8SsRfiwqlkTaeTn4Lt+llhmYHJU60NSYNh6dGNFM+qVpjqzIlFMC3/H8TD++lnNbreFVKnIZATW5Dy2Sc/F//LNKJ+yjsgbiCX7B5tqdwUoL/FrZDXTdS3Ig1qCjldTaceajyzme5dvbVU9v+JNTugU31brCf7OSG8Dbq0Cce3hxztp5xuNOyniFrJtUq+pCjnjuBwnl0JVgOdOjck6wUTanW8EvVNa7FD1QdacnD4KNUN694pdH9Kbfrv7rIWcUVZ+OzZSbhi+svoFWdCjevH4pWVWzDs+wNOlnMikq4fg/EZdWwBtQvW472n38YKF5MQI/IZyDJ9rFBiHfwro6PmOinh6IKfscxDNZWz52HiiCzY95KxPiW0A4ZNHox0VdMq7cEP417Hb8dcZiSQjm8j+2nXg2UGJk9rTTDVQcbkaXiiU6xtIwn5DHYu+Bqf/rgIa7JycFoKQUxKc3Trfx/uv6k5YkzhaHL7ZEzZfRse+Hafeyvdc5vwwSOD8Mu5Azjg4zDmWjPLnjHVuRmvf/gMesbZtHSKlIctv/4P0+csxbqdh3GC5qXB1ZOQ2rwj+gy8A/3baTuaexNMnyEa3/IAmgeLKDr4O/477XPMWb0HecW0g1fTqzDwwWEYRBs/mYRg1Lv5JTy/YhNGzjrq6sLs9Tmc4PIjYMQYR5R4fLdWFf/Mlwx6R75UZh7fXSjxPMQFCYyYg1mfYtT47loE1zPhV6BzuvpxXj0k2tzqH+xzsXcwuG0aMA9RS6OvKIuw7w5JKQoojpJdJyRSbCVapFmPmDQo5EUmqB5C8glSpqlE1Gs0qalmd3O0JS35r7opwHxy67yxHykOVKuxFyEdGQ7TMQfNVXR/clHTrM2UkxCXvABTZWJFxPeFXFNzd1PjqW32si1ZMe1quYf+HLMeEgmZGNgwkEvZ/qUQT7ouTJxKW/qTZQYmTyEJchdSsFrtT1Ul2fcwT38V4jl7gzoO5O+Def86SAPfg1RT3fXRy2GETCPqp6qUXj8JpvrvQ6pH/Un1/rBkFMO8+FPa/IPKbT2o+0noDqn7k5AS1TZKXHJod8zl67xAKL2sFJ7DOUXl6dhii1BwtiLxanx+rIeEIuIS40u/quQew3H7YGFugCYNbP2nqV5TpNHrJi8h6j9zcTSXEjWy9Z/VEuJRjYpz0l5NtKdJhzIx9vkrkDb1ZtQxqVZjE3DvhiH4eHtp/2lKHojxZG2WaFXq5+HPKc/iw62FOvk1Ip+BLFMHsc4pU6MbkZGuxY2TDmFO5iq4C1+n3q4UHMDqPw6UlRQZhUH24YdCI+xa8QcW73eZkeg83XaKZQYmT3VuVrP/aIzqZlOSKVI25r/0AJ6ZsbtMHTx+9CCy/lmChRvewFfPdydrsih0evjf6PPrk5ib59QpOdQy6fh+OJF1Wwe9XqBdlwc8/wx62JVkZzbh08dH4LWlx8oq66h/Pbx7E5b+8jU+6f0Inmst+WCdSdZywUGQDv6MJ+4ag98c/J6P5ezDpr9pgv+fL/B0x0iIYix6Db8b6fNfw1pPH1i9FogTXB4EjBjjbGR4fFenQv6YLxn3jrzVYR7feR7irY6o142Ygxk9vnsuF80t/nU7rtFCziiW3cjMXK+z76HxbdOv8xCt0DoG9bTCCiFLF/tRTMHp7XMjCvwK+gpnPUxJUCLst1Max0lEMAXE13WrVCDseg3m1TttMoLTyVLrQVIkaA8zNYR03UjNTZIW2tsmwLSxMlMvcvlq/q9SN9LcXyFm++lzZwkg/gcTcEMgpi+kFE35peRB/JPi+pUoyRzuKdoE05IZFOfPjRzH00bI9OGxFUoi7Ybp5weovVMMQ4k6hJq3wnLHHBSNmIviIZkoHr4ERXdPIkakWJcpFuKW1xA0Yxop390vxpzzoeQuwoxFxx2+9iso3puJGSv1lEPOdxvx24TIqFLzY6WgoGQRKkQmIomsadVDMNdAHas2iw6lAGccNj8RqkUh0k3/mbt4Ep7+LAsqIiGiDf496WG0tetXgxvj3olPoKvq1qfGJZvzEkbP2O/GCsSIfAayTF/qUjDa3HwjGmqvXdo1G5kbeDzyhRyn8QOBoJa4a0gXm3Ui9Q/7p4+m/qGskqz0KeexZ8Z4vLtCjTlCU/CY7rjtuiSbFZofsuJNRHCbu/Fgp0jbBwf6ELtowki86qwkKyOkEPt+exXD3liuMznXeZp8Cr+99SoW6AUHLNyBLyZ9gR3atxZTyg0Y0MHqLsFHwBMwYoyzQ1XA47s/5ktGviNPDYDHd090+JrBBC7i+C7E9sTjQ69EhHXdIiN3/vv4equescLFapuVY6+jKCOtlX3reVW25KABI8uqEgWYQH5C9rhfICCSwyrf7Byw3DGTFK9smRqvTHUKIaoJd8HSvTP9MwxKp5cg1VaVdDQ1y51eibhk2vOCaeOBJvaAssW0EJ/rmzKickz5biZABMiFuP5Vmssl/Syg2Hj7VPMhN8eRuRBVqyKPhxEyPT6w8heL95FV6KMw//ot7QirdpzU5YQkkHt2bdowRF18UFs/T26ai0ciiNxqhEJftIUO2ZKPYfboezDi7RmY/8fvmPP1ZNx/36tYoedzVvnS+CAhCCHB6p4vtkMpPl+yL4EYWd22K5x6SYhGbLQ9lQVFtHmBXT0oBAeDRLg5KJ7JO89g6pozlF5ASOPBmPR0V0SLYWg9bAIeaRNBZ7W4ZC8vgI5HnibXiHwGskw3r8vxdLVOyOhbSwviX4xNv8xClrcm74NYTsIEfCEQ1Ppf6Jts09Iq5//BZ/9dVWZzDxcZcjbmzVoF655L6nbvXToiym2/5HJ3JU6EoH2/a1G7RKH8Hd6dle2T66Mk+dag5JO/I9NDbEBp51zMsk/0yaqsU5dmeu4XlSgj31o1CRgxxjmS4PHdvo9TxedLRr8jNzWXx3c3YPj0hSBw0cZ31d1z3FjcUEMdsBVI2b/i5SnzcVzX3uEitc1KvgAdRZnTTEhxWLhSbJ3SgwKKW+MuaYdjOm/fHaWd1nhlojX2GcUvajkWlp70107dFZOOYrKwmVuJuGRWIZS3BjdCrqYV0bIWpm3O8dBsj+P/MgH/E6D2kdRQE0s9Rs46z3G3lL0QDp/wkg0jZHp5ZKUuUxtMJJfLu8h67F93UEg21dObWEhkgVpAG2pY1EUNpQlpDLnXJygaPAVSclz5n1i4Dws/eAGPDB2Ox175En/n+LZYKv+DfLhDECE67uApy6UWXaJYGqRfCEJQyZYwCmTHDw20KYFOx1z68KId+HTUJCzOpf5TULdEHoeJo8dh8n1NEEo4lYINeO8ZvbhkDvk3Ip+BLNNr1RAQ0yMDve2uZOdXY+Zsd9Z+XoVxAiZQTgImNOjYHknaFM6ycSGWuEbadZKp4NS2rThonQKSu2KjJtA8x8v57HImNzXCle3itD5Qwu6FC7Bd7+N0OcWWJier4y2rsd6Tz7N0AGvX5Wh9t4lilzXloP4V5n0Z3WjEGOeMh8d3G5GKzpcuxDtyfmfUP/L47gKFT1wwAhdpfBci0PaRNzC2R7x1vFbO78SXz47DPD1LbZXFRWmblX8JOjHKaEbiaNRhsvtF0sPOk3sUrXNtisJCCBa7ypAQmRxEKT7Mak7/QvHKWmvxyhIgt+5jK40al+x3ikuWowY/q8QhJEJuTpZq1oPyuW82hPxyWqtU4vF8a4ATEOKhRNl3sSTbnzxvLsQUxD7vEEFLcA/OCJnun1bJK6SxqfUAijPuhxKidqFUvoO0e+0ydSMDKqfaFFUr0qQukK98GFKDOgCZ70oDGkCZ9RDMO+1xzCqZjQt9O/V9xVLppxQhKKjEOkzOP42SLkgpxDmrqYZ6iAgKNpVYoUEq9uo+JB2aiTEUr+y7qf0pXlkiet7R1yaK4pItfZXikm3x4npqRD4DWaa3eiYm4bqbu2gutQrOLv8Z87wqKrwJ5etMwFcCYWjYOEVTPsk4dz4Sza7uhjQvtwtxpfEWxfhExKvTPB+md17Eer4cnoqGtbRPBcoZbN7otLGJ57t9uCrjxL79OFXaTevcI2HfbnWjFNsOxGLtFOtOxkd4CqnDKoBOGTHG6eDj8Z2miBWdL12gd1TmtfH4rlOL+dSFI3Axxnf6SN//Fbw1pBnC1A/00jEsnvgYXluRX+Id41L+i9E2XTJR/hP6irJiNW6K5j5posW+ajimTioKj9Ekif5hUqmQG1mJmxSldTQ2U+OaeT3UeGWvU/yipihu30hLrcYlmwjThv1e7/aaIOZ6SHU0RQUFPBY3/1G6EPV6MydgApUkIETS7nR2uyCaXasWVB4PqvsFpzymgBEyPT+x4lfNLSFde5+mJKPy73kV5kyKw+Zo7KWcg5D9G0yZqyH0/gSWlsnUj9SF3PtJyIefJYtTjyuZiufN0DuLUVBQTN2lLWC7EBxi70mhnMrBUTW4mOpXSX1S3mmtfLS7muquaT+scc28Fp3imSyZhGc+b47/3tsYIdY+WsKROePw7PcedqcreYoR+QxkmZ4rlaneDchopwXxp/hISzIX4YTXd+xZJl9lAj4TMMWhRoJZmwP9f3vXAR9F0fb/u3epJCGFJLQEEkrovQvSUVEQg6JYQUQRUBRQEUGUDvqioii2T31tvIpKkC5NighI7wSkJEASSAIEAklud79n73Yvl2SvJLkNJDfz+52S2dlnZv9TnplnnsIjqPMLWNDZ5bfNBTm62PCT702dyOCLR7VoaUNoFYSp7j/ItP58qvslc1cuX7G/mTc3ibTp0jPM2115aeaDQ8m8vWhbWY6nIaAHj9PCkPH3ku+XyqqP8vuN8XetMczyygyBMufvPCLICvDTKT1JS50YpJiFvZ+8iPE/n3JyyV/2c9MdfaDB+unAfsPmwO4Xku+XTDwL7rJy0hXTyOeQcr1G/nYkq78y2lncvJIfKdNhK6msWODkTIonJKQr9QGCzDkbkRN/uQPldH0D+NMO/EM5bCN7yBAoCQIkObbKPmhAy+PaWRKcHQj0oOmsUSV8HvMwhBBFDi8mwrDpt4JCMluyUgb4LV+AV534+3eF0Ig0zMplEnEl84pVKZezPWAJZ3BSiZcsmVJx4aKy9vEhCLOewiSYrlzO1zxzhAGZu5vyTAUUgAW65JAj9DpPerTTk2k6QtyIRv3vR2PF1Fa8tBZLNju4dXNEij1jCJQIAR/4ynbZpUlkUs7butsoDS1H78o+GtXnUg5ySmlcULQqWmNp3XSWpLxc66afI8sKo8Zu2RkN9ryiIaAHj7ODEePvJdwvlWEfmbuO8Xc7I5hllxkCZcnfOVRu/zIWzh2IGPOlfw5O/PQqRn2yH9ednj3Kem66pwM0NMpI+HWVNMdQ3VKDL5mCydpi8plOOgfuAvlRiqTol+mHwal+/rlQQInmJku5uKtpLrSOAI55Caa2tsr/BopSOQnCuSEwHjzvAg07RYytIDSspTwkwd+x5Y79Q9khw7IZAiVGgBYP83W0OdFYN6pmmA4oGm3MnLWK6UFTq55S5xkhRrfMFxRe/ht8hhO/YdnbzRFpxVryEYkE3VHNgX+cmauWuqE6EBCReiGNhFcWkx2ucgQi5K6X5aRCMvYdSIfYJBLiv4dwRFW85cIQEaYeYiliTEpqgSDC2o0knxhdXsXcYQ3Nas/mRD4ka94/FdN3DcboX5PtRLtUqenRTk+mqd1L5lzfNojvV0tRuhZwbtVSbHfkH8kBKfaIIVAyBMicO0/lRyYc/r9RmJCQ6pKDfGt94nWkXnO6Ey5Z82zfIsmYVTZGWmz+fqUnWZAC+VsjYZyzxNtqA+fdRA4zu3QGmQc814PHacHG+HvJ90tl1UdKvzH+rjWAWV6ZIlB2/N2/yTAs+GAIGvvLQjITzq2cjOdmbEK6S1uDMp6bbuoDjTsyEixlnMnX6uKjIYWodpV54I/+QZEjKXLl4bX5WmO+tchRt3paM9H7LphOBt0D010DLAEByAyJS/yb6BHSJHQTu0+DEO58I2MXg5h+EAOVTxNPgz+y325R9oAhoAsCUiZpZqo7axqL/iFOqqGIlv7BjsvoQdNxjSV8SiebIJtvuZ7qgpboVdL8tEregYBq+ZqsJWzFrXmNGMHJU7imKtt61UbdWvnr557lq5Bkuo7dCatxSpEdckExiA1X1isynzz9r3PTSUO1fpg6fSBqySZKZMq3a81fSJF9o1GEtu7k6H9YnDPBrB7t9GSa9kdbYOcHcLfqRV04jWW/73VBEGqfHnvCECg2AuS78BJdVlj2shy8cjNwIjERicX5nTyPq07uO4rdLo0XhIxUXFQvmfhw1KhWir2gBn35BickLNhxwBR6GhIeZg0AL2amI5MJyjTR9KxMPXhcUQQZf5cxyUPJ9ktl00dqrzH+XnT8spwyRqCM+LtX7YF456MX0SaIzit0VkndOAPD31iOZJf3BWU7N93VCxqCMiKddhC8ar/D1ySH2zaH/HMfwuvLgfDabSMMi2icb+YoJoNLdeJryRAL4e5XlIiUJJg78S6Mv0+EYZ+iQeLdDELfkeTfSBW+Fedzw0hj405Fm4W2hWkrwae53IvFqYiVZQg4QIAEP5dVv2QcpFASJjsobdaiCnVmbqgHTYeNKuFDWxNRImEbEMQRRYpyZE0U+dFVp4JcQAPEv/o+vl30A76aOxq9op0JiRw1ovTP8o4ewBHrQS8KTRuHWj8lZ/c8DLrrPjz33Wmrxpd3w6ZooEbAFJNw8NBlx2PFuy6enDURvczCNRGX1s7CuHHjMPF/Z8xKjFxAC4ye+yLaBTpeP/VopyfT1Bw5FICjd3w3hJiHNkXbO/I7lh5l/EgTK5apHwLkFP/kiRRFg4xHzbh6SmAJ/aosMeUb/yLxrHrT4I+mLeKIO7oz8QiuHYNQ7d2vUpEBteuoWqCkDJx0Gkls2rqzE8otLT14XAEwGH8v9X5J9z5SO4zx93I7jytUw8uAvxuq9sG0hZPRM4ICj5GQLGXDdDw97iecLKZrhDKbm27sYO2tQvY/4FT/OfCCWK+LzcGNfDuYTTPV5A2xTqd87Y9rO8FdcrSj8IfUcTqEKHJ2LlO9ugyGP1YS8ORwf9NbMKTJqNMBr8pgmHp0c3xg1AKich8I0f7KkzzSfFvtor80LWIsjyFQUgRM4C8cVV6m8RzZCpKji3G+HqQalZ1UpgdNJ1WW6DHZFN6wWT2DKZKlqlRljx5HAvkQG4BupLughUbE+GqIn/sFZgzpjXbNmqPTfSMw/8uJuNOJkMheM9yRL2XswF/HVHUxL7Tq1RXhVpmVCZfJNDM/ToEPWnTvbD20Cal/Y2uio/WzElqOnIOX2gaSzoNEZuoJmDx1GS4IV7F13hv44thNyuXgU/cJzJnYE1UcyMr0aKcn09QaO3yNexDfsZJl4y/lYk/CCpx21L1aRFgeQ6DUCJhwdNsOpJvlTxxZA/dBd6u5d6mJu5eAcBLbdqYpFwlkTt7rHrT0dW8VxkZt0TrAweJIl7ntWltC3st+R84ePIxMxzdd7m0go3bbIqAHj8v/WMbf3bFf0reP8nuL8ffbdpp6WMP05e98WGdMXDgLA6K9LEKy9VMxlIRkJ0oQ2Kes5qY7B4C2oExKJhPLQ0o9tJmIeghipJ1TfqWeEOPIZ5k5kXbY8dXg7R4EiFbsWPJLpkS5JDMUw6p54NUQb3n7YVj5Kfk+k3ck5K+s4UQIzZxp2djCQUfHRv0gqRGT8nbCcPyCbQH2b4ZAGSFAY/jMFvKNp+yufe8ggTL58rOXovpDtJo42yukB017dZUmn8yvUxLzCfh1oW93YlYaeQ/EcFWaJtD7R1wScPPh3XD/HSE2ZjQcDNXvxv0dbqFWmZCENSsPwBKbgA6l7QbjkYba6ycf3huP3x1p9V+VvHoF9qgWqEW6gENoN9kvWRxkv9xS3il8P2kONqjhE7P3YsGEj7Fb9iNE/sqq95uCGQ9GFQhIXICkHu30ZJpF+suAuv0HoKUS0VS6sR1LVp8vnl+oIjRZBkOgZAjc3LkEyxS1KC6gC0aM6IAgB7KigrXwMGjvFkvWGIdv5WH30hVQ4p7AUDMeLz9aL9/Bv4N3vX2019nCr3ABnTGQ1l17n+TTrB/61lH4kXAeWzYdd+LzsXAN7O8Ki4AePM4MFuPvZiG+O/ZLuvWR7ahm/L3CzvFy+GF68Xeuclu8/Mk8PFbf1ywku7hpJp4Zvxj/FlOTzAppmcxN93agnX0CCbwO/wg+W1F/N9SD0Ps5SIWjJhlrQ+z1AkQ14mXuLvB7D9pvYdB95Jesv8UvGcUY53aQBlnStYLlL30P45/bLNokXAjErlMhmL1hu5AMTSE2qqsUpLafWgbeeRgGFwizIgyBEiBwbR34k4r5JRcIsfNY8p2noVrl1wFCdxLwunJo0YNmCT7N8SuyOfWqfCGhPI+7vQmxiqrpWehtOrQIdz2qrAv0jDQK+CNHHFehPvX2Ip3XwskIby8NnAsX0+1v0kBI+BZrMyzrJ+cdh6FvjUa7yoU62CcGA98ci56KDZB0/R98s2i/3fDKhhr3Y9q0eETL0Xylmzj8+UTM214wemLu8a8x4d0tFn865K+s66uzMbyhPXUMPdrpyTQLDShyIRDfv57i50jE1c0JWOuax1PdRiYj7MEI5O7HVwvW4ZK8LJEgvdbDc/HB8JaKWbAdXAyBiOn8KCZ9vhhTuromhLJDqVjZpoPf4uP1GRahMuePVi/Ox8wBsbDr158PRP0Bb+PL8R1cEqiBq4ROoydhYK2i3IMLbIlREwejtpmFSMg9+hsW73MhanWxvpAVLr8I6MHjSDWA8XfzkHDPfkmfPiowZhl/L79TuCK2XA/+7tcYz340H880ka0iRGRufw/PjV2ExJIKycy4l8HcdHP/2nf9cGM9DFv/JkFYJ1q56GAW+STyHqsHw54V4DKvA4GNIDYfBDFCNRcjB/873oPhiiJcK9xQQ10I94yDaI6OSRoPyQth3K5qrdkWJm2SA9NgjP4GJllTzbsp+SsbBe7H98BbVDQKU87/O5q0ciorsj9yfM4f2mq/LHvCENAdgSvgt30NLvYlMrukORR0F0yDQ2HY8ROZZSaRAmYlSFVJ24pu0MRgmoo3syhCnmyS7CjpQdNRfSV8lkUm1TsGQLyjkYVAwJ0wPUrC98MJ4M+QEOwG6ex6R0Cq3hVis56Q/FTBFplL738fBqvpt+P6xfN/489jOWjZxMfq10LM2o6Nu25tWEEpcy3e+3Ar7nizC4J5Dv5NnsZnP9XHou9+x47T1+BTrSl6PjwYfRsEWzS+pGzs/XwOfk6ycJtl+wAAIABJREFUs35618eQWRPQM8yyfmbt+hCvfXoARb+SmNDiNzG1/SK8ew9pqlVqjlFzx2DPo3OxPauo7ZDb20nd5ck0bUerf/sHcG9NZVyLGVi7ZBOuFO0CxwOcPWUIuA0BEWnLZ2By+zjMj68FL0MoOo35Biv6/IFfl6zD34dPI+VKHrwDgxFWrQ6atemAzt06o3lVP9K8uo7fF9lviH+fmVg+uXMhIZU3Aq2yNSNavbQYm58vOAFyt83GgNdWFJ0X0kUsnzENdzZ+B/2qG+nwHI1+M35Gy34J+Gn5FuxNPIeMHB6VgiNQu0l79Li3P3rRWnptyXr7jbQ+EZF19Tr8w7rh7e++QuPP/4sVu04h0+SPyAad8OCwIbirLt2eU3lJOIdfP/gBJ+xaSbhQHStS4RBwO49j/N29+yV57rp7D1ZoFDP+XuGmdTn/IPfz94Aez+L5VkEWzWsKtujbaCg+WzPUNZzyDmHBk6PwQ3LRM41ec9Pt+xDlS+0LymQzyv1vwRj6EUyt61Nx2jYEdyLNFxKcFUm54A6RcGvH8SJPLBkkELiDIlnWDLD8eeMvGFf9AM7e5oM2Sfy66eAj51kECGGPQOi5F9zK9Q7MsSqTE//u+Vo5WaTNc5Z8JbHEELiVCGQsgnFtI9Kk7GMJeBHYjsYy/Qq0iQ4PWetJk/ICCYUfJ80qJw3Wg6aTKov/mNaEHa/AGPAeTM3l9YOSVw0Sro+knz1qpGV6ZCbhsMNegaL5wnF8OfYVBLwxGve3iIApaRt+eHcmfkstujgXfVnPHAFJP0/EuNjPMf+JBqhElw1+UV0w9HX6Fa5WysHpJZMx9stj2tEQuQC0fmEOxrQONB/exMzNmPvGt0i0p+QgpmHltCno0OQjDIoi7brYxzB78m4MmvAHLhaBxY3ttH6XJ9NUQOCC0X1gb1RR5rKQsgZL/mb8qPDQZ3+XMQLSJax/+xmMzSENrUcaIpCCpoQ2uhvPyD9HTXEi4OW8AxEWFgb7uv8UaTMgFFWULaBaVW5lX7vmj2LaGrwx3A/ih5Nxf6wf3df6ombHhzGWftrJSSPVl2i93fbeRJwf/A6eqt8SgyfQT4ugeBV7PiZT960FtXa1irI8T0PAjTyO8XcaPG7E0zoU9aCpEGf83dMmfPn4Xrfydw7evr6QDVjMibTQ/YLC7Gt1F0bIVBl+pCSgnfSZm3rsQ+T2OzmSZ4Df+Cy8Vv0ELkvLcQ5tTLIPg18/Al6r/7AjxKKIf3XGkbBNMYmU0ixCMHuaZyqqqjDNHD2OfI81kP2VRWtjLucGkK+0GFUbh7TSji4HT3EHWGII3FoEaCweeRPG3z4Fn6l1UCYNqmQSpv08GXzSWTtzqPAX6EGzcB1u+FtMBb92GLwSPgOfmuGAIE3UixtgWP4UvFaQxqo9AbodCnnJ6/Du8w+gS8c70H3QeHy+QzHZsVO+zLKlDGyZMwSPTvoBO1JyNAKTUBTEjIP4ZebTeGTyKpzX/G4OYd0mYO6QejAHARZSsXL6FCx2EoJNurwZc17/L6lI0/op+yvrOwWzHsqP4lYAA7e0sxCqnkyToOAj+iC+ixxwQU4Czixfit2lUlcvs1HLKqroCJjOY830x9D/2blY/M953FAjnBf5bgoWci0Ze//4DrNfGorZm7X2gEVecmtG7qkETBj0EF5csBKH0nM11lC5Ogmmq6ew5ceZeOHDv7UvG2xbRRcJZ49uwpxhI/D++jPILvL9RC99H36c9BSeWbgPzHuHW7u04hBzC49j/N06INyCZ6HhpQdNqoLx94ozjSvcl5QX/q7T3NSjP7k69eNcu4bjK5OZVGtI4RSdzocU0XIzwKUfpEP+iWIfbPX4EEaTIXDbI0B+yqQabSBFRJEppmxqmQLuwk4SItlGkS3mV+hBs5hNcK04maBVbgixWl1IgRTUwEgiBNM1EsAngUs9QObcV10jU15LGYMR27INWtaPRnigF4Tr6Ug+sR87dx3HpbI/f9pHUY92ejJN+0izJwyB2wAB0nSNqI/mzRsgtkY4KpMJvOnmdWSlX8DpE8dwJDEZZI15eyTylxbVqBma1K+NaqEBFNAkF9cuX8TZxEPYd4hMJ0u0jhoQFNMKHVs3RC3yocndzMR5Wpe37zyKNGeuPm4PVFgrbgcE9OBxenyXHu30ZJp69BGjyRBwGwLlhL/rsYa4DUPSNXBZUObGShkphgBDgCHAEGAIMAQYAgwBhgBDgCHAEGAIMAQYAgwBhsDthoAT08vbrbmsPQwBhgBDgCHAEGAIMAQYAgwBhgBDgCHAEGAIMAQYAgwBfRBggjJ9cGVUGQIMAYYAQ4AhwBBgCDAEGAIMAYYAQ4AhwBBgCDAEyhkCTFBWzjqMNZchwBBgCDAEGAIMAYYAQ4AhwBBgCDAEGAIMAYYAQ0AfBJigTB9cGVWGAEOAIcAQYAgwBBgCDAGGAEOAIcAQYAgwBBgCDIFyhgATlJWzDmPNZQgwBBgCDAGGAEOAIcAQYAgwBBgCDAGGAEOAIcAQ0AcBJijTB1dGlSHAEGAIMAQYAgwBhgBDgCHAEGAIMAQYAgwBhgBDoJwhwARl5azDWHMZAgwBhgBDgCHAEGAIMAQYAgwBhgBDgCHAEGAIMAT0QYAJyvTBlVFlCDAEGAIMAYYAQ4AhwBBgCDAEGAIMAYYAQ4AhwBAoZwgwQVk56zDWXIYAQ4AhwBBgCDAEGAIMAYYAQ4AhwBBgCDAEGAIMAX0QYIIyfXBlVBkCDAGGAEOAIcAQYAgwBBgCDAGGAEOAIcAQYAgwBMoZAkxQVs46jDWXIcAQYAgwBBgCDAGGAEOAIcAQYAgwBBgCDAGGAENAHwSYoEwfXBlVhgBDgCHAEGAIMAQYAgwBhgBDgCHAEGAIMAQYAgyBcoYAE5SVsw5jzWUIMAQYAgwBhgBDgCHAEGAIMAQYAgwBhgBDgCHAENAHAaM+ZCswVUMIpOg7IFaLBfwDIPGG/I+9mADjnv3F/3hG0zPxLDxSIuNhat7Yknt1PQzbt4KTChdifzMEGAIMAQUBr1DEdeiCjs3qomaVQPgaeHCc5Vne0V8x+/u9uFlcsBhNz8SzuOOElWcIMAQYAgwB/RBgvNgzebEe/a7fKK3wlF0TlBkiIDV6EEL9jpDCoyD5eAF56eAuHQSf+Dv4g9vA5ZU1Vjykuk9CrOpfwooFcKd+BH/uqovv0+mj2qMw9R0BMdhP+52Tu4FiCcoYTc/EU3v4IKgtxKa9LQ9Tz5kFZbckuX2+GyFFdofYuAekGg0gBYVB8qKlx3QN3NXT4C7sAH94Kc3FtFvyubpX6h2JNv0exkN3d0aruGiEB3pBuJ6Oc4n7sXXtb/jx1604e0P3VjivQI92egxNA2r1HIoBTfyhyKmc412ghIgLm7/FT7uvwDXZOIeg5k9i5pwX0CvaT7POnA27MK9YgjJG0zPxLOZQ1SjO+Uaicceu6HZHW7Ro3AB1aoYhuJIPxJtXkZl6Bkf278a2DSuwbPMJXBU0CLiYZYzqhqcGNEOg2RZCQNKGb/Dr/msuzhm1EiPCGvfCAwN6o0urRqhTowqCfA0Qc64h/fwpHNm3DeuW/oYVu1OR42K7WDEPRkAPHqcHnHq002NoMv6uPSTZnuH23zNo91xxcvXg726nyfkivG5TtGrZAs0aN0SDOrURHVUVoYG+MJiykZWZilNH9mPXX+uwdOVfOJUlugyBc0FZaF+Y+r0GsUqlgkSN1SFFVYcQ1RtCqw0wLHsbhtTrLldc+oIGSLGPQWgaUkJSeeBuLnddUBbUD6YHxkD0c6O1KqPpmXiWcMSWyWvunu/e9SH2nAZTQ9LAVFVd1A8xhJLgXf61gthsCLjEhTCu+Z7mpWuigjLBo5SV+Mb0x5vvvYEH6gegwMrhUwNx7eXf3Xj0ybV45+VJ+P5wcQ98pWyczet6tNOzaPKI6voURjwYWrCfXe6iPOy5moCfXRSU8dUHYM6C8egR6j5+xGh6Jp4uD1GNglxgI8SPGo1nHuiMmEBDUYGtry8CgiMQFdcWfR58Bi8f/x3vvjEbPx3OKqZwi9hHWFdM+uQ9PBLrrdSTh+0XF+O3YgjKuEpxeGjSHLzWry4C+EIibW8f1IwLo18b9H5oOEau+xCvTv4Ge65UHH6k0YUsqxQI6MHjStEcu6/q0U7Posn4u9bgYnuG23/PoNVvrubpwd/1oAn4oNecP/HRvQFFjpmWb/WBX0AIIqIaoH2fh/DcmEP4+Z1JmJOQiGwX2LtjQVlgH5gGToEYpJoXkgTuxjlwV0ggFhANKUDW5qLNRnAPCAPpVnvRy+AzTK72wa0tJ6WDT3NVg8ULUqunFaEOoZq1BYa1n5CQ7Qxp0tl8r+S6hBJgNC1CR0/D89YOe4e1u3u+G2Ig9FsAobaNMNuUCe5iIrhsMgjzqUaaZnVIu0w+7PtCqjcGeUFB8PrpE3C5LqxeDj/m1j/kq/bFzC+mo2815QBJ68PNzGScOn8NPhG1UCu8EgwkPPSly4Y3PvOH+ORI/PBv2a+ferTTk2mWaOQJl3D4cBpc4yBeaP74c+hqFpJJEFI2Yf7UD/DbrjNIz87LF0DQeHNdeYfR9Ew8SzRarS/x1XtgyGNdEWvjgcL8UBKQe+MGBG9/+BrJHFjO4wwIihuAt76KReSI4fhwTzEuBio1xfPz5+Bhq5CsBO32isWj73+BSXfkC7OlnAycOnoMZzJy4BVUHfUa1kGEP63XdDsd3Ws8vqwahGee/hC7r5V/flQCxNgrDhDQg8c5qK7Ej/RopyfTLFFHMP7uImxsH+LefYiLsNsppgd/14OmLIfy8vYqIiSTRBNysm/AZPSDv48RlrsxDoaQJnhk+jeoEz4cwz8/BGcGPfYFZVwEaYKQJpkqJBPPg//zDRj2HgAn7+Y58s8VNwqm3g9C8qZtkF8HmPoMpkPut5bndoB3XzaZTh6aB+MFHxdJkqlm7DAIdSMt5TPXgE/Ode1dPgZirWpK2Rvgt0yF4d9M1961V4rR9Ew87Y2HW53v9vlO863ZazZCMtLgTPwAxrWLSUhmIwzyiYXYmTTOWsQRArSORD4JU/vN8Np84FYjUrr6+UgMmPwG7lGEZJLpHNbMfQVTF+3DJfnz+UDUu2cM5r71CBpV4sCHdsIrU5/A9qe+wknXpRula6P8th7t9EiaAhKXzMHk/b5FtWo0e4lDZLcRGNmjKmQZg3B2BRJ2uWjoZYhFl07Vze9BysafH0zCpxsziq2hU6BZjKZn4qk5NkuQSULZ68k7sTJhBdb/tRN7jiYj4yYtZLwfIht1xgPPjMGI3jHwoyWeD2yKEbNfxq4Hp2NrlgsCKGMtPDhnPka3CCyhtqb8PaQRMmgyxnVShGRSHpL+eJfW3EXYY3O5ywfWQd+X5uDtRxoigC4xKjUehmnP/on4efuYGWYJhkWFfUUPHqcHWHq00yNpMv5eZHiyPcPtv2co0mklzNCDv7udpoQbF/Zhy6Zt2L5zF/YdTcTJMxdx3XyeMsAvvA7a9n4YI0c+hBahdBnGV0ab0bMx+p+H8M4ex5587QvKqj8OIbaygmoOuL/Gwbg7MR9lifwLHX0HRgST367ekGSzqupPQqhDDu0TXfX7VcJOM78mgju3kn4u0uBIu6V5qFLYRG1f4bpAjycz0yDFxEVMJo2YKy5W6qAYo2kBx9PwdDAkbukjd893vg75W2upfBIdhi59B+OKReAKK0zl/At+/SswhC6CEC1rqJI/s8b3Q9x2AHzhsrcUoOJV7tNiCEbcGWw52Ek3se+j0Rj/3XFYRfNiFhKXz8SzUgiWzL0bVeiqw7/F0xjZ81eMX+Oqn6ritUmrtB7t9EyaIlJ3L8NiclPpUqJN5ohBYcrB34Tjy5fhoKvj3VgT0TXy+dGho24YL4ympduIH3kUni4NVkeFBFw5tgLvLfgY3/15CtcKq0SKN5B68A8sfHk7do//Bl8MqQ8f2isaag7AyAe+xrb/JjnWouTC0O2NBZjSPYK0b0kubMqDYPCCsZDVpKMWmp8Z6mLAg61BdxKUJJgSv8bYCd9hf6H9sZh1EstmvoTKMb9hcgfyN8gZETsgHu0+3ofNjvfSTpvAClQcBPTgcXqgo0c7PZMm4+9FxifbM1gguZ33DEU6rbgZevB3PWjm4q9ZfdExLRU3NO/eBNy4eBybfpiG7TuS8MUP49EugAPnFYNBT/XAZ3tXwJGHBTsOTsgMqOndJPxSQL26DAZbIZkVaxJWHfsY/AXl+McFk6+hnqW72S5uP7pavup9EMMpCIGchEPgj/zr6pvmW1FFZ4/eoVt/dwQuYDQV/D0MT9dHXRmW1GG++zSCZPWfRNqfh38vKiRTv1C6AMOhf/K/14/eDSlsy1OGcJS6Kn90GngfopRPEFISMP9bGyGZlb6Ii6s/wJf7ci1rJh+Cng/2RnhxD4Elbq8e7fRkmq53hLHxAAxoSKri9IqUewAJv59w3UzSi9TIVUkBCWHJwq30idG0YOhpeJZy5Agnv8TTg17Bwg0aQjJb2tJV7PjkfSy7pEjSOB8079EFkXZ2oJZXK6HZiPl496EYyEYLkpCKtTM+wkYXDQFsq+cqN0XzGLUyAYd+X4JD9gRfwjksW7IdqqtMPoTerVWe+VEpO5m9XggBPXicHiDr0U5Ppul6HzH+7jpWBUqyfYgFDnftQ0rYDeprevB3PWjKilNXUu0JyQqCkHPiR3y8LE3Zb3MIaN0OTeyrjJlf1n5sbA6xdrBCnYRhx8npvT3hkHSOhE77IFRvS+VpN1OjGyT/JWReZSvWI/9DlavQY/OxALiZSg677RG0+Sgfirbpp5pW3iTfaBfNrxc/+UJscg8k8z6JCCTR91wpfPWpUCWTKClI/XYlzzvM/GmW5A0E1SQqGg2RI4Fezy7aPEazICaegmfhkWCoAimmC0VqjYHkS4fknIsU8ZEixp46Aq405nbGcEjR7SBGxAD+ZBJNIWi566T5mLILXNIJ57TdPt/pw30rW7RMzRjkgstMKYyGzd80ly4ngaP/mYXzXCD5Lyu+tIjjaYKLotbMdFC3Do98WqJHF0WbjJbj5FVLscOeMENIxsrle/BSi/ZmTQvfNj3RJeQX/JJhs76Qv5ywGuGK82kJuVdScOGK8/XTGBiJ6iE+lqWLGG/6+TRcsx1n7m6nDKUn03R5KPmiffx9iLbYTuLmzgSsOGeHHxkDUbVaSMHp4F8F/jb8KKR6FGpp6OWI2Zdw7lJ20SeMpmfiqTE+OdpjNerQEa0bxaJ6aAB8aaOXdTEJiQd2YuuO40h3tsyYcvO1ZDXoF8i6tgvb6FIgvpdsnkzm5tGxiKIl+4Lm0Dei1sDZWDCyuSXCJWng7v14DF5dUg2zJjirqOhzPrAy0VEmjZSDs6fPOxBMS7iedBYXqV2WORqIyoHF50dFW8FyKgQC7uZxjL+7d78kDzJ391GxBi7j77ZwsX1IGe3BNMbobcnfddszaACgmZWL44fli+lIs+ksHxiBSHlD7UClTFtQFtaSBFTK7RvdBHJnj+ZX59cOQpe2ZIpJzuzNevYkSEveTWaMbS2CKGMTEgR4gf/X9tqPaDWbi7x29ak8HQAzF8P4w1zwjqLbebeC8MhHEKqQYIo+iTvyOowr1+fLqzQBsJPp0wliPRLUmdN18IeJjoacy/w4eCBMT41WhGrKK7b/4+MgPPSr9ibr5BR4L1le9CVG0zPxtI4Eb0h1n4PQYzDEQHk826bnaYJuhWE1RY0tOnIc5/DkR7DNSxDakhYnhbcvmmiQX9sHfiuZSB88VvSxmuP2+U6Ec7Isgi+1DmfnDNuImBIFCymGM3/f2PsxcfpLuL9ZGIRz2/HDrMl4b2OK9hy1j4LbnhjqtEarEGX9FK9i1/YjViVULqQjnh/bHkc/mo/1qZb1M+2fnfhXaI+GtBpz3s3Qtqk3fvnTxl+VZEDtQR/gq2FxdMAns6HTi/Dc4BnY4mBh5wLaYNx3n2NoPYoQR461zy8bi4deX4trNl/p9nYSbU+m6eoA4gK7IL53uOLf4hq2JKxFmqawgPCMfhgfLXkZTbU5NV11NcTw/1uO4RqV52yYiM6jElDYEQKj6Zl4Fhgixkh0GjIeE4bdhfqVNaJV0j4tN20Pfpk/E//57QhccSWmMQQLZeXg8pVsomzx48cZDfCyxxe4INRpWR9hsnBLysWpXyZg9KcHkG1UfcU6r822hJh11cYslMR0tvxGixQ9z1d2u4Ys5sxfCyWPzHM7j2P83b37JRqVbu+jYox0xt8LgsX2IWWzByuA+u3O312eT8XYM7hMk9YHQ/55WRLzkOPkvJm/F7BWQhuTsLr5gg2RNFLM3qflRA66m4+B0PQpCG2a5jfr8lGKUqeq1FeCFF6jUJOzSbA2GYZk+ZhG9EMGQuhJh3t7myTyeyZ2naIIyeiwn/4/GNZtsC/cKlRbwT85iqZHPo9Uwd+NTeBPXnb4BnvIEHAfAhTdtOlMmPo9qSEkk2uhSVC5M4QB8yBEuhqYgl7zbgIh/luYuvSxIyRTaAe0gHjX58jrcYed+abHfKe6b5KW3GVVfYkEhWFRDiClORoWm9++nGOkgeaiip2xEZ6b9zYGtYggbQgDKkV1wjPvTMcg1YeTg1r1eUSqvPXiUFNdWYVEHDymqmUYUPeRcRgV/zReH9Kc4t5aknDmMI5dV9ZPPgD142oUEppex66PXsMHu7LkawkYaw/CjEl9EK6xepspciG485UZeKouCcnkA++/32PC9HVQrZ4sterRTk+m6epo4lCldzy6B1s6T8zciCUbM2+9FqSrzWflyj0CXEAzPPPpT/ji5b6I0xSSmRcReEe0wuBp/8V3E+8kH4pu+GzOD6Gh5PdLISWmpsB8V6CVpAysnzEOH+3PwqVNs/D89I2F1i+tl+znSVcOY/9Zhadw3qhTL9rBxRSH4Lp1reurePUIDp52kR/ZbwJ7UiEQ0IPHMf7u3v2SHn3k6uBl/N1VpFg5fRAoF/zd1U8vzp7BZZqBaNm2gdWcUjxzDCecuHPQuKcmYVhw9fwq88hMMlsVglWl6I+x9IzKRLWjg+0+i/BKpDLyjZuv/Jr8vnzrd6pgs4WTMKz8D6THJkP0pzJxEyAkHYVxf3Khz6NnDShaXlNF2JZ3AIYVC8Dn2FMBc4IOV4PMLmWzUDnRMTORzC4dgZK1FsYlJwsKFbxaQ7jncdDFD5E4DX7dfNKm02hPth2tHUbTM/GUh1zkEJi6dyXBs3w8oDGTsR6Gbf8Df/4s/VmJnneB0HEYmU2S4KuNMzsXyyiGPKb7kmCtlhKcgjSwuBMkTD6wEVx6Go1R0loLbgSxMQXXaNyQzjz+kFpMg5AxBMa9VG+BpNN8F4+D308m2d1bUW3koL/JwxD3ztLWIvVqCLG5XE5Osj+zJfZNvQs2Hny1dugYY/H1pD7i/Fuic0t//HjOVn+q0Iu6/cmjelR1q6aEdOMCzmeqQrCq6NipLjmiNqB6+w6IMezBcfn8ZUrF+TQaG+bYKfR+dA36778FNeJyE/H167PRetE09AwzoOo9kzFjx2E8/3NSIc05HpH3TML0+JoW59fZ+/Dxqx9gexGVED3a6ck0XRxQfE3cG99eMZ0UkLZ2KbY6GKZiymrMGp0INZaMuRbfdnh+zhA0lyWtwin8MvU/+EO2EyuUhEtHSX+6aGI0PRNP80gw1ET8nAUY11GJ/ihew4m13+OrX9djd2Iqrgo+CIlujK4DnsYz9zdGiMEfDQbPwdx/H8HwH8+UTkvXvzU6NZeF93ISKPjFPzjjSP504yA+fWEQfr+RhCQXWWPR0a7kCMew5Oc9GDKhDc09I+oPeAydvn8bm69q7ON8G+Oxh9uY/aKRYzQkLf0Ff9nzZ2a3QvagYiKgB48jpBh/Nw8X9+yXdOojVwY04+9FUGL7kCKQQI89mLmW8sTfi8JSNKe4e4aiFArl0Nmpx3iM7VPZGmhtL0XqPuFoH0IUtAVlAWp0SCqRTX6U1L0ET76V6JBmTiFxkOg8zskWQmIGCdPkmswWn0Al1czRUtT6XzkowBoy6+zfjwQHstbYWxAujIThoo3kKngAmagp2mbSZfAbp8CQZmOGVIik0z+r9IVYTTF3k/2pHXISliyPfDudop8tYZ9AiISBBQYyKTu7BfzlogcTu21hND0TTy4SYmcSsJrtS2Qh2c8wLnoHvDUsxyUg6wyMZ/dCePBjCNXkqI/OEgm2mrwCU6wyR0lIza8dDeOBUwVfvHaeNDhJe/LCbJh63UmCyiCInZ6HeGyiTf3yK0RPl/lOQul9s2GIWQihNrW18gCY4vNg3PAVtYm+25xo+QnvBqHbeAgR8hwljFIpOua2vcpz5/+Tbt6gKCfyzLSdsbnIvu5qCEHndRSvBI+wiCr5WhPpF3FJXYSNddCgjmX9NNRuiDjq7uNZRF1MR1o6FapnWT8rhVcxR2e7XOgMJ5xLwOQ3WyNu/gOoaZC1xmZi6P5h+OJY/vppiHoQ00nbLMIs1M/E5rmv47MjWqc8PdrpyTRdGyWGev0R31zxG0dOw1ck7IQ993UyRSk7Cbs2JRUkHhiEQSr7IdcIJ7dvwgZVW8aFZjCanomnvNZXGzARE7pahGSSkII1bw/Ha4v/LTAGL6UlI/GfjVi3fx6+e7MbaZMFoeOoF9Fn1XiszCy0KLkw3ixFqO57B6OXYpIumf5FQsI+p3GRhEtnUai3XK6xYEEBZxZNxbtdvsIbd4TBEDUQ//k0F7NmfY4VBy7Ccg9rpG1tTwx97XU808CijZt95GtM+ng3tFbQEjaEvVauEdCDx1kAYfxd3gq5Y7+kXx85G7qMvzuRONgAyPYh7t2HlEf+7ng+lWzPYKFphF+gn2K1Y4B3pRBUq9sMXWgP8sR9TRBqDqEtIP2veZjyw2mnF4AaCvV0wvIhTRc15ZFzenVvRI5f4a28YoikA7Z7BKzQAAAfW0lEQVT6OpWx1dLyJof4BSRNKjEJ3Ml3Ydx1wpLh3Zw0tZ4lQYLynEJ4C3ePUcwk6aB9dCZpyZRmm0QmX43vzTcjTV8FPqW0V5OOu5Y9ZQhYEQjpCyFaEX5JmeA3k18/rdi1uQdh2LiY/Py5gJ2hMcS2HRW5EGlf7XurqJDMSoac6B+YC8NZJcCE350Q42gOF0g6znfhXxiWDqf5Tj4MBVoQqj0M06MrkDt6JfKGJSBv5EbkPjmbMCLBOvny4g6/C6/FC0j47vphTEpfj8XrL9k4LJeQdzoBi3fcqqONAYFB+eZFUna29RDKmZ1GWtZMzlgVNc3SLEpSNq7ZBD/hKgVB23e0hPQNs/Hq14nmgx0X0BIvzh6FVqp81bs+hs4ahy6yWZ/sl2zF25i4+KwdJqBHOz2ZZqFppfmnN1o+0B91lW4XTi5Hwn7GjzShYpnuR8CrKR4f1tminUjrw9lFE2l9KCgky680B6cWT8dH22WfYrQFD+mGR+6OtNzClqBlXGgPjB3RARSRnZKI9DUL8f2RMr7MyDuJ7198CuO/3YnUXA6Vmz+G2T+uxz9/b8C61aux8a/t2PrrPDzXIRy8eAVHl87CkGHvY0cRbdwSAMBeqSAI6MHjVGgYf3fPfknPPnI0jBl/d4QOe6YzAhWMv5dqzxB4D+Zt+hs7t8u/rdi6fhkWfzYTY+5vSkIy2oFcP431C8fg4dHfI9GRhaHSZRqCMpJaqaHn5UKCDRXSrLIKwDiyE1L9foE2PILNKd9Y2GG57QAhf2VbZX9lslEI7ZrCH4epWyf6px+kjm9DqCEL6Whrlr6oFH7JlPq8KfBAA9X5K0UCPLzSNWGEzuOZkfcEBEhTK4b8gqmRtrJJu+uMrD5kJ11YCV7WKnKWqt0NMVg5aZt2w/DPLsdvSKRxdkTVovSGWLtNofI6z/e8M6QV+hKMq36kSJzywYiWHB+K0hlcgwKGyLbaNNdzyExzwxh4rfofRcN1RVpo8wniRSyf+BRGf7AYazb9iRXfz8EzT7+D7Vo2Z46RctNTL/iQzY56TyDl5VjjElgirynVcMEIDVZLmZBLziRV8SDn7W0x+9FsEfkz+fA1zN99jcpz8Kk/BLNf7YJg3g8tnp+JF1oGUK7il2zaWnPkNu2kRzs9maY2ygVyK3VEfN/qihP/PBz8fRkSXZjyLlBmRRgCThHwanEv+kZZeIeU8w++/r+dBYJ7FCEgpmD1sp0wx1zifNC8c3sEaV6AFnmzYIZsDjJ1Mu6rKtctQUhZhWlz1+CS6/chTiooxuObp7Bizkg8/ca3+Id870ocD2+6wKgZVRPVgn3JXF2CmEVmmjOfx5A3vsc+e9HRi1ElK1qRENCDx9niw/i76le75PslvfvIznhm/N0OMCy7LBCoUPxdtz0D7T8u7cY3b72E1xZsQJKLxooagrJCOyHJ5qRFvnXyEzkpV4UAcqZtOWf3jsIJs78y3uz7jPwXNZ0MUw/6tZGjYlLKIw2blaXwS2YmQt9Rpz/ESsonmvbAcLSwPzRLdey/DAH3I0DzI7KuQpZOBKl7Hfvdkk6DO5/hpBkGSNGt84XVKRvBZdmVhOTXfZGCbZiL0ZyoQibTBWa9nvOdaEeQyeXjpD1276Pkkk229CYsBNJwy6aAGiZZSkBlfOpD7PklcofMhRAV5gQDjcc3z2Ddp1PwwoiReHnGt/g79RZKH+jgxdtGVBPFfI0uns93IM15wcsa8o0OZ7YXDRSUQGNhzv/w3OP4asJsbEinTiV/O7UGTsWsiVMx5+kG8CU4pez9+Pg1Lb9kNtjp0U5PpqkxLAtmcQjpHo/eYZaelXJ2Yclye9p+TomxAgyBYiJgQJ32bRGp3rEcWIeNdj3pq6QlXDl6BMkK7/Cu1wCK5bjrdXMBaPXCPEzuXsW8pkk5J/Dt61Ox2l6YV9cpl6Akh8AGZJr+v9VImPsk2lQxmi8VhNzruJyRiaybgvnygQ+MwwOTvsO6pR/g2XZVHDj9L0ET2CvlGwE9eFxhRBh/tyBS0v1SWfRR4T6jdYPx9yKgsIwyQ6AC8Xd37BlMmTh1cD/27affgUM4duoCrpqVETgYqrTG0Lm/4I//vY2B9SvJJ1CnScNHGWl92J69DapdJNHKIfMoOudaLgJvgjOpV4K0BTLYkJJcUKm/+jv5K2uh+CsLh9iij6Wxsl+yP8kvWaqLoj57n8hFkDNz0lQzJ2rnmeUuCBXsEWP5DIFiIsBVgRSkRrGk6ZmZ5IQAmVFmnqMy4Q7K+UKqUlN5TpPUFEBaa12U+ejgtUo2wid/0uai6Zpv5qnXfKflp/pw5MU/A8lHPiLR9yVTwIGtciAD+k55jZG1SCM7Q+wwCkId+i4yzxEG1oG07DkYT6h+zBx81+34iNa+PCFfVYLz8rJqh4lZV2GVa0o3ccOsqiEnHl7ehvwFW8hz7rvn3BJMIn9lP80fQP7KItDj0b4WUuSXbMs75JfssBPTUz3a6ck0nY1FPhJ3P9BZMamVcH3bUqx2KqhwRpQ9Zwi4ioAf6taPVgTwIm7kBKLRnV0R5+R1Lizf3yJfJQIkWyK+4+Ql62MS4g+YgfeHNYKfLMAXLmLDrJfx7vYs5zzL1SpcLkeR8FqMxOefjkDLQOJHZHp6aef3mPfh91izJxlZ8t0KaeVGNuqKQc+/hOHdolApphfGflYH0WOH4s31Fwtsi12ulhWsWAjoweM0EBIYfyfNzhLul8qojwp0G+PvGqOYZZUdAhWFv7tpz3BjC+Y+saUA/By5DmvS82GMHDME3aN8EdyYLs2+jkbIsOfxhaYf5/zXtQVlebLfFMV80kCHfVnkJp/pbl6kTRL9w+wIjczIrGZSVNZW2Uz2a+Y0yf7K/kP+ixoir209pbTsl2wWDPvPOn3baYGQeyDUVAQV5PCYP7TJJcmhU7qsAEPAFQS4QIpOp+oFkVRI1qBymGjsZ19xWAJcGPkFVKcs0a79PEy1Hb9S5ClH5o7yXLUedugfesx3Y1MIdz2tCMno+0+9A2MC+WGzVfaSboBL+QOGhF3gen8JU9MoalstiL3HQzz/Ommc5gucinzHbZuRh+zsPFouLQ7bOW8fdSWFdCUVabJzMTmcGq1JmWrENc7bbK6pJrOfDqefTv5MNs7Ga980xv8NrQ8f8xot4MKKqXj9Z1ei0+nRTk+m6XhAGmrfh/g2ihN/8n+0MWE9Mpz2sWOa7ClDwGUEDGGoGi5rUMmJR1DnF7Cgs8tvmwtydLHhJ9+bOpHBW6jyiCArgU+n9CQtNqpVzMLeT17E+J9POb0EKF6rXCzt2xwjpz+LFrKQjERemVtm4rHRi3Da1kWgeAOpB1fhwxd24tDb3+HD+GgYvWMwcOrr2LZvHJanswnrItoVuJgePE4LLsbfS75fKqs+yu83xt+1xjDLKzMEKgR/13fPIOWk4cCKDzFyyzaM/WIhhjfxAx/cFmNmDse2QR/ikAN3wepJ3qY/6cB+w+bA7heSb+olngV3WTnpimnkc0hRPSN/O5LVXxltJm5eyY+U6XCkUFmxwMmZFE+otaXej5A5ZyNy4i9v0OR0fQP40w78QzlsI3vIECgJAiSNsso+aEDL49pZEpxc1ZOfmAL+A53R03pOaul04rF5otN8j3kYQogi1BMTYdj0W0EhmW3bpAzwW74Arzrx9+8KoZGqOaf1EbdznogrmVes2gdccCj5D1PaK5zByTOW9U4ypeLCRWXt40MQZi0kwXTlcr7mmaNPJXN3U56pgKaDQEJPOUKv86RHOz2ZpiPEjWjU/340VkxtxUtrsWTzrdCqcdRG9qxiI+ADX9kuuzSJ+AZv627DLi1ylN/+ZSycOxAx5kuBHJz46VWM+mQ/rru0NtklXOIHgV0ew8DaiqDQdAz//c/PBYVktpQpCvGG9xfiz2uWxvIhPfBE/yjH5vAlbhl7sXwhoAePs4MA4+8l3C+VYR+Zu47xdzsjmGWXGQLlnb+X3Z5BuvoPPpz2A06aj18cvOs9hMc6yv6y7ScNjTISfl0lzTFUt7zlS6ZgsgaKTFQ6B+4C+VGKpMh56YfBqX7+uVBAieYmS7m4q2n2a7Q+oQ1UzEswtbVV/icfTI0nQTg3BMaD512gYaeIsRWEhrWUhyQIOLbcsX8oO2RYNkOgxAjQ4cCsfWlONNaNqhmmA4pGGzNnrWISCdusUhATuJ1jYTycqlXSfh5FWCwYVVKP+W6EGN0yX1B4+W/wGbYCcY3mZW83R6QVa8marCTojmoO/OPMXFWDzi3PEpF6IY2EVzXMyyZXOQIRctfLclIhmezl0yE2iYT47yEcURVvSVMwIkw9xFJEuJTUAkGEtT+JfGJ0eRVzhzU0mzWZE/mQrHn/VEzfNRijf022E+1SpaZHOz2ZpnYvmXN92yC+Xy1F6VrAuVVLsf2Gg/LsEUPA7QiQOXeeyo9MOPx/ozAhIbV45oTidaQqwiNHzfNvMgwLPhiCxv6ykMyEcysn47kZm3DrFLLoINu+NczKZJSEpL+wxbJLtvsZUsZf2HwwDz07Ej8iP5AN27VE0NdncfkWCfrsNpQ9KGME9OBxWp/A+HvJ90tl1UdKvzH+rjWAWV6ZIlC++XtZ7xlyD6/FxuQhqFuLTml8MFq2qkPKHIfsnpm0NcoyzuRrdfHRkEJUu8o88Ef/IP9GdNimimR/ZebkW4scdaunNTrAZ5x1PkSC7oHprgGWgABkhsQl/k30iCAJ3cTu0yCEK6afzikVLRHTD6K6KxJPU9S//UXLsByGgJ4ISJmkmak6+6Np5h/ipDaKkukf7LiMTNMcAENONN+EDHCXThbvl36hkMYmCZLdPt/9gCCbb7lOwjynB4yrpPlplbwDAdXyNVkdo3KbPaVN2slTuKYq23rVtizG5lbmYc/yVUgyXcfuhNU4pcgOuaAYxIYrSzGZT57+17nppKFaP0ydPhC15AjFZMq3a81fSJF9o/Gh6E6O/ofFORPM6tFOT6ZpfxgGdn4Ad6te1IXTWPb7XhcEofbpsScMgWIjQL4LL9FlhWUZ5uCVm4ETiYlILM7v5HlcdXLf4VV7IN756EW0CaL1jNay1I0zMPyN5Uh28l6xv6dYL/ihWvVgq3cQ8WIKLjrjR9IVpF7MseJljKyOCI3dcrGawQpXAAT04HFFYWH8XcakpPulsukjtdcYfy86fllOGSNQjvn7LdkzSGlIsQYU4hFeLcJh0B5t1p92ELyqucLXJIfbNof8cx/C68uB8NptIwyLaJxv5igmg0t14mvJEAvh7leUiJR0UD/xLoy/T4Rhn6JB4t0MQt+R5N9IFb4VZ9CFkcbGnYo2C+2G0laCT7ulu7TiNJ6VrTAIkODnsuqXjGJrhZIw2eG3kRZVqDNzw+skFEtRqJBgLbyOQ4ouP3T7fLc1O6VW2AYEcdQoinJkTRT50VWnglxAA8S/+j6+XfQDvpo7Gr2inQmJHDWi9M/yjh7AEVWbkI9C08ah1k/J2T0Pg+66D899d9p6e+HdsCkaqBEwxSQcPHTZ8VjxrosnZ01EL7NwTcSltbMwbtw4TPzfGbMSIxfQAqPnvoh2gY7XTz3a6ck0NUcOBfXoHd8NIeahLSHvyO9YepTxI02sWKZ+CEjXcPJEiqJBxqNmXD0lsIT7qjRU7YNpCyejZwQFJiEhWcqG6Xh63E84Wcq4TKVuIWmEGVQ3HDIxCrCiYUpRqBoORqN6QUxrKk80St0QRqAiIKAHjyuAC+Pvpd4v6d5Haocx/l4RpnT5/4Zyyt9v2Z6Bq4RKssa7knjZJZGDpP00+x9wqv8ceEGsZxtZj/womU0z1eQNsU6nfO2PazvpMO/oIOAPqeN0CFHk7Fw+Dl5dBsMfK2ljRQ73N70FQ5q8q6IPqDIYph7dHB8YtT6sch8I0f7KkzzSfFvtor80LWIsjyFQUgRM4C8cVV6m8RzZCpIjJUm+HqQalZ1URtqaZ2lumiVuRLNmTxI2OxaGOCFoeez2+U42hTdsTkfBFMnS2SmDI4F8iA1AN9Jd0EKj5vPVED/3C8wY0hvtmjVHp/tGYP6XE3GnEyGRS7iUsJCUsQN/HVPVxbzQqldXhFu7yYTLZJqZH6fABy26d0aoshILqX9ja6Kj9bMSWo6cg5faBpLPHInM1BMweeoyXBCuYuu8N/DFsZuUy8Gn7hOYM7EnqjgYHnq005Npag0XvsY9iO+ohKCWcrEnYQVOO+peLSIsjyFQagRMOLptB9LNmq4cWQP3QXeruXepiYMP64yJC2dhQLSXRUi2fiqGkpDshEuO/0tfv0MK5G4gM1PVDpPjxdRFjBMvBzDURJ3a3tYDu5h5iQXfcAiy5zzUg8flo8f4uzv2S/r2UX5vMf7uOfP+9v7S8sffb+WegQtpgdax6qFURBq5u3G0LdcWlEnJZGJ5SBkXdNKKeghipJ1TfiU6rMeRzzJzIu2w46vB262RaMWOJb9kSpRLMkMxrJoHXg3xlrcfhpWfku8zWRJA/soaToTQzJmWje3wpaNjo36QZHMkOeXthOE4mZqxxBAocwRoDJ/ZQr7xFD0y3ztIoEy+/OylqP4QrSbO9gpRftIy8GpADZ87IHRo66Bw4Uc03bUEJ26f7yTQS0nMr9yvC327E7PSyHsghqsLl0DvH3FJwM2Hd8P9d4TYOFrmYKh+N+7vcAu1yoQkrFl5AJbYBHQobTcYjzTUXj/58N54/O5Iq/+q5NUrsEe1QC3cfdR5od1kv2RxkP1yS3mn8P2kOdighk/M3osFEz7GbtmPEPkrq95vCmY8GGVfE0KPdnoyzSL9ZUDd/gPQUoloKt3YjiWrzxfPL1QRmiyDIVAyBG7uXIJlSZbNGRfQBSNGdECQFj/QJM/DoL1bJD+MbfHyJ/PwWH1fs5Ds4qaZeGb8Yvx7qzXJrN+Rh6MHjkJlxXxwNzzQPUSTFaqveDfsh3vj8vnRuYOHcEn1eqCJD8v0GAT04HFm8Bh/Nwvx3bFf0q2PbEc54+8eM+fLwYeWJ/7u7j2DV2BQvq9mZ33FBaLt8CHopAY3Ei9j9z8nSiAokwVeh38Er/pDMtSD0Ps5SIWjJhlrQ+z1AkQ14mXuLvB7D9pvZtB95Jesv8UvGcUY53aQBlnStYLlL30P45/bLNokXAjErlMhmL1hu5AMTSE2qqsUpF3NKRIq3KowSy40lxWp4AhcWwf+pGJ+SZNT7DyWfOdpqFb5dYDQnQS8rhxaBDKL3rZRESKRMLn5dJjak+N7R+9S3VLtQRAGfgdTrJbAxt3zXTanXpUvJJTncbc3IVZRNT0L9XtAZwh3PaqsC/RMOEl+BY+4Nji8vUjntXAywttLA+fCxXT7W8DZhG+xNsNysuK84zD0rdFoV7lQJ/nEYOCbY9FTUSeTrv+DbxbtN/v910qGGvdj2rR4RMtmRNJNHP58IuZtLxg9Mff415jw7hZkylWTv7Kur87G8Ib2Irro0U5Pplmo18iFQHz/ekqgWhFXNydg7a3zaK41pFieJyGQux9fLVhnEfiQIL3Ww3PxwfCWilmwHSAMgYjp/Cgmfb4YU7pq8A6/xnj2o/l4pomsNSkic/t7eG7sIiTeNkIy+btEpKxbgR3qhSyti3dNmIZH6mvzI0NEV0yY/gTqKuaaUt4JLFtm39GvHeRYdoVFQA8eR6oBjL+bR4x79kv69FGBIc34e4Wd4eXyw8oLf3f7noFHxIAPsObnuRjdrzVqVrJzoyevLeRPv8/4hfjwsVhlXy7BdHoJft7uWPXdvquGG+th2Po3CcI6EXU6mEU+ibzH6sGwZwW4zOtAYCOIzQdBjFDNxcjB/473YLhi59rNUBfCPeMgmqNjksZD8kIYt6taa7bDkrRJDkyDMfobmGRNNe+m5K9sFLgf3wNvUdGwP4ajSSunsgISOT7nD221X5Y9YQjojsAVEmp9DS72JTK7pDkUdBdMg0Nh2PETmWUm0f69EqSqpG1FN2hiME3Fm1kUGEM2SXaUSAh1ZC4MUfVgahpNc5OCX3T+DLn1aL4eJgFa6hlwN0nU4hMMKTAGUs12EGM7QgoiB/vIBr/PDm13z/csMqneMQDiHY0sFQbcCdOjJHw/nAD+DAnBbtDC5B0BqXpXiM16QvJTBVtkLr3/fRispt922qtki+f/xp/HctCyiU++mUzWdmzcdWvDCkqZa/Heh1txx5tdEMxz8G/yND77qT4Wffc7dpy+Bp9qTdHz4cHo20BxMk3mQXs/n4Ofk+ysn971MWTWBPQMs6yfWbs+xGufHkDRr6QN4uI3MbX9Irx7D2mqVWqOUXPHYM+jc7E9S9FutIHU7e0k2p5M03a0+rd/APfWVMa1mIG1SzbhStEucDzA2VOGgNsQIBOD5TMwuX0c5sfXgpchFJ3GfIMVff7Ar0vW4e/Dp5FyJQ/egcEIq1YHzdp0QOdundG8qh9p7F7H74uKNiSgx7N4vlWQRaOXgjH5NhqKz9YMLVpQKyfvEBY8OQo/JGuvef59ZmL55M4oKJ7zRqA1w4hWLy3G5ucLTqrcbbMx4LUVBeaamJKAeeRbt/XoJuabZ0NEd0z58Tf0XvoLVvx1CGczboIPiETdlt0R/+BdaBRKftbkNlOk6dM/vYNvjts1k9D6MpZXwRFwO49j/N29+yV56rp7D1ZoTDP+XsEnebn7vPLB3/XZMxgQ0uhevDCnL0bdvIjEfftx8OgJJF28gqybIrwDQlGjbnN07NIWsZUV3i6vETkn8O20z7HXycWefUGZrFW2/y0YQz+CqXV9IknbhuBOpPlCgrMiKRfcIRJu7The5IklgwQCd1Aky5oBlj9v/AXjqh/A2dt7SBfBr5sOPnKeRYAQ9giEnnvBrVzvwByrMjnx756vlZNF2jxnyVcSSwyBW4lAxiIY1zYiTco+loAXge1oLNOvQJtoo5+1njQpL5BQ+HHSrHLW4HTwa0fBKLwLU/M4mpp0GI/sDYF+JU/unO9yK2hN2PEKjAHvURvl9YOSVw0Sro+kn71WkpbpkZmEww57BYrmC8fx5dhXEPDGaNzfIgKmpG344d2Z+C1V+/BVlIBeOQKSfp6IcbGfY/4TDVCJLhv8orpg6Ov0K1yllIPTSyZj7JfHtKMhcgFo/cIcjGkdaD68iZmbMfeNb5FoT/VMTMPKaVPQoclHGBRF2nWxj2H25N0YNOEPXCwCixvbaf0uT6apgMAFo/vA3qiizGUhZQ2W/M34UeGhz/4uYwSkS1j/9jMYmzMfMx9piEAKmhLa6G48I/8cNUVTwMvB29cXVj/5xIf8gsIgX8m4lEyV4UeXCPYS5x2IsLAw2LcnoOidtAGuomwrVTq5lX1tTPHV3Bwc+mwMxod/jLkPx9F6TGzTrybueHgM/ey0gLR2Ty17GyPe2Yarmt9v5z2W7QEIuJHHMf5O48WNeFpHnx40FeKMv3vAHC+Hn3jb83d99wyynIr3jUBc+17mn6MkZh3C9xNexDuFrHK03nFyJM8Av/FZeK36CVyWluMc2j1kHwa/fgS8Vv9hR4hFEf/qjCNhm2ISSWE5zUIwe5pnaitVYZo5ehz5Hmsg+ysjDRp7KYB8pcWo2jiklXZ0OXiKO8ASQ+DWIkBj8cibMP72KfhMrYMyaVAlkzDt58ngk87amUMaXyBeoHk0FF6/kKZlMvnho9t87UT5uefBJS6CYelzMJzSmsfqm+6Y7zatEFNJoDcMXgmfgU/N0G6eOZcm6sUNMCx/Cl4rSGPVngDdDoW85HV49/kH0KXjHeg+aDw+35Fxe/iBkjKwZc4QPDrpB+xIyXcmnf8ZFAUx4yB+mfk0Hpm8Cuc1v5tDWLcJmDukHsxBgIVUrJw+BYsVX0N2IIF0eTPmvP5fMoGi/pf9lfWdglkP1dL2V+aWdhZqiSfTJCj4iD6I7yIHXJCTgDPLl2K3k1sre33J8hkCbkXAdB5rpj+G/s/OxeJ/zuOGGuG8SCUULORaMvb+8R1mvzQUszc74h1FXr79MoQUrJ36GOJfXIAVh9JhdoWrlSQTMo+txcJXHsGDE5bidDn/bK1PZHluQMAtPI7xd2tPuAXPQv2qB02qgvF3N8wfRkIfBDyOv4u4tHEhZnz6GzYfSUW2YI+xy3BLELPPYccv72D4A49j+oYUh77J1A7i6tSPc0Q1vyP5ymQm1RpSOEWn8yFFtNwMcOkH6ZB/otgHW31GB6PKELjNEZB9hdVoAykiikwxZVPLFHAXdpIQyTaKbEm+gSQoAfUgViPNraAqkLzoeG4iU+jsFCA9Efylc/JZvXjJ7fOdtN4qN6Q21iWTUApqYJTbeI0E8ElkLnqAzLmvFq995a20MRixLdugZf1ohAd6QbiejuQT+7Fz13Fcup0OYnq005NplrdxytrrYQiQpmtEfTRv3gCxNcJRmUzgTTevIyv9Ak6fOIYjickga8wKmAwIimqMFk3ro3bVUAT48hBvXkN6ylmcOLQPB85cka9vWGIIuIaAHjzOtZqLV0qPdnoyzeKhz0ozBMoYAc/j74ZKkYitVwcxtaJQLTQQfr5GCjCZg6yMNJw7dQz7D53EpZuuib3UznJdUFbG3cuqYwgwBBgCDAGGAEOAIcAQYAgwBBgCDAGGAEOAIcAQYAiUJQJOTC/LsimsLoYAQ4AhwBBgCDAEGAIMAYYAQ4AhwBBgCDAEGAIMAYbArUOACcpuHfasZoYAQ4AhwBBgCDAEGAIMAYYAQ4AhwBBgCDAEGAIMgdsIgf8HEbxXZK54TQAAAAAASUVORK5CYII=;" vertex="1" parent="1">
          <mxGeometry x="320" y="290" width="666" height="110.82" as="geometry" />
        </mxCell>
        <mxCell id="DdXPLfDgXR_BWDgCI4JC-9" value="&lt;font style=&quot;font-size: 17px;&quot;&gt;&lt;b style=&quot;font-size: 17px;&quot;&gt;0x7fffffffde&lt;font color=&quot;#0066cc&quot;&gt;0&lt;font style=&quot;font-size: 17px;&quot;&gt;8&lt;/font&gt;&lt;/font&gt;&lt;/b&gt;&lt;/font&gt;" style="text;html=1;align=center;verticalAlign=middle;resizable=0;points=[];autosize=1;strokeColor=none;fillColor=none;fontFamily=Courier New;fontSize=17;" vertex="1" parent="1">
          <mxGeometry x="830" y="440" width="170" height="30" as="geometry" />
        </mxCell>
        <mxCell id="DdXPLfDgXR_BWDgCI4JC-10" value="" style="verticalLabelPosition=bottom;shadow=0;dashed=0;align=center;html=1;verticalAlign=top;strokeWidth=2;shape=mxgraph.mockup.markup.curlyBrace;whiteSpace=wrap;strokeColor=#6c8ebf;rotation=-180;fillColor=#dae8fc;" vertex="1" parent="1">
          <mxGeometry x="551" y="400.82" width="20" height="20" as="geometry" />
        </mxCell>
        <mxCell id="DdXPLfDgXR_BWDgCI4JC-11" value="" style="verticalLabelPosition=bottom;shadow=0;dashed=0;align=center;html=1;verticalAlign=top;strokeWidth=2;shape=mxgraph.mockup.markup.curlyBrace;whiteSpace=wrap;strokeColor=#b85450;rotation=-180;fillColor=#f8cecc;" vertex="1" parent="1">
          <mxGeometry x="530" y="400.82" width="20" height="20" as="geometry" />
        </mxCell>
        <mxCell id="DdXPLfDgXR_BWDgCI4JC-12" value="&lt;font style=&quot;font-size: 17px;&quot;&gt;&lt;b style=&quot;font-size: 17px;&quot;&gt;0x7fffffffde&lt;font color=&quot;#990000&quot;&gt;0&lt;font style=&quot;font-size: 17px;&quot;&gt;9&lt;/font&gt;&lt;/font&gt;&lt;/b&gt;&lt;/font&gt;" style="text;html=1;align=center;verticalAlign=middle;resizable=0;points=[];autosize=1;strokeColor=none;fillColor=none;fontFamily=Courier New;fontSize=17;" vertex="1" parent="1">
          <mxGeometry x="830" y="460" width="170" height="30" as="geometry" />
        </mxCell>
        <mxCell id="DdXPLfDgXR_BWDgCI4JC-13" value="&lt;font style=&quot;font-size: 17px;&quot;&gt;&lt;b style=&quot;font-size: 17px;&quot;&gt;0x7fffffffde&lt;font color=&quot;#0066cc&quot;&gt;0&lt;font style=&quot;font-size: 17px;&quot;&gt;a&lt;/font&gt;&lt;/font&gt;&lt;/b&gt;&lt;/font&gt;" style="text;html=1;align=center;verticalAlign=middle;resizable=0;points=[];autosize=1;strokeColor=none;fillColor=none;fontFamily=Courier New;fontSize=17;labelBorderColor=none;labelBackgroundColor=default;" vertex="1" parent="1">
          <mxGeometry x="830" y="480" width="170" height="30" as="geometry" />
        </mxCell>
        <mxCell id="DdXPLfDgXR_BWDgCI4JC-14" value="&lt;font style=&quot;font-size: 17px;&quot;&gt;&lt;b style=&quot;font-size: 17px;&quot;&gt;0x7fffffffde&lt;font color=&quot;#990000&quot;&gt;0&lt;font style=&quot;font-size: 17px;&quot;&gt;b&lt;/font&gt;&lt;/font&gt;&lt;/b&gt;&lt;/font&gt;" style="text;html=1;align=center;verticalAlign=middle;resizable=0;points=[];autosize=1;strokeColor=none;fillColor=none;fontFamily=Courier New;fontSize=17;" vertex="1" parent="1">
          <mxGeometry x="830" y="500" width="170" height="30" as="geometry" />
        </mxCell>
        <mxCell id="DdXPLfDgXR_BWDgCI4JC-15" value="&lt;font style=&quot;font-size: 17px;&quot;&gt;&lt;b style=&quot;font-size: 17px;&quot;&gt;0x7fffffffde&lt;font color=&quot;#0066cc&quot;&gt;0&lt;font style=&quot;font-size: 17px;&quot;&gt;c&lt;/font&gt;&lt;/font&gt;&lt;/b&gt;&lt;/font&gt;" style="text;html=1;align=center;verticalAlign=middle;resizable=0;points=[];autosize=1;strokeColor=none;fillColor=none;fontFamily=Courier New;fontSize=17;" vertex="1" parent="1">
          <mxGeometry x="830" y="520" width="170" height="30" as="geometry" />
        </mxCell>
        <mxCell id="DdXPLfDgXR_BWDgCI4JC-16" value="&lt;font style=&quot;font-size: 17px;&quot;&gt;&lt;b style=&quot;font-size: 17px;&quot;&gt;0x7fffffffde&lt;font color=&quot;#990000&quot;&gt;0&lt;font style=&quot;font-size: 17px;&quot;&gt;d&lt;/font&gt;&lt;/font&gt;&lt;/b&gt;&lt;/font&gt;" style="text;html=1;align=center;verticalAlign=middle;resizable=0;points=[];autosize=1;strokeColor=none;fillColor=none;fontFamily=Courier New;fontSize=17;" vertex="1" parent="1">
          <mxGeometry x="830" y="540" width="170" height="30" as="geometry" />
        </mxCell>
        <mxCell id="DdXPLfDgXR_BWDgCI4JC-17" value="&lt;font style=&quot;font-size: 17px;&quot;&gt;&lt;b style=&quot;font-size: 17px;&quot;&gt;0x7fffffffde&lt;font color=&quot;#0066cc&quot;&gt;0&lt;font style=&quot;font-size: 17px;&quot;&gt;e&lt;/font&gt;&lt;/font&gt;&lt;/b&gt;&lt;/font&gt;" style="text;html=1;align=center;verticalAlign=middle;resizable=0;points=[];autosize=1;strokeColor=none;fillColor=none;fontFamily=Courier New;fontSize=17;" vertex="1" parent="1">
          <mxGeometry x="830" y="560" width="170" height="30" as="geometry" />
        </mxCell>
        <mxCell id="DdXPLfDgXR_BWDgCI4JC-18" value="&lt;font style=&quot;font-size: 17px;&quot;&gt;&lt;b style=&quot;font-size: 17px;&quot;&gt;0x7fffffffde&lt;font color=&quot;#990000&quot;&gt;0&lt;font style=&quot;font-size: 17px;&quot;&gt;f&lt;/font&gt;&lt;/font&gt;&lt;/b&gt;&lt;/font&gt;" style="text;html=1;align=center;verticalAlign=middle;resizable=0;points=[];autosize=1;strokeColor=none;fillColor=none;fontFamily=Courier New;fontSize=17;" vertex="1" parent="1">
          <mxGeometry x="830" y="580" width="170" height="30" as="geometry" />
        </mxCell>
        <mxCell id="DdXPLfDgXR_BWDgCI4JC-19" value="" style="endArrow=classic;html=1;rounded=0;strokeWidth=2;endSize=1;fillColor=#dae8fc;strokeColor=#6c8ebf;entryX=0.501;entryY=0.356;entryDx=0;entryDy=0;entryPerimeter=0;exitX=0.082;exitY=-0.087;exitDx=0;exitDy=0;exitPerimeter=0;" edge="1" parent="1" source="DdXPLfDgXR_BWDgCI4JC-12" target="DdXPLfDgXR_BWDgCI4JC-37">
          <mxGeometry width="50" height="50" relative="1" as="geometry">
            <mxPoint x="660" y="550" as="sourcePoint" />
            <mxPoint x="816.3500000000001" y="424.74" as="targetPoint" />
            <Array as="points">
              <mxPoint x="700" y="457" />
            </Array>
          </mxGeometry>
        </mxCell>
        <mxCell id="DdXPLfDgXR_BWDgCI4JC-20" value="" style="endArrow=classic;html=1;rounded=0;strokeWidth=2;endSize=1;fillColor=#dae8fc;strokeColor=#6c8ebf;entryX=0.65;entryY=0.541;entryDx=0;entryDy=0;entryPerimeter=0;exitX=0.059;exitY=0.5;exitDx=0;exitDy=0;exitPerimeter=0;" edge="1" parent="1" source="DdXPLfDgXR_BWDgCI4JC-13" target="DdXPLfDgXR_BWDgCI4JC-35">
          <mxGeometry width="50" height="50" relative="1" as="geometry">
            <mxPoint x="752" y="452" as="sourcePoint" />
            <mxPoint x="730" y="420" as="targetPoint" />
            <Array as="points">
              <mxPoint x="650" y="495" />
            </Array>
          </mxGeometry>
        </mxCell>
        <mxCell id="DdXPLfDgXR_BWDgCI4JC-21" value="" style="endArrow=classic;html=1;rounded=0;strokeWidth=2;endSize=1;fillColor=#dae8fc;strokeColor=#6c8ebf;entryX=0.481;entryY=0.356;entryDx=0;entryDy=0;entryPerimeter=0;exitX=0.059;exitY=0.5;exitDx=0;exitDy=0;exitPerimeter=0;" edge="1" parent="1" source="DdXPLfDgXR_BWDgCI4JC-15" target="DdXPLfDgXR_BWDgCI4JC-33">
          <mxGeometry width="50" height="50" relative="1" as="geometry">
            <mxPoint x="750" y="495" as="sourcePoint" />
            <mxPoint x="650" y="420" as="targetPoint" />
            <Array as="points">
              <mxPoint x="610" y="535" />
            </Array>
          </mxGeometry>
        </mxCell>
        <mxCell id="DdXPLfDgXR_BWDgCI4JC-22" value="" style="endArrow=classic;html=1;rounded=0;strokeWidth=2;endSize=1;fillColor=#dae8fc;strokeColor=#6c8ebf;exitX=0.059;exitY=0.5;exitDx=0;exitDy=0;exitPerimeter=0;entryX=0.488;entryY=0.541;entryDx=0;entryDy=0;entryPerimeter=0;" edge="1" parent="1" target="DdXPLfDgXR_BWDgCI4JC-10">
          <mxGeometry width="50" height="50" relative="1" as="geometry">
            <mxPoint x="840" y="575" as="sourcePoint" />
            <mxPoint x="650" y="460" as="targetPoint" />
            <Array as="points">
              <mxPoint x="561" y="575" />
            </Array>
          </mxGeometry>
        </mxCell>
        <mxCell id="DdXPLfDgXR_BWDgCI4JC-23" value="" style="endArrow=classic;html=1;rounded=0;strokeWidth=2;endSize=1;fillColor=#f8cecc;strokeColor=#b85450;exitX=0.059;exitY=0.5;exitDx=0;exitDy=0;exitPerimeter=0;entryX=0.501;entryY=0.414;entryDx=0;entryDy=0;entryPerimeter=0;" edge="1" parent="1" target="DdXPLfDgXR_BWDgCI4JC-11">
          <mxGeometry width="50" height="50" relative="1" as="geometry">
            <mxPoint x="840" y="595" as="sourcePoint" />
            <mxPoint x="565" y="450" as="targetPoint" />
            <Array as="points">
              <mxPoint x="540" y="595" />
            </Array>
          </mxGeometry>
        </mxCell>
        <mxCell id="DdXPLfDgXR_BWDgCI4JC-24" value="" style="endArrow=classic;html=1;rounded=0;strokeWidth=2;endSize=1;fillColor=#f8cecc;strokeColor=#b85450;exitX=0.059;exitY=0.5;exitDx=0;exitDy=0;exitPerimeter=0;entryX=0.504;entryY=0.356;entryDx=0;entryDy=0;entryPerimeter=0;" edge="1" parent="1" target="DdXPLfDgXR_BWDgCI4JC-34">
          <mxGeometry width="50" height="50" relative="1" as="geometry">
            <mxPoint x="840" y="552.5" as="sourcePoint" />
            <mxPoint x="609.8799999999999" y="425.38" as="targetPoint" />
            <Array as="points">
              <mxPoint x="584" y="553" />
            </Array>
          </mxGeometry>
        </mxCell>
        <mxCell id="DdXPLfDgXR_BWDgCI4JC-25" value="" style="endArrow=classic;html=1;rounded=0;strokeWidth=2;endSize=1;fillColor=#f8cecc;strokeColor=#b85450;entryX=0.518;entryY=0.37;entryDx=0;entryDy=0;entryPerimeter=0;exitX=0.059;exitY=0.5;exitDx=0;exitDy=0;exitPerimeter=0;" edge="1" parent="1" target="DdXPLfDgXR_BWDgCI4JC-36">
          <mxGeometry width="50" height="50" relative="1" as="geometry">
            <mxPoint x="840" y="512.5" as="sourcePoint" />
            <mxPoint x="691.8400000000001" y="425.06000000000006" as="targetPoint" />
            <Array as="points">
              <mxPoint x="630" y="510" />
            </Array>
          </mxGeometry>
        </mxCell>
        <mxCell id="DdXPLfDgXR_BWDgCI4JC-26" value="" style="endArrow=classic;html=1;rounded=0;strokeWidth=2;endSize=1;fillColor=#f8cecc;strokeColor=#b85450;exitX=0.059;exitY=0.5;exitDx=0;exitDy=0;exitPerimeter=0;entryX=0.449;entryY=0.386;entryDx=0;entryDy=0;entryPerimeter=0;" edge="1" parent="1" target="DdXPLfDgXR_BWDgCI4JC-38">
          <mxGeometry width="50" height="50" relative="1" as="geometry">
            <mxPoint x="840" y="479" as="sourcePoint" />
            <mxPoint x="783.3050847457628" y="430" as="targetPoint" />
            <Array as="points">
              <mxPoint x="676" y="480" />
            </Array>
          </mxGeometry>
        </mxCell>
        <mxCell id="DdXPLfDgXR_BWDgCI4JC-27" value="&lt;font style=&quot;font-size: 17px;&quot;&gt;&lt;span style=&quot;font-size: 15px;&quot;&gt;&lt;b style=&quot;font-size: 17px;&quot;&gt;&lt;font style=&quot;font-size: 17px;&quot; face=&quot;Courier New&quot;&gt;0x7fffffffdd&lt;font style=&quot;font-size: 17px;&quot; color=&quot;#0066cc&quot;&gt;e0&lt;/font&gt;&lt;/font&gt;&lt;/b&gt;&lt;br style=&quot;font-size: 17px;&quot;&gt;&lt;/span&gt;&lt;/font&gt;" style="text;html=1;align=center;verticalAlign=middle;resizable=0;points=[];autosize=1;strokeColor=none;fillColor=none;fontFamily=Courier New;fontSize=17;" vertex="1" parent="1">
          <mxGeometry x="1080" y="340" width="170" height="30" as="geometry" />
        </mxCell>
        <mxCell id="DdXPLfDgXR_BWDgCI4JC-28" value="" style="verticalLabelPosition=bottom;shadow=0;dashed=0;align=center;html=1;verticalAlign=top;strokeWidth=2;shape=mxgraph.mockup.markup.curlyBrace;whiteSpace=wrap;strokeColor=#6c8ebf;rotation=0;fillColor=#dae8fc;" vertex="1" parent="1">
          <mxGeometry x="962" y="300" width="20" height="20" as="geometry" />
        </mxCell>
        <mxCell id="DdXPLfDgXR_BWDgCI4JC-29" value="" style="endArrow=classic;html=1;rounded=0;entryX=0.509;entryY=0.324;entryDx=0;entryDy=0;entryPerimeter=0;strokeWidth=2;fillColor=#dae8fc;strokeColor=#6c8ebf;exitX=0.059;exitY=0.5;exitDx=0;exitDy=0;exitPerimeter=0;" edge="1" parent="1" source="DdXPLfDgXR_BWDgCI4JC-27" target="DdXPLfDgXR_BWDgCI4JC-28">
          <mxGeometry width="50" height="50" relative="1" as="geometry">
            <mxPoint x="1025" y="440" as="sourcePoint" />
            <mxPoint x="1075" y="390" as="targetPoint" />
            <Array as="points">
              <mxPoint x="1040" y="355" />
              <mxPoint x="1040" y="280" />
              <mxPoint x="972" y="280" />
            </Array>
          </mxGeometry>
        </mxCell>
        <mxCell id="DdXPLfDgXR_BWDgCI4JC-30" value="&lt;font style=&quot;font-size: 17px;&quot;&gt;&lt;span style=&quot;font-size: 15px;&quot;&gt;&lt;b style=&quot;font-size: 17px;&quot;&gt;&lt;font style=&quot;font-size: 17px;&quot; face=&quot;Courier New&quot;&gt;0x7fffffffdd&lt;font color=&quot;#990000&quot; style=&quot;font-size: 17px;&quot;&gt;e7&lt;/font&gt;&lt;/font&gt;&lt;/b&gt;&lt;br style=&quot;font-size: 17px;&quot;&gt;&lt;/span&gt;&lt;/font&gt;" style="text;html=1;align=center;verticalAlign=middle;resizable=0;points=[];autosize=1;strokeColor=none;fillColor=none;fontFamily=Courier New;fontSize=17;" vertex="1" parent="1">
          <mxGeometry x="1080" y="310" width="170" height="30" as="geometry" />
        </mxCell>
        <mxCell id="DdXPLfDgXR_BWDgCI4JC-31" value="" style="verticalLabelPosition=bottom;shadow=0;dashed=0;align=center;html=1;verticalAlign=top;strokeWidth=2;shape=mxgraph.mockup.markup.curlyBrace;whiteSpace=wrap;strokeColor=#b85450;rotation=0;fillColor=#f8cecc;" vertex="1" parent="1">
          <mxGeometry x="800" y="300" width="24" height="20" as="geometry" />
        </mxCell>
        <mxCell id="DdXPLfDgXR_BWDgCI4JC-32" value="" style="endArrow=classic;html=1;rounded=0;entryX=0.464;entryY=0.29;entryDx=0;entryDy=0;entryPerimeter=0;strokeWidth=2;fillColor=#f8cecc;strokeColor=#b85450;" edge="1" parent="1" target="DdXPLfDgXR_BWDgCI4JC-31">
          <mxGeometry width="50" height="50" relative="1" as="geometry">
            <mxPoint x="1090" y="325" as="sourcePoint" />
            <mxPoint x="970" y="296" as="targetPoint" />
            <Array as="points">
              <mxPoint x="1050" y="325" />
              <mxPoint x="1050" y="270" />
              <mxPoint x="811" y="270" />
            </Array>
          </mxGeometry>
        </mxCell>
        <mxCell id="DdXPLfDgXR_BWDgCI4JC-33" value="" style="verticalLabelPosition=bottom;shadow=0;dashed=0;align=center;html=1;verticalAlign=top;strokeWidth=2;shape=mxgraph.mockup.markup.curlyBrace;whiteSpace=wrap;strokeColor=#6c8ebf;rotation=-180;fillColor=#dae8fc;" vertex="1" parent="1">
          <mxGeometry x="597" y="400.82" width="20" height="20" as="geometry" />
        </mxCell>
        <mxCell id="DdXPLfDgXR_BWDgCI4JC-34" value="" style="verticalLabelPosition=bottom;shadow=0;dashed=0;align=center;html=1;verticalAlign=top;strokeWidth=2;shape=mxgraph.mockup.markup.curlyBrace;whiteSpace=wrap;strokeColor=#b85450;rotation=-180;fillColor=#f8cecc;" vertex="1" parent="1">
          <mxGeometry x="574" y="400.82" width="20" height="20" as="geometry" />
        </mxCell>
        <mxCell id="DdXPLfDgXR_BWDgCI4JC-35" value="" style="verticalLabelPosition=bottom;shadow=0;dashed=0;align=center;html=1;verticalAlign=top;strokeWidth=2;shape=mxgraph.mockup.markup.curlyBrace;whiteSpace=wrap;strokeColor=#6c8ebf;rotation=-180;fillColor=#dae8fc;" vertex="1" parent="1">
          <mxGeometry x="643" y="400.82" width="20" height="20" as="geometry" />
        </mxCell>
        <mxCell id="DdXPLfDgXR_BWDgCI4JC-36" value="" style="verticalLabelPosition=bottom;shadow=0;dashed=0;align=center;html=1;verticalAlign=top;strokeWidth=2;shape=mxgraph.mockup.markup.curlyBrace;whiteSpace=wrap;strokeColor=#b85450;rotation=-180;fillColor=#f8cecc;" vertex="1" parent="1">
          <mxGeometry x="620" y="400.82" width="20" height="20" as="geometry" />
        </mxCell>
        <mxCell id="DdXPLfDgXR_BWDgCI4JC-37" value="" style="verticalLabelPosition=bottom;shadow=0;dashed=0;align=center;html=1;verticalAlign=top;strokeWidth=2;shape=mxgraph.mockup.markup.curlyBrace;whiteSpace=wrap;strokeColor=#6c8ebf;rotation=-180;fillColor=#dae8fc;" vertex="1" parent="1">
          <mxGeometry x="690" y="400.82" width="20" height="20" as="geometry" />
        </mxCell>
        <mxCell id="DdXPLfDgXR_BWDgCI4JC-38" value="" style="verticalLabelPosition=bottom;shadow=0;dashed=0;align=center;html=1;verticalAlign=top;strokeWidth=2;shape=mxgraph.mockup.markup.curlyBrace;whiteSpace=wrap;strokeColor=#b85450;rotation=-180;fillColor=#f8cecc;" vertex="1" parent="1">
          <mxGeometry x="666" y="400.82" width="20" height="20" as="geometry" />
        </mxCell>
      </root>
    </mxGraphModel>
  </diagram>
</mxfile>
